<?xml version="1.0" standalone="no"?>
<!DOCTYPE svg PUBLIC "-//W3C//DTD SVG 20010904//EN"
 "http://www.w3.org/TR/2001/REC-SVG-20010904/DTD/svg10.dtd">
<svg version="1.0" xmlns="http://www.w3.org/2000/svg"
 width="3000.000000pt" height="3000.000000pt" viewBox="0 0 3000.000000 3000.000000"
 preserveAspectRatio="xMidYMid meet">
<metadata>
Created by potrace 1.14, written by Peter Selinger 2001-2017
</metadata>
<g transform="translate(0.000000,3000.000000) scale(0.100000,-0.100000)"
fill="#000000" stroke="none">
<path d="M6118 22499 c-35 -26 -113 -130 -144 -192 -14 -26 -33 -56 -43 -66
-26 -26 -40 -67 -121 -360 -12 -43 -29 -75 -53 -100 -31 -32 -41 -58 -87 -221
-50 -178 -121 -375 -154 -424 -12 -19 -51 -35 -173 -74 -323 -104 -419 -132
-443 -132 -14 0 -38 -9 -55 -20 -36 -24 -73 -25 -103 -4 -19 13 -31 14 -85 4
-83 -15 -106 -15 -142 0 -29 12 -33 10 -100 -40 -38 -29 -83 -59 -101 -68 -21
-10 -37 -28 -47 -53 -12 -30 -22 -40 -48 -47 -58 -14 -81 -94 -34 -112 14 -5
25 -14 25 -20 0 -6 23 -21 51 -32 36 -15 55 -31 67 -54 22 -43 248 -194 290
-194 16 0 37 -8 46 -19 15 -17 20 -17 54 -5 47 17 62 17 62 2 0 -7 12 -22 28
-34 25 -21 26 -24 10 -40 -16 -16 -19 -16 -51 0 -27 12 -42 14 -62 6 -42 -16
-24 -34 46 -44 104 -15 358 -8 417 13 17 6 47 16 65 22 57 21 106 23 113 6 8
-22 -16 -315 -28 -346 -6 -14 -12 -98 -13 -186 -2 -88 -8 -180 -15 -204 -6
-25 -9 -58 -6 -75 5 -25 0 -36 -31 -68 -20 -21 -45 -38 -55 -38 -10 0 -46 -21
-80 -46 -68 -50 -129 -84 -150 -84 -8 0 -38 -25 -68 -56 -30 -30 -68 -63 -85
-71 -99 -53 -516 -508 -648 -708 -32 -49 -78 -110 -101 -135 -23 -25 -53 -70
-66 -100 -14 -30 -43 -91 -66 -135 -54 -105 -60 -133 -79 -371 -18 -220 -14
-257 30 -345 14 -27 36 -55 48 -64 27 -17 72 -93 62 -103 -3 -4 -24 3 -45 16
-48 27 -50 27 -50 1 0 -11 13 -33 30 -47 16 -15 30 -35 30 -46 0 -16 -3 -17
-12 -8 -7 7 -16 12 -21 12 -14 0 1 -61 19 -81 9 -10 24 -32 33 -50 19 -34 41
-50 41 -28 0 7 -7 20 -16 30 -9 10 -14 25 -10 34 8 21 25 11 111 -67 39 -35
96 -80 127 -102 32 -21 78 -56 102 -77 29 -26 54 -39 73 -39 31 0 91 -32 99
-54 3 -8 71 -41 151 -73 80 -31 148 -64 151 -72 3 -7 0 -22 -6 -32 -19 -29
-14 -32 16 -11 15 11 47 25 72 32 25 6 53 19 62 27 12 11 22 13 30 6 7 -6 27
-10 43 -10 52 0 148 -24 138 -34 -6 -6 -39 -13 -74 -17 -47 -5 -64 -11 -64
-22 0 -12 18 -15 105 -14 96 1 113 5 199 38 128 50 184 82 219 126 26 31 35
36 61 32 25 -3 32 0 42 22 18 38 38 32 98 -28 75 -76 157 -131 191 -128 19 2
32 -5 43 -22 15 -23 79 -46 127 -46 12 0 42 -16 67 -35 25 -19 54 -35 65 -35
29 0 66 44 73 86 3 22 12 77 20 124 14 77 13 206 0 275 -3 12 -20 29 -40 38
-33 16 -35 20 -33 61 0 24 -4 57 -10 73 -6 15 -25 115 -42 220 l-30 193 43 53
c24 30 59 80 77 113 18 32 50 73 70 91 20 18 54 64 74 103 21 39 57 93 81 120
31 35 46 63 54 101 9 40 22 64 56 100 24 26 64 78 89 116 83 130 298 508 372
655 41 82 80 151 88 154 7 3 46 -13 87 -35 57 -32 85 -41 122 -41 44 0 55 -5
120 -58 40 -32 91 -71 115 -88 26 -18 52 -48 68 -79 14 -27 35 -67 46 -87 10
-20 26 -72 35 -115 9 -43 23 -83 31 -89 8 -6 13 -18 10 -25 -3 -8 0 -23 8 -34
8 -10 14 -28 14 -40 0 -12 4 -25 9 -30 14 -14 43 -280 36 -319 -4 -17 -28
-101 -55 -186 -38 -119 -74 -202 -151 -355 -56 -110 -111 -213 -123 -230 -11
-16 -83 -153 -158 -303 l-138 -274 20 -28 c50 -70 145 -130 220 -139 36 -5 47
-11 58 -33 7 -16 20 -28 27 -28 8 0 26 -18 40 -40 30 -47 43 -49 141 -19 216
66 404 190 461 304 31 60 74 125 120 179 18 22 37 54 42 71 4 17 28 60 53 97
25 36 54 87 64 114 10 27 30 72 45 99 65 118 136 309 200 545 36 129 41 165
51 326 10 174 9 182 -11 221 -14 29 -22 70 -27 140 -6 81 -11 103 -31 129 -15
21 -23 44 -23 72 0 74 -89 267 -174 377 -59 77 -198 235 -207 235 -4 0 -21 12
-36 26 -111 105 -574 366 -725 408 -93 27 -97 39 -59 192 17 69 29 130 25 135
-3 6 -16 9 -27 8 -39 -3 -44 1 -62 42 -19 42 -40 59 -73 59 -11 0 -25 7 -32
15 -7 8 -23 15 -35 15 -12 0 -28 -7 -35 -15 -16 -20 -39 -19 -47 1 -3 8 -16
20 -30 25 -15 5 -26 20 -29 39 -4 16 -10 30 -14 30 -23 0 -211 -237 -243 -307
-5 -13 -29 -31 -51 -42 -56 -26 -223 -24 -278 4 l-38 18 -35 -25 c-32 -22 -40
-24 -75 -15 -36 10 -42 9 -65 -13 -24 -23 -54 -31 -180 -47 -27 -3 -60 -13
-72 -21 -21 -13 -26 -12 -49 3 -23 15 -25 22 -20 53 10 58 26 200 31 278 2 40
9 92 14 115 6 24 7 77 4 117 -7 84 8 112 61 112 17 0 54 9 82 19 68 26 210 49
304 50 47 0 102 8 145 21 39 12 90 25 115 29 25 4 52 11 59 16 8 4 37 7 64 6
27 -1 72 3 101 10 46 10 56 9 78 -5 24 -16 29 -15 102 14 103 41 236 108 263
132 12 11 25 35 29 52 3 17 14 40 24 51 44 51 148 223 148 245 -1 14 3 40 7
58 7 31 6 34 -16 32 -42 -4 -49 -1 -49 22 0 30 -44 83 -93 112 -23 14 -59 45
-80 71 -44 52 -74 70 -138 79 -36 5 -54 15 -78 41 -17 19 -36 35 -42 35 -5 0
-36 -13 -69 -30 -52 -26 -70 -30 -145 -30 -62 0 -93 -4 -110 -16 -17 -11 -33
-14 -52 -9 -37 11 -71 7 -111 -11 -21 -10 -47 -13 -70 -10 -31 5 -47 0 -96
-30 -57 -34 -61 -35 -102 -24 -24 7 -59 9 -83 5 -23 -4 -41 -3 -41 2 0 18 123
505 160 632 40 142 60 235 60 283 0 17 -16 53 -39 87 -38 55 -42 58 -91 64
-64 8 -70 12 -70 48 0 33 -5 35 -48 13 -42 -20 -86 -15 -90 11 -11 73 -19 78
-64 44z m242 -3596 c0 -10 -10 -34 -23 -54 -12 -20 -31 -50 -42 -69 -165 -271
-242 -383 -260 -377 -5 2 -13 48 -17 103 -3 54 -9 136 -13 181 -6 60 -4 87 5
98 24 29 126 77 185 86 32 6 77 19 100 29 51 24 65 24 65 3z m-1082 -563 c1
-25 11 -104 22 -177 11 -73 20 -170 20 -215 0 -54 9 -119 25 -184 21 -89 31
-143 52 -295 4 -32 -3 -46 -86 -156 -87 -117 -152 -181 -258 -255 -47 -32 -50
-33 -146 -31 -143 4 -168 13 -249 92 l-69 68 0 144 c-1 79 -1 171 -1 204 0 38
10 92 27 145 25 78 33 91 101 161 68 69 74 79 74 117 0 37 3 44 28 53 15 5 70
52 122 103 52 51 131 122 175 158 44 36 91 78 105 92 35 38 54 30 58 -24z"/>
<path d="M12918 21807 c-80 -59 -152 -128 -303 -289 -38 -41 -169 -162 -290
-270 -121 -107 -294 -269 -385 -359 -183 -183 -318 -298 -324 -277 -12 44 -81
229 -96 258 -10 20 -37 60 -60 90 -23 30 -59 93 -81 138 -42 91 -108 189 -159
237 -17 17 -43 50 -55 75 -23 43 -132 150 -153 150 -6 0 -21 14 -34 30 -72 94
-67 90 -119 90 -27 0 -69 5 -94 12 -44 12 -46 11 -70 -14 -14 -15 -40 -39 -60
-54 l-35 -26 0 -134 c0 -73 5 -145 10 -159 6 -15 30 -51 55 -81 24 -31 61 -86
81 -124 19 -37 55 -86 79 -109 24 -22 46 -54 50 -70 3 -16 13 -32 21 -35 10
-4 12 -10 5 -23 -14 -27 -43 -116 -42 -134 0 -9 7 -34 17 -55 16 -35 18 -37
22 -15 2 13 -1 28 -7 34 -14 14 -14 54 -1 62 6 3 14 -5 20 -19 15 -41 83 -121
115 -136 19 -10 30 -23 30 -36 1 -11 16 -39 36 -62 37 -43 112 -169 131 -220
12 -31 12 -31 -123 -164 -135 -133 -339 -320 -435 -397 -27 -23 -66 -66 -85
-95 -19 -29 -49 -64 -68 -77 -19 -13 -66 -61 -105 -105 -39 -45 -129 -145
-199 -222 -238 -259 -326 -383 -313 -436 6 -26 10 -28 43 -23 31 5 39 2 68
-28 23 -25 41 -35 63 -35 23 0 36 -7 49 -27 48 -74 228 -214 275 -213 7 0 46
25 86 55 57 42 97 62 184 91 94 31 119 44 167 87 59 53 70 67 52 67 -18 0 -12
39 8 49 14 8 25 6 44 -9 15 -12 40 -20 62 -20 l38 0 -7 40 c-7 47 -2 49 30 15
26 -28 69 -33 82 -9 8 14 10 14 21 0 8 -9 26 -16 40 -16 35 0 130 28 156 46
11 8 29 14 40 14 11 0 40 12 65 26 27 16 71 30 110 35 103 13 190 35 255 64
52 24 75 28 165 30 87 2 117 7 175 30 83 32 193 65 217 65 37 0 15 -38 -58
-100 -104 -89 -339 -332 -418 -434 -81 -104 -156 -229 -197 -331 -40 -102 -80
-259 -78 -310 1 -22 -3 -60 -8 -85 -6 -25 -10 -124 -8 -225 3 -203 16 -269 82
-398 58 -117 150 -247 174 -247 18 0 20 4 14 30 -5 22 -3 30 7 30 16 0 60 -44
77 -77 7 -15 21 -23 37 -23 45 0 85 -29 106 -77 14 -33 23 -42 31 -34 18 18
27 13 27 -14 0 -17 5 -25 18 -25 19 0 42 -18 42 -33 0 -5 -11 -7 -25 -5 -14 3
-25 1 -25 -3 0 -5 12 -9 27 -9 16 0 39 -11 53 -25 51 -50 96 -82 124 -89 16
-4 48 -26 70 -48 40 -40 111 -78 145 -78 10 0 26 -9 37 -21 23 -25 73 -53 82
-45 3 4 -7 19 -21 34 -34 35 -36 56 -4 47 38 -11 71 -40 89 -78 13 -26 22 -34
36 -31 10 3 26 -4 36 -15 28 -30 41 -26 17 5 -42 53 -21 59 33 9 44 -40 93
-53 137 -35 25 11 30 18 26 37 -2 13 0 26 4 29 5 3 9 14 9 26 0 15 5 19 19 15
16 -4 20 3 25 36 4 23 16 61 27 86 19 43 19 45 0 95 -10 28 -22 69 -26 91 -4
27 -18 49 -41 70 -19 16 -39 48 -46 70 -11 32 -24 46 -79 80 -123 75 -338 237
-404 303 -118 118 -125 131 -136 234 -6 51 -12 154 -13 228 -3 113 0 145 16
195 33 101 79 174 169 270 48 51 94 106 103 121 19 36 89 92 181 146 96 57
193 131 301 230 50 47 113 100 140 118 27 18 79 55 115 82 37 26 71 48 76 48
6 0 23 12 39 28 16 15 57 45 91 67 34 22 66 49 71 60 10 22 74 68 187 134 107
62 135 90 150 146 11 47 14 50 56 61 24 6 43 16 42 22 -4 18 34 108 73 174 44
76 44 107 -1 157 -19 21 -35 46 -35 55 0 45 -37 81 -90 90 -54 9 -81 32 -74
63 6 22 4 24 -14 19 -32 -11 -138 47 -146 79 -7 29 -25 31 -66 10 -21 -11 -45
-13 -84 -9 -46 6 -61 3 -91 -15 -20 -11 -46 -21 -58 -21 -13 0 -32 -7 -45 -15
-14 -11 -40 -15 -74 -14 -42 2 -70 -5 -138 -35 -47 -20 -107 -39 -134 -42 -27
-3 -70 -15 -95 -28 -25 -13 -52 -21 -59 -19 -7 3 -25 0 -40 -6 -15 -6 -66 -13
-114 -15 -49 -3 -95 -9 -104 -14 -9 -5 -38 -5 -67 0 -29 4 -63 5 -77 2 -14 -4
-36 -8 -50 -9 -79 -8 -517 -111 -555 -131 -16 -8 -61 -19 -100 -24 -38 -5 -87
-16 -107 -24 -21 -9 -53 -16 -73 -16 -19 0 -35 -4 -35 -8 0 -5 -11 -15 -25
-22 -21 -11 -29 -11 -50 0 -19 10 -31 11 -50 2 -13 -6 -27 -7 -30 -2 -7 11 41
44 88 59 49 16 94 62 108 111 12 40 34 61 79 75 30 10 235 188 292 256 24 27
59 60 78 72 19 12 92 75 161 142 69 66 149 138 177 160 29 22 61 59 72 82 16
32 37 51 85 79 55 33 65 42 75 80 15 53 40 77 110 103 43 16 60 29 76 58 12
21 72 100 132 175 61 75 134 170 163 210 51 72 119 204 119 230 0 26 -135 147
-242 217 l-108 70 -82 -62z m-2208 -207 c0 -5 -6 -10 -14 -10 -8 0 -18 5 -21
10 -3 6 3 10 14 10 12 0 21 -4 21 -10z m1517 -2435 c-7 -16 -37 -21 -37 -5 0
10 32 31 39 25 2 -2 1 -11 -2 -20z m-337 -80 c0 -18 -70 -39 -84 -25 -12 12 0
26 29 33 38 9 55 7 55 -8z m-350 -109 c-13 -13 -35 7 -25 24 5 8 11 8 21 -1
10 -8 12 -15 4 -23z m-54 -3 c-10 -10 -19 5 -10 18 6 11 8 11 12 0 2 -7 1 -15
-2 -18z m-371 -92 c6 -11 -29 -33 -39 -24 -7 7 12 33 25 33 4 0 10 -4 14 -9z
m719 -1727 c11 -28 6 -39 -9 -20 -8 11 -15 23 -15 28 0 14 18 9 24 -8z m670
-529 c18 -14 15 -35 -6 -35 -14 0 -48 30 -48 42 0 13 33 9 54 -7z m56 -40 c0
-8 -7 -15 -15 -15 -16 0 -20 12 -8 23 11 12 23 8 23 -8z"/>
<path d="M20850 21858 c-13 -5 -59 -44 -101 -87 -60 -62 -77 -87 -82 -117 -4
-22 -14 -52 -22 -68 -10 -18 -13 -41 -9 -66 7 -43 -11 -64 -31 -37 -16 22 -22
21 -36 -5 -16 -29 -24 -334 -10 -342 6 -4 8 -19 5 -34 -6 -30 21 -138 37 -148
6 -3 8 -22 4 -43 -5 -30 -2 -41 14 -56 24 -21 26 -13 10 51 -6 25 -9 48 -5 51
3 4 27 -13 52 -38 57 -55 88 -118 80 -164 -5 -26 1 -46 35 -104 22 -39 45 -71
51 -71 6 0 58 -46 115 -102 l104 -103 97 0 c89 0 97 2 97 19 0 24 21 32 40 16
13 -10 15 -8 15 14 0 14 12 54 26 90 l27 63 -37 109 c-30 92 -36 123 -36 195
0 56 -6 100 -16 124 -13 32 -14 45 -4 82 12 40 11 45 -13 76 -24 32 -25 41
-30 193 -5 136 -9 169 -30 227 -29 80 -56 112 -114 139 -23 10 -45 28 -48 39
-5 15 -13 19 -28 15 -12 -3 -27 0 -34 6 -10 8 -19 6 -36 -11 -42 -39 -51 -30
-48 45 3 48 -4 55 -39 42z m-260 -588 c0 -5 -4 -10 -10 -10 -5 0 -10 5 -10 10
0 6 5 10 10 10 6 0 10 -4 10 -10z m66 -205 c17 -50 4 -64 -30 -32 -28 26 -33
46 -14 65 18 18 29 10 44 -33z"/>
<path d="M19762 21713 c-45 -22 -96 -84 -111 -135 -7 -23 -15 -88 -18 -143 -6
-127 -9 -137 -33 -108 -18 22 -30 21 -30 -3 0 -7 13 -28 28 -46 23 -27 34 -60
61 -183 37 -173 77 -266 177 -418 124 -186 231 -277 326 -277 38 0 50 5 67 26
12 15 22 41 22 58 1 17 3 23 6 14 7 -29 17 -21 45 40 15 31 32 64 39 72 9 13
0 39 -44 130 -64 131 -91 208 -113 318 -14 73 -28 302 -25 403 2 46 2 47 -80
115 -128 108 -151 124 -176 124 -22 0 -23 -3 -17 -41 6 -33 4 -41 -7 -37 -8 2
-15 21 -17 41 -2 24 -11 42 -25 52 -27 19 -34 19 -75 -2z"/>
<path d="M22504 21672 c-78 -100 -106 -194 -102 -339 3 -92 1 -104 -19 -132
-30 -39 -29 -62 2 -91 30 -29 31 -43 4 -61 -18 -13 -20 -20 -14 -75 7 -57 9
-61 31 -56 17 3 24 0 24 -12 0 -10 -8 -16 -21 -16 -19 0 -20 -4 -15 -32 3 -18
8 -107 10 -199 4 -165 29 -394 46 -436 8 -19 5 -26 -13 -37 -28 -19 -340 -143
-527 -211 -155 -56 -238 -95 -335 -156 -33 -20 -82 -43 -110 -50 -64 -15 -80
-24 -137 -71 -62 -52 -111 -121 -133 -186 -16 -51 -16 -56 0 -93 14 -31 23
-39 44 -39 15 0 64 -25 116 -60 50 -33 101 -60 113 -60 16 0 26 -7 29 -20 4
-14 31 -32 79 -55 41 -18 74 -38 74 -44 0 -5 -7 -16 -15 -25 -21 -21 -18 -29
6 -15 17 9 23 8 30 -2 11 -19 76 0 208 61 122 56 190 80 330 115 55 14 124 36
155 50 31 14 73 28 95 31 l38 6 21 -88 c12 -49 28 -136 37 -194 8 -57 24 -121
35 -142 11 -21 20 -56 20 -77 0 -21 6 -59 14 -84 8 -26 12 -56 9 -67 -3 -11 2
-31 11 -45 9 -13 16 -33 16 -44 0 -10 23 -84 51 -163 63 -178 94 -280 103
-338 20 -123 106 -389 140 -430 7 -8 21 -35 30 -59 9 -24 28 -64 41 -90 14
-25 25 -56 25 -69 0 -28 22 -76 55 -121 14 -19 25 -44 25 -57 0 -58 68 -202
140 -296 11 -14 20 -35 20 -46 0 -27 17 -37 36 -21 22 18 30 2 9 -21 -17 -19
-18 -22 -2 -55 11 -23 24 -35 37 -35 22 0 27 -15 8 -26 -8 -5 -7 -10 4 -18 8
-6 18 -27 21 -46 18 -96 28 -132 42 -161 14 -27 21 -30 45 -26 20 4 30 2 34
-9 4 -12 9 -12 25 -2 17 10 25 7 59 -24 54 -49 82 -44 72 13 -4 21 -4 39 0 39
5 0 21 -21 37 -46 l28 -46 52 6 c49 6 54 4 80 -24 30 -34 38 -36 59 -16 12 13
20 13 53 1 45 -16 61 -6 61 37 0 16 8 41 18 55 26 40 25 290 -2 388 -28 102
-96 266 -196 472 -48 100 -91 195 -95 213 -4 17 -23 52 -43 78 -26 34 -37 59
-40 95 -3 34 -12 56 -28 72 -13 13 -24 32 -24 42 0 26 -66 208 -84 235 -9 12
-16 34 -16 48 0 14 -7 48 -16 75 -8 28 -19 75 -25 106 -5 31 -24 89 -43 130
-19 41 -37 92 -41 114 -4 22 -17 74 -30 115 -25 83 -39 138 -56 220 -7 30 -21
65 -31 77 -14 14 -23 45 -28 95 -5 40 -18 111 -29 158 -26 111 -55 305 -48
323 8 20 113 47 185 47 50 0 63 -3 72 -19 17 -32 11 -85 -15 -136 -13 -27 -22
-52 -20 -55 3 -4 18 -13 35 -20 29 -12 33 -11 60 15 31 30 40 24 15 -8 -22
-30 -8 -50 30 -43 44 9 65 -1 65 -30 0 -27 12 -31 30 -9 27 32 80 12 80 -31 0
-25 34 -54 62 -54 10 0 24 -13 33 -30 9 -16 22 -30 30 -30 35 0 196 237 303
447 62 122 63 123 167 123 22 0 53 7 69 15 16 9 36 13 43 11 7 -3 25 0 39 6
19 9 30 9 43 1 21 -13 179 -6 199 10 9 7 18 4 32 -8 16 -15 30 -17 77 -12 32
3 76 2 98 -3 22 -4 121 -14 220 -20 224 -14 233 -16 241 -45 6 -25 -16 -58
-208 -315 -157 -210 -180 -234 -297 -313 -157 -105 -261 -211 -261 -265 0 -34
95 -110 206 -166 51 -25 71 -41 70 -53 -1 -16 9 -18 112 -16 103 2 112 1 112
-16 0 -23 -19 -31 -75 -31 -49 0 -66 -14 -37 -29 14 -8 44 -4 113 15 52 14
140 34 196 44 86 15 121 28 222 80 150 78 191 113 229 193 17 35 60 98 96 141
37 43 89 112 117 153 68 100 195 362 210 431 6 30 19 78 29 106 10 29 21 75
25 104 7 50 4 57 -58 184 -35 73 -83 156 -105 185 -51 63 -323 263 -439 321
-53 27 -124 51 -205 70 -161 38 -160 38 -268 23 -55 -8 -82 -8 -103 0 -15 6
-41 9 -57 5 -17 -3 -42 0 -58 6 -15 6 -82 14 -149 17 -95 5 -127 10 -139 23
-16 16 -15 19 15 53 17 20 49 71 70 113 22 42 62 114 89 159 74 122 152 337
152 418 0 30 -68 105 -130 145 -27 17 -80 42 -117 55 -37 13 -73 31 -79 39
-18 25 -50 19 -90 -16 -40 -36 -342 -482 -472 -698 -44 -74 -95 -148 -112
-165 -18 -16 -49 -60 -71 -97 -45 -77 -52 -83 -69 -63 -16 19 -44 19 -60 0 -9
-10 -32 -15 -74 -15 -33 0 -90 -9 -124 -20 -35 -11 -77 -20 -94 -20 -17 0 -54
-13 -82 -29 -41 -23 -75 -32 -175 -45 -68 -9 -127 -13 -132 -10 -5 3 -9 23 -9
45 0 22 -5 50 -11 62 -7 11 -15 75 -20 141 -5 67 -20 168 -33 226 -45 186 -58
262 -67 395 -5 72 -13 161 -17 199 l-7 70 -67 35 c-59 32 -70 35 -96 25 -29
-11 -31 -10 -48 27 -19 44 -51 58 -90 40 -38 -17 -72 -13 -84 9 -14 27 -31 24
-56 -8z m2070 -1801 c12 -18 -29 -39 -73 -37 -50 2 -65 21 -29 35 30 12 95 14
102 2z m171 -21 c3 -5 2 -10 -4 -10 -5 0 -13 5 -16 10 -3 6 -2 10 4 10 5 0 13
-4 16 -10z m-1335 -140 c0 -5 -11 -17 -24 -25 -18 -12 -30 -13 -50 -6 -32 13
-33 19 -3 31 30 12 77 12 77 0z m-1389 -403 c-13 -13 -26 -3 -16 12 3 6 11 8
17 5 6 -4 6 -10 -1 -17z m3254 -686 c0 -18 -41 -30 -83 -23 -37 5 -41 19 -9
32 33 14 92 8 92 -9z m-1885 -1702 c0 -5 -4 -9 -10 -9 -5 0 -10 7 -10 16 0 8
5 12 10 9 6 -3 10 -10 10 -16z m86 -154 c8 -31 2 -38 -31 -40 -29 -1 -33 20
-8 47 22 24 31 23 39 -7z"/>
<path d="M17324 21494 c-28 -13 -78 -28 -111 -32 -47 -7 -70 -16 -104 -44 -42
-35 -268 -148 -294 -148 -7 0 -38 -14 -69 -30 -31 -17 -82 -37 -114 -44 -31
-8 -75 -23 -98 -34 -22 -12 -54 -24 -70 -27 -27 -6 -53 -16 -198 -79 -32 -14
-63 -26 -68 -26 -6 0 -42 -20 -82 -44 -39 -24 -156 -87 -260 -141 -227 -116
-279 -148 -330 -205 -48 -53 -99 -159 -94 -197 2 -21 12 -33 40 -46 20 -10 40
-27 43 -38 5 -15 16 -19 48 -19 42 0 89 -23 176 -84 52 -36 121 -45 185 -23
46 16 46 16 62 -9 18 -27 49 -32 58 -9 4 10 19 15 49 15 55 0 82 24 52 46 -15
11 -16 17 -7 26 9 9 22 2 57 -32 71 -69 71 -69 -18 -193 -108 -150 -184 -333
-208 -496 -9 -62 -20 -97 -41 -130 -35 -56 -58 -130 -58 -187 0 -23 -11 -66
-24 -96 -50 -113 -58 -245 -21 -348 23 -64 22 -116 -4 -151 -20 -27 -23 -48
-33 -272 -18 -419 -1 -599 66 -690 16 -22 21 -44 22 -95 1 -58 7 -80 46 -162
24 -52 52 -101 62 -109 10 -8 27 -33 38 -55 23 -47 63 -93 93 -107 18 -9 18
-8 4 3 -21 17 -14 78 10 78 23 0 121 -70 121 -86 0 -8 24 -25 54 -38 29 -13
72 -40 94 -60 25 -23 45 -34 56 -30 12 5 16 0 16 -19 0 -20 14 -35 63 -70 124
-89 207 -116 252 -83 15 11 28 11 72 1 90 -21 113 -63 27 -50 -49 7 -57 -5
-22 -29 30 -22 55 -20 68 4 6 11 20 20 30 20 28 0 25 -12 -7 -32 -18 -11 -22
-18 -12 -18 26 0 109 31 109 42 0 12 64 6 68 -7 1 -5 -18 -12 -43 -15 -80 -9
-54 -25 55 -34 155 -13 240 -11 330 11 63 15 437 267 479 322 14 19 51 62 82
95 31 34 75 88 99 121 24 33 65 85 92 115 26 30 77 98 113 150 201 295 268
398 320 491 32 57 77 136 100 174 24 39 46 81 50 95 4 14 24 57 45 95 21 39
48 99 61 134 22 63 23 64 38 42 9 -13 32 -42 51 -65 19 -22 40 -50 46 -61 8
-13 21 -19 38 -18 23 2 26 -2 24 -24 -2 -14 3 -28 10 -30 8 -3 12 7 12 30 0
25 -6 39 -22 50 -34 23 -11 34 25 13 74 -43 359 -186 372 -186 8 0 34 -14 59
-30 25 -17 78 -43 117 -57 70 -26 71 -27 50 -44 -27 -22 -27 -27 5 -39 18 -7
33 -6 53 4 19 11 45 13 85 9 46 -5 60 -2 76 12 11 10 20 23 20 28 0 6 15 25
34 42 19 17 38 45 41 61 3 16 15 58 26 93 l20 64 -24 21 c-14 12 -43 46 -64
76 -22 30 -67 84 -99 120 -114 126 -174 219 -174 271 0 13 -7 33 -15 43 -9 11
-15 41 -15 69 0 40 -5 54 -25 73 -17 16 -25 34 -25 57 0 19 -9 46 -20 60 -11
14 -20 35 -20 46 0 33 -25 83 -54 110 -21 19 -26 34 -26 69 0 26 -14 82 -34
136 l-34 91 -8 317 c-9 299 -10 318 -30 345 -11 15 -30 33 -41 38 -10 6 -37
29 -60 53 -34 36 -46 42 -81 42 -29 0 -56 10 -93 32 -40 25 -64 33 -101 34
-42 0 -53 5 -73 30 l-23 29 -27 -25 c-44 -40 -237 -290 -266 -345 -38 -70 -57
-150 -75 -322 -19 -191 -27 -220 -141 -518 -132 -345 -212 -531 -313 -730
-121 -237 -174 -323 -317 -513 -69 -91 -156 -212 -194 -267 -38 -56 -95 -126
-127 -156 -82 -76 -159 -139 -170 -139 -5 0 -29 -15 -53 -34 -127 -97 -246
-117 -394 -66 -105 36 -143 65 -171 128 -14 31 -35 67 -47 80 -15 16 -24 42
-28 85 -4 34 -16 108 -28 165 -17 84 -21 138 -21 295 0 106 5 242 10 302 11
117 36 380 44 455 9 90 44 257 75 355 17 55 35 118 41 141 5 22 41 89 79 148
39 59 77 129 86 155 9 27 25 57 37 67 11 11 70 93 130 184 143 214 159 233
436 507 224 221 234 233 227 262 -5 25 -2 34 24 58 25 23 39 54 72 162 23 75
38 143 35 155 -4 11 -23 33 -44 47 -23 16 -47 45 -60 73 -20 41 -26 46 -55 46
-56 0 -107 19 -119 45 -12 26 -54 45 -99 45 -17 0 -42 12 -62 30 -19 17 -39
30 -43 29 -5 0 -32 -12 -60 -25z m-1392 -3770 c-13 -23 -25 -1 -16 28 6 19 7
19 16 5 5 -10 5 -23 0 -33z m38 0 c0 -8 -5 -12 -10 -9 -6 4 -8 11 -5 16 9 14
15 11 15 -7z m118 -422 c2 -7 -3 -12 -12 -12 -9 0 -16 7 -16 16 0 17 22 14 28
-4z m513 -312 c14 -11 18 -19 11 -20 -19 0 -52 19 -52 30 0 16 16 12 41 -10z
m74 -70 c3 -5 -1 -10 -9 -10 -8 0 -18 5 -21 10 -3 6 1 10 9 10 8 0 18 -4 21
-10z m45 -25 c7 -8 8 -15 2 -15 -5 0 -15 7 -22 15 -7 8 -8 15 -2 15 5 0 15 -7
22 -15z m558 -71 c22 -6 13 -19 -22 -30 -46 -14 -105 14 -80 38 5 6 76 0 102
-8z"/>
<path d="M10920 20590 c6 -11 15 -18 21 -14 6 4 6 11 -2 20 -17 21 -31 17 -19
-6z"/>
<path d="M11020 20566 c0 -9 5 -16 10 -16 6 0 10 4 10 9 0 6 -4 13 -10 16 -5
3 -10 -1 -10 -9z"/>
<path d="M4278 20478 c12 -12 24 -19 28 -15 10 10 -16 37 -34 37 -13 0 -12 -4
6 -22z"/>
<path d="M19140 18391 c0 -11 26 -22 34 -14 12 12 5 23 -14 23 -11 0 -20 -4
-20 -9z"/>
<path d="M19481 18271 c36 -28 70 -43 77 -36 11 11 -51 55 -77 55 l-24 0 24
-19z"/>
<path d="M11908 16938 c23 -24 36 -21 26 6 -3 9 -16 16 -27 16 l-21 0 22 -22z"/>
<path d="M4390 16581 c0 -18 116 -88 128 -77 8 8 -38 55 -70 72 -31 16 -58 18
-58 5z"/>
<path d="M4720 16380 c0 -5 5 -10 10 -10 6 0 10 5 10 10 0 6 -4 10 -10 10 -5
0 -10 -4 -10 -10z"/>
<path d="M6124 16271 c11 -11 23 -21 28 -21 14 0 -1 19 -25 31 -22 12 -22 12
-3 -10z"/>
<path d="M14147 14888 c-125 -124 -312 -407 -323 -492 -6 -42 -9 -46 -34 -46
-37 0 -45 -12 -18 -26 19 -10 22 -21 25 -89 3 -93 -12 -97 -44 -9 l-22 59 0
-170 c-1 -144 2 -180 20 -235 13 -44 18 -77 14 -103 -5 -27 -2 -45 10 -64 15
-22 16 -41 10 -127 -6 -88 -3 -115 16 -192 13 -52 23 -128 25 -184 2 -52 5
-120 8 -150 3 -30 7 -82 10 -115 13 -152 17 -175 38 -186 18 -10 18 -12 4 -28
-31 -34 -18 -66 20 -49 18 9 28 8 36 0 9 -9 4 -20 -21 -46 -32 -33 -33 -36
-26 -92 4 -33 11 -63 15 -69 4 -5 11 -48 15 -94 4 -56 13 -93 25 -110 11 -16
20 -52 24 -95 3 -37 10 -74 15 -80 7 -8 7 -16 0 -23 -10 -10 4 -89 22 -125 5
-10 9 -27 9 -39 0 -12 14 -39 31 -60 19 -24 27 -43 22 -51 -11 -19 -5 -174 18
-422 26 -287 40 -641 28 -696 -5 -24 -9 -66 -8 -94 1 -28 1 -125 1 -216 0 -91
0 -199 1 -240 0 -41 -4 -95 -8 -120 -5 -25 -8 -67 -7 -95 1 -27 4 -192 7 -365
2 -173 4 -325 5 -337 0 -12 8 -29 18 -39 9 -9 26 -44 38 -78 16 -46 25 -61 40
-61 12 0 20 8 22 23 3 16 -2 22 -16 22 -19 0 -32 18 -32 45 0 17 28 45 45 45
7 0 55 -42 107 -92 51 -51 106 -102 121 -113 26 -18 28 -23 18 -48 -6 -16 -11
-52 -11 -80 0 -49 2 -53 30 -64 20 -7 30 -18 30 -31 0 -12 6 -27 13 -34 7 -7
22 -26 32 -41 10 -16 35 -37 55 -47 20 -10 56 -35 79 -54 33 -28 52 -36 82
-36 37 0 39 -2 33 -24 -3 -14 -3 -34 1 -45 8 -27 46 -27 191 -1 105 19 110 21
145 60 32 35 40 39 61 31 13 -5 30 -16 37 -25 22 -26 86 -20 156 15 35 17 72
38 82 48 23 21 59 37 162 72 106 36 167 72 186 109 9 17 27 33 43 37 15 3 47
18 72 32 25 15 70 37 100 51 30 13 65 36 77 51 12 14 36 32 53 39 16 7 30 16
30 21 0 4 46 31 101 59 137 69 211 121 254 178 20 26 73 85 119 132 134 138
331 487 425 752 16 48 39 104 50 125 17 33 18 45 8 81 -10 37 -8 48 16 107 34
83 34 98 -2 136 -29 30 -29 30 -14 75 11 33 13 65 9 122 -9 99 -9 120 -1 222
4 47 3 101 -2 120 -7 25 -6 50 5 88 15 52 15 53 -10 80 -19 20 -24 32 -18 47
16 38 11 83 -14 112 -13 15 -27 39 -31 53 -15 54 -130 273 -154 296 -14 13
-49 39 -77 57 -28 17 -88 62 -133 98 -115 93 -224 154 -276 153 -88 -1 -217
-44 -390 -131 -273 -138 -472 -279 -825 -587 -80 -69 -151 -125 -159 -124 -12
3 -41 70 -72 163 -5 17 -10 71 -10 122 1 73 -3 96 -18 114 -16 20 -17 27 -4
81 13 57 13 62 -8 96 -19 34 -59 167 -59 199 0 8 -9 27 -21 42 -13 18 -22 47
-24 78 -2 34 -11 62 -29 90 -25 37 -27 47 -21 97 6 47 4 61 -14 91 -11 20 -21
46 -21 58 0 12 -7 35 -15 51 -8 15 -15 50 -15 76 0 31 -5 52 -16 60 -11 10
-14 23 -9 50 4 24 1 51 -9 75 -9 21 -16 46 -16 57 0 10 -9 45 -20 78 -16 47
-18 64 -9 78 9 14 6 28 -15 69 -26 49 -27 55 -23 189 3 133 2 140 -21 174 -21
31 -23 43 -18 97 4 50 1 72 -16 110 -16 36 -21 67 -21 127 0 57 -5 92 -19 122
-10 24 -23 80 -29 126 -5 46 -18 115 -28 153 -14 52 -21 125 -26 290 -9 289
-27 395 -68 395 -47 0 -103 24 -134 56 -17 19 -36 34 -42 34 -6 0 -39 -28 -74
-62z m-317 -974 c0 -8 -4 -14 -10 -14 -5 0 -10 9 -10 21 0 11 5 17 10 14 6 -3
10 -13 10 -21z m26 -198 c3 -14 3 -29 0 -35 -11 -17 -36 0 -36 23 0 42 26 50
36 12z m38 -337 c3 -17 6 -49 6 -70 0 -32 -4 -39 -19 -39 -25 0 -37 18 -22 33
6 6 11 33 11 59 0 54 14 64 24 17z m23 -241 c-3 -7 -5 -2 -5 12 0 14 2 19 5
13 2 -7 2 -19 0 -25z m13 -203 c7 -9 10 -18 7 -22 -8 -7 -37 15 -37 28 0 14
16 11 30 -6z m32 -152 c3 -47 1 -63 -9 -63 -18 0 -27 43 -18 87 14 77 22 71
27 -24z m179 -868 c14 -33 17 -50 10 -63 -6 -10 -7 -28 -4 -40 3 -12 2 -29 -1
-38 -11 -28 -36 4 -36 46 0 24 -7 43 -20 55 -22 20 -26 55 -8 73 22 22 39 12
59 -33z m2000 -1087 c0 -7 2 -80 3 -163 2 -126 -1 -164 -20 -240 -45 -185
-110 -319 -180 -371 -22 -16 -67 -57 -101 -91 -34 -34 -109 -93 -166 -132
-152 -102 -395 -251 -408 -251 -20 0 -4 137 26 215 15 39 33 99 41 134 23 99
150 342 227 432 117 135 377 372 478 434 76 47 98 54 100 33z m-1166 -2307
c-15 -14 -65 -25 -65 -14 0 17 12 23 44 23 18 0 26 -4 21 -9z"/>
<path d="M18309 13410 c-158 -47 -327 -226 -290 -307 29 -63 90 -139 195 -245
152 -152 173 -188 110 -188 -22 0 -23 -3 -14 -20 16 -30 63 -50 119 -50 44 0
55 5 105 46 111 90 225 265 242 371 6 39 4 42 -23 57 -22 11 -33 27 -42 58
-10 35 -22 50 -56 71 -24 15 -69 58 -101 94 -96 109 -161 139 -245 113z"/>
<path d="M7870 12612 c-308 -135 -511 -283 -767 -560 -169 -182 -245 -303
-333 -529 -56 -143 -73 -223 -66 -306 10 -106 39 -157 96 -170 76 -17 125 -46
198 -117 42 -41 115 -104 161 -139 87 -68 111 -103 124 -185 8 -48 29 -72 72
-80 18 -4 64 -23 101 -42 45 -23 77 -34 94 -31 13 3 32 1 41 -4 9 -4 59 -18
112 -29 52 -11 137 -34 189 -51 103 -33 232 -59 292 -59 27 0 45 -7 61 -22 12
-13 38 -35 58 -50 88 -67 122 -240 77 -390 -49 -162 -193 -414 -291 -508 -65
-62 -169 -114 -294 -146 -104 -27 -260 -39 -282 -22 -13 10 -137 21 -211 19
-43 -1 -86 15 -131 50 -31 25 -78 24 -119 -1 -29 -18 -40 -19 -95 -10 -34 5
-99 10 -144 10 -77 0 -84 -2 -116 -30 -19 -16 -55 -38 -80 -49 -47 -20 -57
-34 -36 -46 7 -5 3 -15 -10 -29 -13 -14 -22 -42 -26 -82 l-7 -61 87 -151 c48
-84 96 -157 107 -163 41 -22 64 16 36 61 -17 27 -2 37 23 14 16 -15 20 -27 16
-56 -6 -46 7 -59 109 -107 23 -11 45 -24 49 -30 4 -7 20 -9 40 -5 28 5 43 -1
93 -35 99 -67 212 -160 212 -175 0 -30 -59 -35 -85 -6 -10 11 -24 20 -32 20
-26 0 -12 -37 30 -76 33 -32 50 -41 82 -43 22 -1 52 -10 67 -21 20 -15 47 -20
120 -23 51 -2 107 -10 123 -17 21 -8 55 -10 115 -5 47 4 108 8 137 9 42 1 58
6 86 31 18 17 36 37 39 45 5 12 8 13 19 2 12 -11 11 -15 -3 -26 -10 -7 -18
-18 -18 -25 0 -15 27 -14 32 1 3 8 24 11 62 9 56 -2 66 1 279 108 236 118 368
204 472 306 57 56 241 314 336 470 108 178 252 503 291 659 27 106 21 312 -11
430 -50 180 -105 286 -234 451 -116 149 -253 279 -462 441 -97 75 -322 187
-510 253 -49 18 -98 39 -107 48 -16 14 -23 14 -57 3 -33 -11 -46 -10 -91 5
-29 10 -100 26 -158 35 -57 10 -109 23 -114 28 -22 22 110 213 208 300 94 84
167 114 329 138 53 7 126 82 223 227 98 146 96 173 -19 294 -33 34 -59 66 -59
72 0 6 -14 18 -31 26 -17 9 -57 40 -88 69 -63 58 -89 69 -198 85 -39 6 -83 15
-98 21 -14 5 -27 10 -28 9 -1 0 -40 -17 -87 -37z m-542 -1990 c3 -9 -2 -13
-14 -10 -9 1 -19 9 -22 16 -3 9 2 13 14 10 9 -1 19 -9 22 -16z"/>
<path d="M25045 12317 c-60 -23 -115 -45 -121 -49 -6 -4 -38 -11 -71 -17 -78
-12 -112 -27 -252 -110 -341 -202 -631 -484 -790 -768 -100 -178 -187 -407
-217 -568 -8 -44 -23 -107 -34 -140 -19 -62 -31 -240 -17 -262 8 -12 0 -441
-9 -454 -3 -5 2 -31 10 -58 8 -28 22 -101 31 -163 9 -62 23 -127 31 -145 7
-17 14 -42 14 -56 0 -13 6 -30 14 -36 8 -7 18 -25 21 -41 3 -16 13 -34 21 -41
8 -6 26 -38 40 -70 22 -48 31 -59 50 -59 27 0 29 -7 14 -45 -8 -21 -5 -35 14
-73 33 -64 134 -192 152 -192 18 0 39 43 31 65 -4 8 -15 18 -24 22 -25 9 -34
25 -21 40 14 17 38 -1 38 -28 0 -10 5 -21 11 -24 7 -5 8 -29 4 -69 l-7 -62 50
-46 c60 -57 117 -86 179 -94 30 -4 58 -15 73 -30 14 -13 51 -32 82 -43 84 -29
93 -36 126 -95 29 -50 34 -54 78 -61 66 -9 176 -44 193 -60 21 -20 4 -35 -39
-35 -21 0 -42 -5 -45 -11 -5 -7 -13 -5 -26 7 -11 10 -25 14 -36 9 -17 -6 -16
-8 5 -25 34 -28 133 -62 162 -56 14 2 57 1 95 -4 68 -8 91 -6 247 32 23 5 56
27 86 56 27 26 76 66 108 89 32 24 111 86 174 139 159 132 145 125 255 129
l96 4 20 -34 c11 -19 37 -44 56 -56 35 -22 35 -23 29 -75 l-6 -54 35 -14 c19
-8 35 -22 35 -30 0 -16 37 -46 57 -46 22 0 15 22 -27 85 -36 53 -49 85 -35 85
24 0 56 -29 66 -59 17 -52 57 -92 86 -85 22 6 23 4 17 -38 -6 -40 -4 -47 21
-66 17 -14 42 -22 64 -22 20 0 47 -7 60 -16 33 -24 171 -13 277 20 146 46 457
222 452 255 -2 13 11 18 71 26 51 7 76 15 79 25 3 8 27 40 54 70 56 63 106
159 110 210 3 34 2 35 -31 35 -37 0 -43 9 -55 87 -6 34 -10 37 -57 48 -37 9
-53 19 -62 37 -18 41 -78 63 -209 79 -137 16 -177 25 -267 64 -37 15 -88 36
-116 47 -41 15 -50 23 -50 43 0 14 -6 34 -12 46 -7 11 -9 30 -6 42 4 15 -2 27
-17 40 l-21 17 20 48 c27 63 26 96 -4 153 -29 55 -31 91 -8 142 11 26 17 70
19 147 2 121 22 217 59 280 15 26 21 50 18 70 -3 18 12 90 36 175 23 80 52
186 66 235 14 50 35 117 46 150 38 108 50 159 56 246 7 110 2 130 -43 156 -24
13 -52 45 -79 89 -24 40 -50 70 -61 72 -58 11 -84 34 -100 88 -8 29 -19 56
-24 59 -5 3 -64 72 -132 153 -67 81 -133 156 -147 167 -78 64 -250 176 -280
181 -19 4 -54 22 -77 39 -48 37 -214 95 -270 95 -19 0 -47 6 -62 13 -18 9 -76
14 -182 15 l-155 1 -110 -42z m576 -713 c12 -14 11 -16 -5 -13 -11 2 -21 10
-24 17 -5 17 13 15 29 -4z m62 -86 c49 -11 91 -26 94 -33 2 -7 -7 -32 -22 -55
-35 -55 -39 -68 -90 -264 -57 -223 -196 -692 -241 -815 -54 -145 -233 -503
-309 -616 -75 -112 -188 -248 -249 -302 -40 -34 -109 -72 -133 -73 -6 0 -46
62 -88 138 -43 75 -84 147 -92 160 -29 48 -78 296 -72 367 1 17 2 56 1 88 0
31 0 67 0 80 5 457 5 448 33 542 42 142 118 316 166 381 90 122 203 210 391
305 254 128 390 149 611 97z m-1913 -2048 c0 -13 -37 -50 -50 -50 -16 0 -12
12 12 37 23 24 38 30 38 13z m314 -547 c46 -24 17 -37 -40 -17 -57 19 -58 19
-49 33 7 13 46 5 89 -16z m1716 -85 c0 -16 -17 -7 -53 26 -20 18 -37 42 -37
52 0 14 11 7 45 -26 25 -24 45 -48 45 -52z m463 -305 c8 -7 -31 -53 -45 -53
-4 0 -8 8 -8 18 0 31 35 54 53 35z"/>
<path d="M4170 12189 c-25 -12 -126 -47 -225 -80 -264 -87 -424 -181 -661
-390 -321 -283 -525 -638 -620 -1082 -25 -115 -27 -142 -31 -470 -6 -380 2
-464 54 -632 35 -113 119 -281 153 -306 24 -18 27 -27 23 -58 -3 -25 3 -48 19
-78 31 -55 115 -162 133 -170 9 -3 24 5 35 18 l20 24 -2 -30 c-2 -23 2 -30 17
-33 32 -5 85 -32 85 -42 0 -13 -17 -12 -57 2 -49 18 -51 3 -8 -42 49 -50 127
-90 176 -90 26 0 47 -8 68 -26 17 -14 58 -36 92 -49 72 -29 94 -46 120 -97 11
-22 28 -40 42 -42 176 -36 230 -57 206 -81 -22 -21 -89 -36 -111 -24 -36 19
-43 2 -8 -20 60 -37 109 -46 245 -46 210 1 218 5 525 258 167 139 231 177 298
177 46 0 54 13 20 31 -24 12 -38 28 -38 42 0 22 36 -7 125 -101 94 -99 97
-103 91 -138 -7 -33 -4 -39 46 -85 81 -75 106 -65 52 21 -39 62 -42 80 -14 80
14 0 27 -15 44 -49 14 -26 39 -60 56 -74 18 -15 30 -35 30 -49 0 -40 24 -61
86 -75 33 -7 79 -18 104 -24 25 -5 70 -7 100 -4 120 14 191 43 428 177 112 64
122 72 122 98 0 29 0 29 49 23 63 -7 98 2 106 27 4 11 24 37 45 56 46 42 123
190 118 225 -2 19 -10 25 -35 27 -25 2 -34 9 -37 25 -19 104 -18 102 -64 108
-33 4 -50 13 -69 37 -28 37 -83 55 -213 72 -109 14 -149 24 -235 59 -38 16
-91 36 -117 45 -49 18 -51 21 -64 109 -3 27 -13 51 -20 54 -18 7 -17 41 1 73
21 38 18 86 -11 150 l-26 58 21 57 c15 40 21 79 21 138 0 115 16 202 49 272
19 41 30 83 34 130 4 45 30 150 73 290 94 310 112 381 120 478 l7 85 -43 22
c-23 12 -49 35 -58 52 -42 75 -72 107 -112 119 -35 11 -44 20 -67 68 -55 116
-287 370 -433 473 -187 133 -415 221 -602 233 -224 15 -231 14 -278 -6z m477
-735 c-9 -9 -28 6 -21 18 4 6 10 6 17 -1 6 -6 8 -13 4 -17z m68 -68 c33 -10
64 -21 69 -26 5 -5 -4 -37 -22 -79 -17 -38 -45 -123 -63 -188 -57 -215 -219
-765 -251 -847 -53 -141 -236 -506 -305 -610 -102 -154 -295 -336 -356 -336
-8 0 -42 48 -76 108 -34 59 -75 130 -91 157 -33 56 -62 170 -65 256 -1 30 -7
65 -14 77 -8 15 -8 33 3 74 9 37 10 62 4 83 -5 16 -9 35 -8 40 1 6 3 109 5
230 3 238 11 294 66 433 77 195 159 316 266 397 95 70 371 208 473 235 91 24
269 22 365 -4z m-1875 -2006 c0 -11 -7 -20 -15 -20 -17 0 -18 2 -9 24 9 23 24
20 24 -4z m201 -357 c23 -47 23 -49 -5 -24 -14 14 -26 30 -26 38 0 22 16 15
31 -14z m2219 -537 c0 -21 -29 -41 -41 -29 -7 7 -5 16 6 27 20 20 35 21 35 2z"/>
<path d="M11688 12108 c-44 -28 -47 -29 -70 -14 -22 14 -30 14 -74 1 -27 -8
-84 -37 -127 -65 -45 -29 -90 -50 -105 -50 -64 0 -257 -115 -453 -271 -136
-108 -390 -358 -492 -484 -167 -207 -300 -441 -372 -658 -56 -169 -67 -238
-70 -462 -1 -115 -8 -225 -15 -260 -7 -33 -13 -109 -13 -170 -1 -110 -1 -110
55 -255 31 -80 65 -177 77 -216 21 -71 42 -94 86 -94 19 0 19 29 0 54 -22 29
-20 76 3 76 22 0 72 -50 72 -71 0 -9 8 -24 19 -33 11 -10 24 -44 31 -79 23
-123 66 -183 136 -194 73 -11 174 -104 174 -160 0 -23 95 -125 135 -146 17 -8
38 -24 49 -35 10 -12 32 -24 49 -28 18 -4 45 -17 62 -29 35 -26 260 -96 301
-94 16 1 46 -6 67 -15 25 -11 63 -17 105 -16 37 1 138 -1 225 -5 123 -4 178
-2 244 11 47 8 95 13 106 10 25 -6 178 31 337 82 108 34 387 168 551 263 182
106 371 279 516 474 85 113 272 418 317 515 46 100 138 324 152 370 8 25 14
64 14 88 0 24 7 56 15 73 13 24 15 49 9 127 -5 74 -2 112 10 158 20 77 20 104
1 104 -18 0 -18 -1 -4 39 9 26 8 41 -6 78 -17 43 -17 47 0 75 21 37 15 53 -31
75 -32 15 -39 25 -50 68 -7 28 -35 97 -62 155 -48 104 -51 107 -188 236 -154
144 -315 277 -384 316 -25 14 -54 35 -64 47 -11 12 -23 21 -27 21 -5 0 -54 22
-109 49 -54 27 -111 52 -126 55 -15 4 -46 21 -70 37 -33 24 -55 32 -105 36
-42 3 -83 14 -119 33 -30 15 -95 37 -145 49 -49 11 -95 27 -100 35 -7 9 -21
12 -38 9 -30 -6 -95 17 -140 49 -27 19 -33 20 -82 8 -70 -17 -119 -8 -166 30
-21 16 -44 30 -51 29 -7 0 -34 -14 -60 -31z m533 -954 c12 -14 10 -19 -14 -38
-22 -18 -25 -25 -15 -33 26 -21 95 -51 155 -68 34 -10 69 -26 78 -35 9 -10 55
-29 102 -41 70 -19 93 -30 133 -66 99 -89 108 -212 40 -523 -51 -235 -152
-450 -269 -573 -52 -56 -189 -152 -236 -166 -22 -7 -157 -53 -300 -101 -143
-49 -285 -94 -315 -100 l-55 -11 -26 32 -26 33 -54 -28 c-53 -26 -55 -27 -94
-10 -32 13 -59 15 -137 10 l-97 -6 -23 31 c-13 17 -39 39 -59 49 -43 22 -112
97 -105 113 27 65 28 84 8 129 -20 46 -20 46 0 74 17 26 19 41 14 128 -3 55
-9 103 -14 108 -6 6 -6 25 -1 46 5 20 13 89 18 153 22 277 142 517 360 721 89
84 181 136 286 163 73 19 115 18 230 -1 50 -8 106 -17 125 -19 19 -2 67 -9
105 -15 114 -19 110 -20 113 23 3 33 6 37 31 37 16 0 35 -7 42 -16z m112 -38
c6 -16 -19 -30 -28 -16 -7 11 2 30 15 30 4 0 10 -6 13 -14z m184 -92 c-3 -3
-12 -4 -19 -1 -8 3 -5 6 6 6 11 1 17 -2 13 -5z m-2159 -2054 c23 -10 42 -26
42 -35 0 -22 -24 -18 -58 10 -17 14 -39 25 -51 25 -12 0 -21 5 -21 10 0 16 41
11 88 -10z m278 -231 c14 -22 22 -44 19 -47 -9 -9 -65 54 -65 73 0 27 19 16
46 -26z"/>
<path d="M20264 11856 c-179 -83 -344 -241 -344 -329 0 -13 23 -75 50 -139 28
-64 50 -131 50 -150 0 -19 4 -38 10 -44 5 -5 19 -43 30 -84 19 -68 26 -115 33
-205 1 -16 6 -36 11 -44 5 -7 10 -59 11 -115 2 -100 20 -171 102 -406 23 -67
90 -185 134 -238 22 -26 55 -66 75 -89 19 -24 41 -43 48 -43 22 0 38 43 27 73
-6 15 -7 29 -1 32 11 7 30 -27 30 -54 0 -14 11 -25 37 -36 47 -20 122 -76 123
-92 0 -16 -22 -17 -38 -1 -9 9 -12 8 -12 -4 0 -17 103 -93 229 -171 63 -38 76
-61 41 -72 -11 -4 -110 -118 -219 -253 -192 -239 -292 -355 -530 -613 -62 -68
-150 -173 -196 -234 -115 -154 -505 -742 -505 -761 0 -13 7 -15 33 -11 29 6
35 2 67 -38 28 -37 40 -44 64 -42 27 2 31 -1 36 -34 9 -52 138 -195 190 -210
33 -10 43 -8 101 21 167 85 416 248 614 403 228 179 338 281 469 433 541 627
775 907 889 1064 161 222 503 772 767 1234 62 109 140 232 174 273 34 41 71
90 84 109 12 19 39 45 60 59 22 14 65 64 98 110 32 47 69 99 81 116 12 17 25
47 29 66 6 31 3 38 -25 60 -26 21 -31 31 -31 67 0 55 -26 90 -89 117 -38 16
-52 29 -70 65 -18 38 -31 50 -71 67 -44 19 -50 24 -50 51 0 57 -9 60 -91 36
-179 -53 -359 -145 -506 -259 -117 -91 -185 -164 -273 -296 -40 -60 -130 -191
-200 -290 -162 -230 -183 -263 -303 -480 -54 -99 -104 -186 -111 -193 -20 -21
-40 -5 -59 48 -10 29 -28 57 -43 67 -16 10 -51 68 -95 155 -68 136 -69 139
-54 168 20 38 11 76 -26 114 -22 21 -29 38 -29 67 0 25 -11 59 -30 93 -23 40
-29 60 -24 84 5 26 1 38 -25 68 -39 44 -47 63 -56 137 -5 38 -19 76 -42 114
-19 32 -51 89 -70 126 -29 55 -57 87 -137 158 -212 189 -320 232 -442 175z"/>
<path d="M18280 11595 c-36 -24 -83 -62 -105 -84 l-39 -41 0 -88 c0 -48 5
-103 11 -123 13 -44 1 -66 -65 -127 -40 -37 -42 -42 -42 -95 l0 -57 35 0 c32
0 35 -3 46 -42 14 -52 12 -148 -5 -197 -10 -31 -16 -36 -38 -33 -15 1 -30 -2
-33 -9 -4 -6 -8 -56 -9 -112 -2 -77 1 -112 14 -142 14 -34 15 -44 4 -70 -22
-50 -17 -210 10 -352 14 -71 27 -184 31 -253 4 -74 15 -157 27 -203 19 -72 23
-79 57 -95 28 -13 43 -32 68 -80 33 -67 75 -120 215 -273 48 -53 88 -99 88
-103 0 -3 -7 -6 -15 -6 -26 0 -28 -26 -5 -72 31 -61 50 -79 72 -72 12 3 27 -1
38 -11 15 -13 31 -16 63 -13 67 8 100 28 110 68 10 41 33 69 65 81 13 5 30 26
39 46 8 21 32 67 53 103 50 85 81 187 86 280 2 41 7 90 10 108 5 26 2 38 -14
55 -29 31 -54 144 -42 186 12 43 -2 116 -35 180 -19 38 -25 66 -25 113 0 42
-7 75 -21 105 -16 34 -20 56 -16 96 3 39 0 60 -16 90 -17 33 -18 44 -9 71 17
46 15 62 -9 78 -25 16 -46 120 -59 298 -11 153 -37 371 -50 419 -11 43 -104
195 -152 250 -70 79 -208 172 -255 171 -10 0 -47 -20 -83 -45z m-195 -554 c3
-5 1 -12 -5 -16 -5 -3 -10 1 -10 9 0 18 6 21 15 7z m43 -504 c7 -8 17 -29 22
-47 7 -26 6 -31 -7 -28 -25 5 -53 68 -53 119 0 61 14 72 20 16 3 -25 11 -52
18 -60z m32 -557 c0 -5 -5 -10 -11 -10 -5 0 -7 5 -4 10 3 6 8 10 11 10 2 0 4
-4 4 -10z m40 -76 c0 -8 -4 -14 -9 -14 -11 0 -22 26 -14 34 9 9 23 -3 23 -20z
m0 -208 c0 -17 -27 -29 -35 -16 -4 6 -3 15 0 20 9 15 35 12 35 -4z m22 -73
c17 -15 26 -73 11 -73 -18 0 -43 36 -43 62 0 32 6 35 32 11z m380 -650 c27
-26 38 -63 18 -63 -5 0 -15 7 -22 15 -7 9 -21 24 -32 35 -10 10 -15 23 -11 29
9 16 16 14 47 -16z"/>
<path d="M18066 11204 c-4 -9 -4 -19 -2 -22 10 -9 36 8 36 23 0 20 -26 19 -34
-1z"/>
<path d="M6810 10990 c0 -6 9 -14 20 -17 12 -3 27 -18 36 -34 19 -37 67 -42
62 -7 -5 34 -118 89 -118 58z"/>
<path d="M7192 10629 c3 -24 33 -48 44 -36 8 8 -23 57 -37 57 -6 0 -9 -10 -7
-21z"/>
<path d="M20513 9953 c-22 -8 -14 -22 22 -37 19 -8 35 -20 35 -25 0 -6 7 -11
15 -11 22 0 18 18 -7 31 -12 7 -29 20 -38 29 -8 10 -21 16 -27 13z"/>
<path d="M14495 8710 c-3 -5 -1 -10 4 -10 6 0 11 5 11 10 0 6 -2 10 -4 10 -3
0 -8 -4 -11 -10z"/>
<path d="M24380 8636 c0 -19 86 -113 95 -104 9 8 -72 118 -86 118 -5 0 -9 -6
-9 -14z"/>
<path d="M3430 8624 c0 -18 58 -102 80 -114 44 -24 37 -3 -20 60 -33 36 -59
60 -60 54z"/>
</g>
</svg>
