<?xml version="1.0" standalone="no"?>
<!DOCTYPE svg PUBLIC "-//W3C//DTD SVG 20010904//EN"
 "http://www.w3.org/TR/2001/REC-SVG-20010904/DTD/svg10.dtd">
<svg version="1.0" xmlns="http://www.w3.org/2000/svg"
 width="1000.000000pt" height="1000.000000pt" viewBox="0 0 1000.000000 1000.000000"
 preserveAspectRatio="xMidYMid meet">
<metadata>
Created by potrace 1.14, written by Peter Selinger 2001-2017
</metadata>
<g transform="translate(0.000000,1000.000000) scale(0.100000,-0.100000)"
fill="#000000" stroke="none">
<path d="M7616 7624 c-215 -34 -494 -108 -676 -181 -150 -60 -310 -140 -310
-156 0 -33 54 -96 126 -148 74 -52 79 -58 77 -90 -1 -19 -33 -131 -71 -249
-38 -118 -77 -251 -86 -295 -10 -44 -21 -88 -27 -97 -15 -29 -10 -91 10 -124
34 -56 130 -82 178 -49 12 8 31 31 43 50 12 19 32 38 45 41 19 5 34 38 106
236 46 127 89 232 94 233 365 110 500 143 740 184 129 22 217 27 363 22 90 -4
95 -3 115 21 20 24 79 59 120 72 25 8 22 27 -33 198 -44 134 -57 163 -93 204
-54 61 -153 108 -272 129 -107 18 -326 18 -449 -1z m358 -209 c38 -8 78 -23
89 -32 25 -23 47 -74 47 -112 0 -29 -1 -29 -72 -36 -146 -14 -368 -57 -615
-120 -139 -36 -257 -65 -263 -65 -5 0 -10 10 -10 23 0 12 -9 42 -21 66 -11 25
-16 48 -12 52 28 25 431 152 603 190 52 11 97 24 100 28 15 24 63 25 154 6z"/>
<path d="M2980 7613 c0 -5 -16 -15 -36 -22 -19 -7 -40 -22 -45 -34 -14 -31
-33 -62 -48 -81 -7 -9 -11 -16 -7 -16 4 0 0 -10 -8 -22 -15 -25 -49 -176 -45
-205 1 -10 -1 -26 -6 -36 -4 -10 -5 -69 -3 -131 4 -83 10 -124 26 -159 25 -56
65 -99 86 -91 13 5 14 1 6 -26 -5 -18 -14 -38 -20 -45 -8 -10 -6 -23 9 -52 22
-40 44 -58 128 -99 29 -14 55 -30 58 -35 9 -14 56 -11 74 5 18 16 86 25 97 13
4 -4 -2 -14 -14 -23 -20 -14 -22 -22 -18 -77 2 -34 9 -63 15 -65 26 -9 8 -30
-31 -36 -22 -4 -46 -10 -52 -13 -6 -4 -17 -8 -26 -9 -34 -3 -100 -25 -100 -34
0 -4 -21 -16 -46 -26 -90 -34 -115 -73 -74 -114 27 -27 77 -25 139 5 28 14 56
25 63 24 7 -2 29 4 49 13 57 25 120 10 106 -25 -3 -8 -32 -25 -64 -37 -71 -26
-83 -36 -83 -65 0 -29 46 -50 89 -40 31 7 70 -8 84 -31 4 -8 15 -14 22 -14 8
0 15 -4 15 -10 0 -19 46 -10 67 13 25 27 55 118 44 132 -8 10 -6 98 3 122 4
10 36 12 151 9 214 -6 242 17 140 114 l-56 52 -87 -5 c-48 -2 -97 -7 -109 -10
-66 -17 -109 -18 -122 -3 -11 13 -6 24 35 70 26 30 59 60 73 65 68 26 85 70
47 125 -14 21 -28 45 -31 55 -3 9 -34 38 -69 64 -54 40 -74 48 -137 58 -91 14
-195 7 -271 -19 l-58 -19 0 22 c0 26 14 40 52 49 20 4 31 17 43 51 10 24 21
42 26 39 4 -2 36 -7 71 -9 117 -9 245 -32 254 -47 3 -4 16 -8 29 -8 12 0 45
-15 73 -33 37 -26 57 -33 81 -29 17 2 31 8 31 12 0 5 15 13 34 20 18 6 43 21
55 34 l23 24 -20 45 c-11 25 -33 54 -49 64 -15 10 -33 23 -40 29 -15 14 -175
70 -228 80 -22 3 -49 8 -60 11 -11 2 -49 6 -85 9 -139 11 -153 20 -110 67 12
12 23 33 27 47 3 14 14 32 25 40 18 15 18 18 2 55 -9 22 -25 45 -35 53 -10 7
-34 41 -53 75 -20 34 -36 58 -36 53 0 -4 -16 4 -35 18 -19 15 -35 23 -35 19z"/>
<path d="M2125 7512 c-11 -2 -26 -11 -33 -20 -7 -10 -16 -15 -19 -12 -7 6 -14
-7 -39 -75 -15 -39 -19 -77 -19 -177 0 -127 0 -128 -25 -138 -14 -6 -56 -30
-94 -55 -74 -47 -99 -85 -111 -167 -5 -37 -3 -47 21 -76 40 -48 183 -116 225
-107 27 6 30 5 25 -11 -58 -186 -75 -479 -26 -449 5 3 19 1 30 -5 16 -9 22 -8
26 4 3 8 15 18 25 21 35 12 66 56 79 113 7 32 17 73 23 92 6 19 10 38 9 43 -4
15 15 6 38 -18 12 -13 46 -32 74 -41 28 -8 70 -24 93 -35 24 -10 49 -19 56
-19 18 0 57 -42 57 -62 0 -9 -13 -42 -30 -73 -16 -31 -30 -65 -30 -74 0 -21
19 -41 38 -41 8 0 20 -7 26 -16 15 -19 65 -9 74 15 3 9 25 39 49 68 63 74 106
167 99 212 -4 20 -8 59 -10 87 -2 30 -11 61 -22 77 -34 45 -158 120 -218 131
-125 24 -190 37 -193 40 -2 1 6 11 17 21 16 15 47 20 148 27 139 10 150 15
183 80 15 29 16 42 8 66 -5 16 -9 33 -7 38 1 5 -4 23 -12 41 -18 40 -76 72
-184 104 l-78 23 5 54 c3 30 11 58 17 62 6 4 13 34 16 66 6 82 -15 115 -93
144 -64 24 -187 48 -218 42z"/>
<path d="M6088 7426 c-15 -13 -31 -25 -37 -27 -6 -3 -6 -20 -2 -46 5 -23 4
-46 0 -50 -14 -14 30 -89 67 -118 47 -36 175 -75 247 -75 54 0 57 1 57 25 0
14 14 54 30 88 17 35 30 73 30 84 0 23 -30 53 -53 53 -9 0 -18 4 -21 9 -3 5
-48 25 -99 45 -114 44 -178 48 -219 12z"/>
<path d="M4945 7115 c-27 -8 -114 -46 -193 -85 -106 -54 -149 -81 -169 -107
-15 -20 -65 -61 -111 -91 -129 -85 -192 -200 -192 -352 0 -77 13 -123 48 -165
33 -41 53 -46 115 -33 28 6 61 12 72 13 11 1 37 9 59 18 21 10 44 17 51 17 7
0 35 35 63 78 44 70 63 88 168 165 114 83 175 110 160 70 -19 -49 -64 -318
-65 -383 0 -80 37 -267 70 -356 26 -70 89 -132 185 -181 149 -77 211 -86 325
-48 40 14 71 36 138 101 47 46 88 84 91 84 3 0 7 21 8 46 1 25 13 95 28 155
24 100 28 109 49 109 13 0 27 -4 30 -10 3 -5 18 -10 33 -11 34 0 130 -58 219
-130 62 -51 73 -57 126 -61 40 -3 61 -1 68 8 8 10 16 11 30 3 15 -7 19 -6 19
6 0 8 -4 15 -10 15 -17 0 -11 29 9 39 30 17 54 78 46 119 -11 58 -53 132 -81
143 -15 5 -53 34 -86 63 -33 30 -75 62 -95 71 -19 9 -36 22 -39 29 -3 8 -41
30 -85 51 -91 43 -181 56 -243 35 -51 -16 -106 -66 -104 -93 1 -12 -16 -76
-37 -142 -35 -106 -44 -125 -84 -164 -63 -62 -135 -93 -208 -89 -56 3 -58 4
-95 53 l-38 50 0 180 c0 184 17 303 57 394 9 19 15 46 15 60 -1 14 -1 39 -1
55 -1 66 -81 194 -158 251 -54 39 -99 44 -188 20z"/>
<path d="M5874 7110 c-47 -15 -61 -38 -69 -111 l-7 -66 39 -32 c21 -18 70 -48
109 -67 57 -27 83 -34 132 -34 l62 0 -6 29 c-5 22 0 34 20 53 22 20 27 34 29
85 1 37 -3 67 -10 74 -13 13 -192 69 -238 75 -16 1 -44 -1 -61 -6z"/>
<path d="M7795 6823 c-102 -12 -249 -36 -300 -49 -116 -28 -235 -67 -235 -77
0 -27 48 -80 116 -127 74 -51 77 -52 130 -46 63 7 70 -5 30 -57 -59 -78 -82
-197 -50 -259 l16 -31 101 6 c60 3 190 24 316 50 118 25 222 42 230 39 9 -3
35 -18 57 -34 98 -69 214 -22 214 88 0 64 -40 118 -113 153 -72 34 -157 54
-207 49 -34 -3 -35 -4 -32 -45 2 -37 -1 -44 -25 -56 -29 -15 -131 -40 -220
-55 -39 -7 -53 -6 -53 3 0 20 56 97 117 163 54 57 62 62 100 62 25 0 57 9 78
21 35 21 85 92 85 121 0 23 -47 62 -78 64 -15 1 -45 7 -67 13 -38 10 -144 13
-210 4z"/>
<path d="M1485 6746 c-42 -18 -51 -31 -81 -126 -28 -87 -28 -95 0 -267 7 -37
39 -82 79 -110 l38 -26 -58 -24 c-87 -36 -123 -63 -144 -112 l-20 -44 54 -51
c30 -28 59 -60 65 -71 10 -19 22 -20 198 -22 113 -1 191 -6 197 -12 7 -7 5
-12 -7 -17 -9 -3 -24 -20 -32 -36 -8 -16 -23 -37 -33 -47 -10 -10 -21 -35 -25
-55 -8 -43 3 -46 53 -15 27 16 44 19 75 15 83 -13 85 -34 10 -91 -34 -26 -39
-35 -40 -70 0 -22 5 -43 10 -47 23 -16 67 -7 92 17 14 14 28 25 31 25 3 0 11
6 17 13 6 8 45 28 86 46 62 28 86 33 138 31 122 -4 148 -3 244 8 110 13 202 2
338 -43 41 -14 138 -43 215 -65 153 -44 153 -44 175 -53 15 -6 90 -26 120 -32
8 -2 29 -9 45 -15 42 -17 139 -14 183 5 34 15 37 20 34 50 -3 26 1 36 17 44
12 7 21 18 21 26 0 8 11 22 25 31 14 9 25 21 25 28 0 6 17 22 37 36 20 14 58
47 85 74 35 35 53 47 68 43 11 -3 20 -1 20 4 0 21 3 25 31 42 16 11 29 22 29
26 0 3 16 15 35 25 25 14 32 22 25 31 -15 18 9 34 92 60 108 34 62 30 -154
-15 -106 -23 -207 -43 -225 -45 -17 -2 -71 -18 -120 -34 -152 -52 -267 -59
-403 -24 -100 26 -507 48 -613 33 -128 -18 -433 -131 -519 -192 -20 -14 -28
-16 -28 -6 0 44 -22 86 -55 104 -19 10 -35 20 -35 21 0 1 7 17 15 35 39 89 75
193 75 218 0 56 -85 125 -180 146 -19 5 -88 8 -153 9 l-117 0 27 20 c15 11 37
29 48 40 11 11 24 20 30 21 5 0 20 2 31 2 16 2 31 21 58 71 56 106 49 158 -31
254 -21 24 -49 59 -63 76 -14 17 -32 33 -40 36 -45 13 -88 13 -115 1z"/>
<path d="M7900 6166 c0 -76 -61 -107 -252 -126 -160 -16 -240 -50 -217 -92 23
-44 83 -98 125 -114 35 -13 60 -15 120 -10 88 8 104 0 104 -50 0 -58 -33 -84
-120 -94 -41 -6 -110 -17 -152 -26 -76 -16 -78 -18 -78 -46 0 -82 84 -136 246
-157 119 -15 486 -34 596 -30 95 4 98 5 154 45 117 82 123 124 23 163 -64 25
-273 60 -369 62 -30 0 -64 4 -75 7 -20 7 -20 9 -8 54 8 25 20 48 27 51 7 3 50
1 95 -5 79 -9 83 -9 127 17 24 14 56 44 69 66 14 21 30 39 35 39 19 0 10 47
-12 67 -36 33 -98 60 -154 68 -45 6 -58 13 -105 62 -64 65 -95 83 -144 83 -33
0 -35 -2 -35 -34z"/>
<path d="M6141 4371 c-50 -27 -126 -132 -146 -204 -16 -56 -16 -62 0 -103 19
-49 63 -88 112 -99 44 -9 143 12 143 30 0 8 9 29 20 47 11 18 20 42 20 54 0
21 28 54 47 54 12 0 29 41 37 91 5 30 2 39 -21 61 -33 31 -139 88 -162 88 -9
-1 -31 -9 -50 -19z"/>
<path d="M2615 4266 c-39 -18 -92 -51 -120 -73 -46 -37 -52 -46 -72 -119 -12
-43 -25 -105 -29 -136 l-7 -58 44 -41 c24 -23 58 -54 74 -70 17 -16 35 -29 42
-29 6 0 18 -8 25 -19 7 -10 42 -33 78 -51 159 -80 260 -169 260 -228 0 -14 -8
-52 -17 -85 -15 -56 -19 -61 -62 -80 -40 -18 -60 -19 -191 -15 -189 7 -210 4
-210 -31 0 -49 25 -71 82 -71 48 0 169 -36 275 -81 50 -21 145 -25 205 -9 25
7 53 29 86 66 51 57 58 80 78 240 8 66 -11 154 -41 196 -14 18 -33 45 -43 60
-23 35 -176 165 -263 224 -38 26 -69 55 -69 64 0 20 54 72 99 95 68 34 215 10
234 -39 10 -25 88 -76 118 -76 66 0 86 33 69 117 -14 66 -65 121 -153 164 -32
15 -66 34 -74 41 -11 9 -45 12 -113 9 -63 -2 -100 1 -104 8 -13 20 -73 12
-155 -21 -45 -17 -84 -28 -89 -24 -12 13 46 52 114 75 35 13 64 25 64 27 0 15
-77 -2 -135 -30z"/>
<path d="M4838 4278 c-32 -11 -58 -25 -58 -33 0 -7 -18 -39 -40 -72 -42 -64
-124 -293 -115 -323 3 -9 -1 -30 -9 -46 -19 -39 -40 -285 -40 -469 0 -196 17
-304 59 -370 47 -75 49 -75 187 -108 57 -13 141 3 192 38 20 13 43 21 54 18
11 -2 23 0 26 6 4 6 19 11 33 11 14 0 64 13 112 29 47 16 99 32 114 35 57 13
213 98 254 138 40 40 47 51 72 129 34 108 -23 229 -159 334 -53 41 -71 48
-167 68 -76 16 -121 21 -153 16 -25 -4 -71 -12 -103 -17 -32 -5 -60 -5 -63 -1
-5 9 20 110 35 138 12 22 14 116 2 145 -5 12 0 39 11 68 24 64 23 75 -12 140
-33 61 -127 149 -157 147 -10 -1 -44 -10 -75 -21z m462 -906 c0 -16 -107 -138
-158 -181 -71 -59 -123 -93 -131 -86 -3 4 -8 43 -11 88 -5 75 -3 84 19 109 28
34 51 47 111 64 51 14 170 18 170 6z"/>
<path d="M3815 4012 c-206 -110 -291 -189 -370 -345 -40 -79 -48 -103 -52
-169 -13 -185 84 -382 240 -486 32 -21 45 -24 90 -19 68 7 165 44 186 70 40
53 86 87 169 130 98 51 145 95 182 172 13 28 48 81 77 119 29 37 53 74 53 81
0 7 5 15 11 17 14 5 13 105 -2 161 -17 64 -58 123 -122 172 -31 25 -62 45 -67
45 -6 0 -10 5 -10 10 0 6 -7 10 -15 10 -9 0 -27 8 -41 17 -14 9 -44 20 -67 24
-23 4 -69 14 -102 23 -33 8 -62 15 -65 15 -3 1 -45 -21 -95 -47z m260 -313 c7
-8 20 -39 29 -70 22 -80 2 -138 -78 -226 -49 -54 -172 -125 -243 -139 -29 -6
-32 -4 -57 49 -48 102 -54 248 -12 311 22 35 102 79 156 88 70 10 189 3 205
-13z"/>
<path d="M1530 3961 c-85 -6 -86 -7 -211 -84 -115 -70 -127 -80 -133 -111 -4
-21 -35 -70 -81 -127 -86 -107 -90 -125 -82 -303 3 -79 9 -113 24 -138 10 -18
25 -49 33 -68 8 -19 25 -44 39 -55 78 -64 128 -97 153 -102 15 -3 33 -12 39
-19 14 -17 163 -19 205 -4 59 23 192 122 248 185 l58 66 19 -33 c10 -18 25
-47 33 -64 23 -47 91 -104 124 -104 15 0 33 -5 39 -11 8 -8 17 -8 31 0 11 6
28 11 37 11 18 0 84 63 86 82 1 7 1 19 0 26 -1 7 3 28 9 46 8 26 7 49 -5 104
-11 47 -15 95 -11 140 4 54 1 74 -13 98 -14 23 -16 36 -8 61 9 29 6 39 -41
111 -29 43 -52 88 -52 100 0 12 -3 23 -7 23 -5 1 -18 3 -30 4 -12 1 -34 10
-47 19 -14 9 -32 16 -41 16 -8 0 -52 18 -96 41 -69 34 -233 103 -234 97 0 -1
-38 -4 -85 -7z m245 -283 c15 -38 15 -43 1 -54 -12 -8 -15 -24 -12 -63 3 -28
1 -51 -4 -51 -5 0 -19 -18 -30 -39 -11 -22 -37 -54 -57 -71 -41 -34 -143 -80
-178 -80 -49 0 -115 86 -119 154 -4 70 110 174 236 214 131 43 142 42 163 -10z"/>
<path d="M8087 3962 c-75 -3 -80 -4 -190 -70 -61 -38 -122 -74 -133 -82 -13
-8 -24 -28 -27 -47 -4 -20 -29 -61 -65 -106 -101 -124 -97 -113 -97 -272 l1
-140 38 -77 c32 -65 50 -86 108 -133 38 -30 82 -58 96 -61 15 -4 35 -13 44
-21 13 -12 39 -14 115 -11 l98 3 89 60 c49 33 115 90 149 128 l60 67 23 -37
c13 -21 28 -48 33 -60 19 -42 89 -103 119 -103 15 0 33 -4 40 -9 38 -24 173
67 158 105 -3 9 -1 33 5 54 9 30 8 53 -5 111 -10 48 -14 98 -11 142 4 53 2 74
-11 96 -13 23 -15 35 -6 59 9 27 6 36 -43 109 -29 44 -55 91 -57 104 -2 18 -9
24 -29 25 -15 1 -37 8 -50 17 -13 10 -32 17 -41 17 -10 0 -53 17 -96 39 -88
44 -187 87 -217 93 -11 2 -55 2 -98 0z m240 -287 c12 -34 12 -41 -1 -51 -11
-8 -14 -24 -10 -62 3 -31 0 -52 -6 -52 -5 0 -16 -15 -24 -34 -22 -52 -76 -98
-149 -128 -77 -32 -104 -34 -135 -12 -31 22 -72 106 -72 149 0 30 9 46 51 91
56 58 124 97 223 125 88 26 106 22 123 -26z"/>
<path d="M6591 3895 c-13 -19 -28 -35 -33 -35 -5 0 -6 -5 -3 -10 4 -6 0 -22
-9 -35 -20 -31 -20 -69 2 -120 28 -65 142 -249 181 -293 66 -73 121 -140 121
-150 0 -5 -39 -74 -87 -153 -147 -245 -202 -382 -203 -501 0 -45 7 -57 24 -41
3 4 21 7 39 7 31 1 32 3 42 56 13 71 44 122 150 245 92 106 235 292 235 305 0
5 17 18 38 31 62 38 122 89 148 129 14 21 36 41 48 44 12 3 50 31 83 63 86 81
90 108 31 200 -25 37 -60 83 -78 102 -33 32 -34 33 -49 15 -9 -11 -35 -32 -58
-48 -51 -34 -129 -115 -168 -174 -15 -23 -31 -42 -35 -42 -11 0 -25 21 -40 60
-18 47 -141 263 -154 272 -6 3 -24 16 -41 27 -131 93 -149 97 -184 46z"/>
<path d="M5970 3832 c-53 -26 -83 -92 -95 -204 -2 -18 -8 -69 -14 -113 -21
-163 -8 -411 26 -483 35 -73 125 -84 239 -27 88 43 95 63 34 97 -41 24 -53 54
-25 64 8 4 15 14 15 23 0 9 16 56 35 103 19 47 39 117 45 154 6 38 20 83 31
100 10 18 26 53 33 78 14 46 14 47 -16 77 -17 16 -52 41 -77 54 -26 13 -53 31
-60 39 -8 9 -20 16 -28 16 -8 0 -26 9 -40 20 -31 24 -57 25 -103 2z"/>
</g>
</svg>
