<?xml version="1.0" encoding="UTF-8" standalone="no"?>
<!DOCTYPE svg PUBLIC "-//W3C//DTD SVG 1.1//EN" "http://www.w3.org/Graphics/SVG/1.1/DTD/svg11.dtd">
<svg xmlns="http://www.w3.org/2000/svg" version="1.1" viewBox="0 0 1448 1448">
<path fill="#0f0d0c" d="
  M 229.62 531.94
  Q 231.24 530.26 233.54 529.42
  Q 233.75 529.35 233.91 529.18
  L 238.94 524.06
  A 1.01 0.99 -64.7 0 1 239.76 523.76
  C 241.48 523.95 248.36 518.69 250.01 517.43
  A 0.99 0.98 -58.8 0 1 250.77 517.24
  Q 252.42 517.48 253.13 516.04
  Q 253.22 515.85 253.38 515.71
  L 254.87 514.45
  A 0.99 0.98 62.9 0 0 255.19 513.44
  Q 254.26 509.83 256.17 506.49
  A 0.94 0.93 55.5 0 0 256.29 505.82
  L 255.78 502.98
  Q 255.57 501.86 255.81 498.94
  C 256.02 496.33 255.95 490.94 257.13 488.58
  Q 257.22 488.40 257.23 488.20
  L 258.21 473.56
  A 1.00 1.00 0.0 0 0 257.23 472.49
  Q 254.33 472.43 252.01 473.89
  A 1.04 1.00 31.3 0 1 251.35 474.04
  Q 249.31 473.78 247.95 475.12
  A 1.00 0.99 -64.8 0 1 247.16 475.41
  C 244.51 475.17 242.59 474.85 239.84 475.60
  Q 235.28 476.86 230.74 475.12
  A 0.99 0.97 49.6 0 0 230.21 475.07
  Q 228.53 475.37 226.99 474.88
  Q 224.85 474.20 226.79 473.06
  Q 227.78 472.48 229.03 472.75
  C 230.36 473.03 231.55 475.05 232.98 473.06
  A 1.01 1.00 31.2 0 0 232.61 471.58
  L 230.72 470.64
  A 0.41 0.41 0.0 0 1 230.57 470.03
  L 230.79 469.73
  Q 231.10 469.31 230.58 469.31
  Q 228.41 469.29 226.68 470.33
  A 1.00 1.00 0.0 0 1 225.27 469.93
  Q 224.33 468.06 222.13 468.80
  A 0.99 0.99 0.0 0 1 221.21 468.65
  Q 216.51 465.07 211.41 462.11
  C 209.69 461.11 209.22 460.25 208.64 458.47
  A 0.97 0.97 0.0 0 0 208.11 457.87
  L 203.86 455.92
  A 1.01 1.00 3.0 0 1 203.32 455.33
  Q 202.89 454.02 201.48 454.00
  A 1.00 1.00 0.0 0 1 200.54 452.70
  L 201.50 449.69
  A 1.01 1.00 -82.8 0 1 202.40 448.99
  Q 205.95 448.82 206.37 445.35
  A 1.01 1.01 0.0 0 1 206.92 444.58
  Q 211.87 442.10 216.01 438.39
  A 1.01 0.99 37.5 0 1 217.14 438.25
  L 219.88 439.69
  A 1.09 1.04 -36.3 0 0 220.56 439.78
  Q 221.76 439.52 222.81 438.83
  Q 223.02 438.70 223.27 438.68
  L 227.47 438.32
  A 1.03 1.01 60.6 0 1 228.16 438.52
  Q 231.64 441.16 234.83 438.05
  A 0.99 0.97 25.2 0 1 235.63 437.77
  C 236.60 437.87 237.06 438.16 238.04 437.79
  C 247.58 434.14 256.92 432.52 265.56 428.77
  A 1.00 0.96 -85.9 0 0 266.05 428.33
  C 271.00 419.00 273.37 408.34 276.21 398.24
  A 0.99 0.98 83.4 0 1 276.68 397.64
  C 281.02 395.20 279.71 391.95 281.43 388.29
  C 283.01 384.93 283.87 375.54 286.66 374.13
  A 1.02 0.99 89.4 0 0 287.14 373.63
  Q 289.85 367.12 294.96 362.37
  C 297.03 360.44 298.59 360.37 298.18 364.13
  A 1.00 0.99 9.3 0 0 298.96 365.21
  Q 301.65 365.81 303.60 364.19
  Q 305.22 362.85 305.24 364.95
  L 305.25 366.40
  A 1.00 0.99 -87.4 0 0 306.14 367.38
  L 310.47 367.85
  A 1.03 0.99 -13.2 0 1 311.21 368.29
  L 314.69 373.64
  A 1.02 1.00 -59.6 0 1 314.85 374.28
  Q 314.35 379.88 313.15 383.92
  Q 308.02 401.18 304.93 415.82
  C 304.62 417.29 302.02 421.27 306.76 418.77
  A 0.99 0.98 39.6 0 1 307.51 418.70
  L 311.60 419.90
  A 1.03 0.99 -51.1 0 0 312.39 419.80
  L 317.86 416.56
  A 1.01 1.01 0.0 0 1 318.77 416.50
  Q 321.48 417.67 323.86 415.81
  A 1.07 1.03 -67.1 0 1 324.35 415.60
  L 326.98 415.27
  A 1.00 1.00 0.0 0 1 327.69 415.45
  Q 329.66 416.88 331.30 415.03
  A 1.01 0.99 -68.5 0 1 332.04 414.70
  L 340.17 414.61
  Q 340.41 414.60 340.62 414.49
  L 345.30 412.05
  Q 347.19 411.05 348.31 413.08
  C 349.96 416.05 352.62 414.87 354.86 415.86
  Q 358.51 417.47 360.49 421.18
  A 1.02 1.00 -2.3 0 0 361.00 421.64
  Q 364.90 423.19 367.14 426.78
  A 0.96 0.95 -56.2 0 1 367.28 427.50
  Q 366.86 429.61 368.98 429.24
  Q 371.89 428.72 370.61 430.75
  Q 369.52 432.48 370.12 434.24
  A 0.99 0.98 -33.5 0 1 369.91 435.24
  C 366.93 438.42 365.75 442.45 362.45 445.72
  A 1.05 1.05 0.0 0 0 362.17 446.29
  C 361.87 448.45 361.23 450.03 359.22 451.19
  Q 353.04 454.72 344.53 457.92
  A 1.02 0.99 48.7 0 1 343.67 457.85
  L 341.56 456.60
  A 0.97 0.97 0.0 0 0 340.69 456.54
  Q 336.70 458.11 332.38 457.33
  A 1.01 0.99 31.0 0 0 331.59 457.52
  Q 329.85 458.87 327.65 458.40
  A 1.08 1.04 37.9 0 0 327.00 458.47
  C 323.66 460.09 316.34 462.13 312.64 460.91
  A 0.96 0.94 -42.4 0 0 312.07 460.89
  C 307.98 462.01 303.96 461.68 299.14 464.09
  A 1.00 0.99 -56.5 0 1 298.61 464.20
  Q 292.97 463.74 294.01 469.49
  Q 294.84 474.10 293.34 477.56
  Q 293.24 477.79 293.26 478.04
  Q 293.54 481.25 292.97 484.36
  C 292.43 487.30 292.91 490.13 291.91 493.15
  Q 290.58 497.17 294.05 497.46
  A 1.08 1.07 -59.1 0 0 294.68 497.30
  L 296.53 496.10
  A 0.99 0.98 -52.2 0 1 297.38 495.99
  C 300.79 497.09 301.85 494.05 304.66 495.20
  A 1.01 0.98 -53.1 0 0 305.68 495.04
  L 308.21 492.93
  A 1.02 1.01 -57.0 0 1 309.13 492.73
  L 311.85 493.51
  A 1.00 1.00 0.0 0 0 312.89 493.20
  Q 315.75 489.83 319.05 493.03
  A 0.97 0.97 0.0 0 0 319.89 493.30
  L 323.96 492.69
  Q 324.20 492.66 324.42 492.73
  Q 329.07 494.28 332.88 491.10
  Q 333.08 490.94 333.18 490.70
  C 334.31 487.78 336.57 485.87 338.05 483.33
  Q 340.58 478.98 344.48 475.86
  Q 345.90 474.72 345.78 476.54
  Q 345.64 478.53 347.79 478.87
  A 1.01 1.01 0.0 0 1 348.63 479.80
  Q 348.69 480.78 349.77 480.77
  A 1.03 1.03 0.0 0 0 350.57 480.36
  Q 352.48 477.72 354.39 480.29
  A 1.00 0.98 68.4 0 0 355.29 480.69
  C 358.47 480.36 358.66 482.44 359.75 484.50
  Q 359.95 484.86 360.12 485.25
  A 1.00 1.00 0.0 0 0 361.58 485.70
  Q 362.32 485.22 363.37 485.82
  A 1.01 1.01 0.0 0 1 363.85 486.95
  Q 362.69 491.35 361.53 495.99
  C 359.99 502.14 364.41 501.04 367.76 502.54
  C 374.18 505.40 380.52 508.07 386.38 511.83
  Q 392.01 515.45 399.29 520.48
  Q 399.98 520.96 400.27 521.53
  A 1.00 0.99 87.3 0 0 400.79 522.01
  C 403.88 523.27 404.96 526.08 406.77 527.89
  Q 416.56 537.68 420.56 551.10
  Q 420.63 551.33 420.59 551.56
  L 420.25 553.51
  A 1.03 1.00 32.1 0 0 420.44 554.28
  L 422.80 557.38
  A 1.05 1.05 0.0 0 1 423.01 558.01
  L 422.88 562.90
  A 0.98 0.97 -66.0 0 0 423.14 563.59
  L 423.31 563.78
  A 1.02 1.00 33.2 0 1 423.52 564.75
  C 422.53 567.92 425.86 569.21 425.41 572.54
  C 424.62 578.31 425.35 583.77 423.90 589.53
  C 421.17 600.33 417.44 613.66 411.60 623.54
  C 410.59 625.26 410.54 627.28 409.33 629.08
  Q 407.30 632.09 405.24 635.08
  A 1.02 1.02 0.0 0 0 405.06 635.59
  C 404.87 638.60 402.62 639.59 401.41 641.50
  Q 399.98 643.76 398.41 645.96
  C 397.17 647.70 396.92 649.78 395.26 651.49
  Q 388.08 658.88 376.59 662.61
  Q 372.00 664.10 370.14 664.44
  A 1.01 1.00 -21.1 0 1 369.11 663.99
  L 367.15 660.84
  A 1.03 1.01 79.4 0 0 366.51 660.39
  L 365.50 660.17
  A 1.01 1.01 0.0 0 1 364.72 659.13
  Q 364.86 656.90 362.24 657.63
  A 0.95 0.95 0.0 0 1 361.70 657.63
  Q 354.79 655.68 350.64 649.67
  A 1.00 0.99 41.2 0 1 350.57 648.65
  C 354.57 640.69 359.24 632.66 362.68 624.48
  C 363.37 622.85 364.90 621.55 365.62 620.03
  C 369.90 610.98 375.77 602.34 378.09 592.57
  Q 378.27 591.84 379.82 587.61
  C 381.88 582.02 379.53 576.31 379.49 569.87
  A 1.01 1.00 25.5 0 0 379.26 569.23
  L 378.36 568.15
  A 1.00 0.98 33.2 0 1 378.16 567.23
  Q 378.56 565.89 377.54 565.12
  A 1.00 0.99 31.6 0 1 377.24 563.87
  Q 377.79 562.80 376.53 562.33
  A 0.99 0.99 0.0 0 1 375.89 561.55
  C 375.53 559.35 374.65 552.24 372.28 550.40
  A 1.03 1.00 11.9 0 1 371.94 549.90
  C 370.44 544.87 368.50 545.58 365.16 542.61
  Q 363.58 541.21 359.27 537.85
  A 1.00 1.00 0.0 0 0 358.25 537.72
  C 355.77 538.83 350.39 535.72 348.73 534.50
  Q 346.66 533.00 345.60 535.32
  C 339.73 548.11 332.32 559.95 325.28 572.10
  Q 322.86 576.28 319.32 579.55
  Q 317.74 581.01 317.59 583.33
  C 317.32 587.38 314.62 588.00 313.00 590.64
  C 310.61 594.55 310.42 597.15 305.86 600.43
  Q 305.64 600.58 305.53 600.83
  Q 302.95 606.54 298.66 611.10
  A 1.03 1.02 -28.1 0 0 298.40 611.94
  L 301.39 630.76
  Q 301.43 631.00 301.58 631.20
  Q 302.96 633.01 302.22 635.23
  Q 301.47 637.51 303.41 637.85
  Q 305.01 638.13 305.89 639.44
  A 0.98 0.97 33.8 0 1 306.04 640.18
  Q 305.65 642.22 306.24 645.73
  Q 306.85 649.42 305.38 654.75
  C 304.39 658.34 306.10 661.33 301.36 663.31
  A 0.99 0.99 0.0 0 1 300.37 663.19
  L 296.16 659.98
  A 1.00 0.98 -26.3 0 0 295.52 659.77
  Q 292.19 659.89 289.21 658.42
  A 1.03 1.01 8.6 0 1 288.67 657.70
  Q 288.27 655.45 286.30 656.61
  A 1.01 0.99 46.5 0 1 285.23 656.57
  C 281.95 654.33 278.06 651.64 275.61 648.51
  Q 273.66 646.03 272.43 649.73
  A 1.00 0.99 -70.9 0 1 271.14 650.36
  L 270.02 649.94
  A 1.01 1.00 -53.7 0 0 269.06 650.09
  Q 267.83 651.05 267.25 652.50
  A 1.01 1.00 -7.0 0 1 266.90 652.94
  C 262.93 655.73 257.18 657.85 253.64 658.98
  C 250.36 660.02 247.40 659.61 244.03 659.82
  Q 242.39 659.91 242.30 658.87
  A 1.00 1.00 0.0 0 1 243.32 657.78
  Q 245.96 657.84 248.47 657.47
  Q 248.75 657.43 248.95 657.33
  Q 250.26 656.67 248.82 656.37
  L 242.85 655.11
  A 0.98 0.96 -52.2 0 0 242.18 655.20
  Q 241.01 655.82 240.60 654.88
  A 0.80 0.80 0.0 0 0 239.29 654.65
  L 238.15 655.84
  A 1.01 0.98 19.2 0 1 237.51 656.14
  Q 234.39 656.38 231.97 658.31
  Q 230.56 659.44 231.35 657.82
  Q 231.50 657.51 231.84 657.33
  A 1.01 1.00 62.7 0 0 232.26 655.99
  Q 231.82 655.14 230.93 654.81
  Q 224.63 652.48 218.41 649.90
  A 1.01 0.98 84.5 0 1 217.95 649.51
  Q 215.67 645.93 211.68 646.20
  A 1.01 0.98 64.1 0 1 210.93 645.93
  Q 206.34 641.67 200.91 638.52
  Q 200.79 638.45 200.70 638.36
  C 199.79 637.43 194.28 631.90 193.19 631.98
  C 191.29 632.10 193.50 634.43 193.86 634.80
  A 0.96 0.93 -73.2 0 1 194.14 635.34
  C 194.49 637.54 191.96 635.07 191.67 633.50
  A 1.06 1.02 15.2 0 0 191.31 632.90
  Q 189.05 631.09 189.31 628.14
  Q 189.39 627.20 189.91 627.99
  L 190.09 628.27
  Q 190.98 629.63 191.26 628.03
  Q 191.51 626.56 189.63 626.10
  A 1.02 1.00 83.3 0 1 188.97 625.57
  Q 186.47 620.44 191.78 624.58
  A 0.80 0.79 53.6 0 0 192.54 624.70
  C 194.03 624.16 191.38 621.24 190.98 620.37
  A 1.01 0.97 2.4 0 0 190.53 619.90
  L 189.34 619.28
  A 1.02 0.98 85.6 0 1 188.95 618.93
  C 186.71 615.41 185.19 612.39 185.44 607.97
  Q 185.78 602.03 186.70 591.50
  Q 187.21 585.72 190.10 581.42
  C 192.44 577.93 192.72 573.78 195.85 570.95
  Q 198.17 568.86 198.67 567.92
  C 203.49 558.92 211.87 550.45 218.92 542.35
  C 222.19 538.58 226.18 535.54 229.62 531.94
  Z
  M 289.70 545.82
  Q 289.47 547.93 290.51 550.68
  C 290.73 551.26 290.75 559.75 290.85 559.81
  A 0.79 0.79 0.0 0 0 291.84 559.66
  C 296.02 555.13 299.09 548.99 302.57 543.84
  C 303.05 543.13 302.95 542.12 303.69 541.36
  Q 305.77 539.21 306.92 536.44
  Q 307.18 535.83 307.00 535.34
  A 0.80 0.80 0.0 0 0 305.88 534.92
  Q 301.54 537.19 296.59 537.54
  Q 296.36 537.55 296.17 537.66
  L 290.28 540.93
  A 1.00 0.99 73.3 0 0 289.77 541.88
  C 289.89 543.39 289.91 544.00 289.70 545.82
  Z
  M 232.38 578.83
  Q 230.78 578.47 231.25 582.92
  A 1.01 1.01 0.0 0 1 230.96 583.74
  L 224.57 590.04
  Q 224.42 590.19 224.34 590.39
  C 222.17 595.91 220.28 600.69 221.77 606.75
  C 222.12 608.18 221.77 609.39 221.51 610.77
  C 221.05 613.14 221.93 615.18 221.51 617.75
  A 0.98 0.97 25.2 0 0 221.84 618.65
  C 226.09 622.41 227.03 625.93 233.50 625.94
  C 237.08 625.94 239.53 627.67 242.95 625.28
  C 247.23 622.31 252.17 618.76 254.99 614.09
  C 257.57 609.84 263.00 606.88 259.62 601.49
  A 0.97 0.92 -61.0 0 1 259.47 600.91
  Q 259.71 596.17 257.98 590.77
  Q 256.38 585.79 256.59 579.82
  Q 256.71 576.47 256.19 573.74
  Q 255.42 569.68 254.80 564.77
  Q 254.79 564.66 254.80 564.54
  Q 254.98 562.85 254.64 561.19
  Q 254.28 559.38 252.96 560.68
  Q 248.35 565.22 243.26 569.11
  C 239.57 571.94 236.95 575.84 233.02 578.70
  A 0.79 0.79 0.0 0 1 232.38 578.83
  Z"
/>
<path fill="#0f0d0c" d="
  M 997.01 437.49
  C 996.55 437.17 996.41 436.07 995.53 436.29
  A 0.51 0.51 0.0 0 0 995.16 436.92
  L 995.96 439.90
  Q 997.03 443.88 994.55 440.59
  L 994.36 440.34
  A 0.82 0.81 -49.9 0 1 994.29 439.47
  Q 995.47 437.33 993.79 435.88
  A 0.99 0.95 -72.0 0 1 993.45 435.18
  C 993.35 433.38 991.66 430.64 992.62 428.90
  A 1.01 0.99 33.4 0 0 992.35 427.62
  L 992.01 427.36
  A 1.04 1.02 20.0 0 1 991.61 426.53
  L 991.84 420.03
  Q 991.85 419.82 991.94 419.63
  Q 993.13 417.18 991.81 414.77
  A 1.03 1.01 -48.7 0 1 991.76 413.90
  L 993.00 410.95
  Q 993.81 409.02 994.49 411.00
  Q 994.88 412.11 995.82 411.25
  Q 996.30 410.81 996.33 410.18
  Q 996.37 409.30 995.82 408.81
  A 1.00 1.00 0.0 0 1 995.68 407.48
  Q 997.52 404.93 997.67 401.65
  A 0.99 0.97 -22.2 0 1 997.96 400.98
  C 998.35 400.60 1009.73 387.07 1008.22 395.08
  Q 1007.19 400.57 1011.26 396.53
  A 0.64 0.64 0.0 0 1 1012.17 396.53
  L 1012.42 396.79
  A 1.02 1.00 47.6 0 0 1013.79 396.86
  L 1014.07 396.61
  A 0.51 0.51 0.0 0 1 1014.88 396.82
  L 1015.46 398.32
  A 0.98 0.98 0.0 0 0 1016.10 398.92
  Q 1022.32 400.80 1023.32 407.25
  Q 1023.34 407.39 1023.40 407.51
  L 1024.51 409.99
  A 1.03 1.01 42.4 0 1 1024.55 410.72
  C 1023.68 413.33 1024.91 415.16 1024.92 417.28
  Q 1024.94 420.91 1024.74 424.56
  A 1.00 1.00 0.0 0 0 1024.97 425.25
  L 1027.07 427.79
  A 1.00 0.99 -51.0 0 1 1027.18 428.89
  Q 1025.25 432.53 1027.62 435.80
  A 0.99 0.97 -62.9 0 1 1027.81 436.41
  C 1027.75 439.72 1027.11 442.79 1028.15 445.99
  Q 1029.58 450.35 1030.99 454.69
  A 1.04 1.03 -42.3 0 1 1030.95 455.40
  L 1028.51 460.98
  A 1.01 1.00 -38.7 0 0 1028.44 461.58
  Q 1029.06 464.66 1027.30 462.50
  A 0.80 0.80 0.0 0 0 1026.14 462.42
  Q 1025.64 462.88 1025.97 463.47
  A 0.80 0.80 0.0 0 1 1025.39 464.65
  Q 1020.91 465.34 1016.52 464.33
  A 1.08 1.06 -15.4 0 1 1016.05 464.07
  Q 1012.16 460.29 1008.45 456.42
  C 1007.47 455.39 1005.29 454.54 1004.83 453.69
  Q 1003.33 450.87 1001.72 448.13
  A 1.00 1.00 0.0 0 1 1001.63 447.33
  C 1002.82 443.53 999.93 439.55 997.01 437.49
  Z
  M 993.17 420.88
  Q 992.70 421.72 993.27 422.03
  A 0.41 0.41 0.0 0 0 993.82 421.87
  Q 994.31 421.03 993.72 420.72
  A 0.41 0.41 0.0 0 0 993.17 420.88
  Z
  M 996.13 433.14
  Q 996.23 433.95 997.07 433.72
  A 0.64 0.64 0.0 0 0 997.50 432.87
  L 996.55 430.43
  Q 996.47 430.22 996.49 430.00
  C 996.69 427.18 992.21 431.55 995.54 432.47
  A 0.81 0.80 3.9 0 1 996.13 433.14
  Z"
/>
<path fill="#0f0d0c" d="
  M 533.25 456.25
  C 535.60 455.80 532.35 453.47 531.36 453.38
  A 0.98 0.98 0.0 0 1 530.65 453.00
  L 526.63 447.80
  A 0.98 0.98 0.0 0 1 526.45 446.95
  Q 526.63 446.21 526.08 446.06
  A 0.63 0.63 0.0 0 0 525.28 446.61
  L 525.10 448.24
  A 1.00 1.00 0.0 0 0 525.74 449.28
  Q 526.48 449.56 526.31 450.53
  Q 525.92 452.87 525.08 450.65
  L 523.89 447.49
  A 1.01 1.00 -32.6 0 1 524.13 446.42
  C 525.28 445.29 525.63 441.08 525.91 441.01
  Q 527.12 440.72 526.05 440.08
  L 525.55 439.77
  A 1.00 0.98 8.7 0 1 525.10 439.17
  L 524.48 436.77
  A 1.01 1.01 0.0 0 0 523.98 436.13
  C 519.72 433.89 518.81 428.63 515.97 424.97
  C 513.82 422.20 511.48 421.09 511.69 417.01
  C 511.89 413.00 510.83 409.79 511.65 405.75
  A 0.99 0.98 81.6 0 1 512.15 405.07
  Q 515.10 403.45 517.04 400.75
  A 1.01 1.01 0.0 0 1 518.29 400.43
  Q 521.78 402.09 525.70 401.46
  A 1.00 0.99 -32.7 0 1 526.40 401.61
  C 529.17 403.37 528.68 406.85 532.08 407.51
  A 1.00 0.99 76.0 0 1 532.67 407.87
  C 534.69 410.42 538.13 412.08 539.15 414.90
  C 540.30 418.05 541.92 418.19 543.37 420.04
  Q 545.91 423.29 548.00 426.83
  C 549.44 429.27 550.07 433.02 552.71 435.69
  C 556.27 439.27 558.28 446.19 559.99 450.87
  Q 560.34 451.81 560.45 452.77
  Q 560.66 454.50 561.84 453.21
  Q 563.08 451.85 564.53 450.75
  C 570.49 446.20 575.77 440.13 581.14 434.87
  C 589.61 426.59 600.38 417.96 609.62 408.98
  C 611.41 407.24 612.73 404.63 614.76 402.76
  Q 620.56 397.44 626.93 392.78
  A 1.00 0.99 -45.2 0 1 628.09 392.77
  Q 632.22 395.67 636.95 398.60
  C 640.07 400.54 641.41 403.08 644.08 405.56
  A 1.01 1.01 0.0 0 1 644.35 406.61
  C 641.86 414.16 637.84 418.42 633.47 424.26
  C 630.97 427.58 626.25 432.44 623.53 437.41
  A 1.03 1.00 -88.5 0 1 623.11 437.82
  Q 621.77 438.50 620.29 438.89
  C 616.64 439.86 615.86 441.78 614.83 445.52
  A 1.04 1.02 82.5 0 1 614.38 446.12
  L 608.75 449.49
  A 1.01 0.98 -7.6 0 0 608.30 450.06
  Q 607.52 452.66 606.36 453.61
  Q 597.43 460.96 594.36 464.36
  Q 590.25 468.92 586.31 470.93
  A 1.04 1.03 -87.5 0 0 585.91 471.30
  C 582.78 476.41 575.88 480.64 571.63 485.29
  A 1.01 0.96 -71.8 0 1 571.05 485.60
  Q 568.78 485.97 566.97 487.45
  A 0.96 0.94 -14.9 0 0 566.62 488.04
  C 565.90 491.96 563.97 493.96 560.19 494.99
  C 559.67 495.13 554.91 497.69 557.20 497.94
  A 0.80 0.80 0.0 0 0 557.85 497.71
  Q 559.49 496.09 560.74 497.84
  A 1.01 0.99 -23.7 0 0 561.77 498.23
  Q 563.38 497.87 564.36 496.47
  A 0.99 0.99 0.0 0 1 565.32 496.05
  Q 568.46 496.50 571.05 494.69
  A 1.05 1.03 -62.7 0 1 571.60 494.51
  Q 574.91 494.42 578.12 493.72
  A 1.00 0.96 13.4 0 0 578.65 493.41
  C 579.58 492.36 590.95 489.96 593.18 489.35
  C 596.96 488.33 601.70 488.07 605.92 486.61
  A 0.99 0.98 -41.5 0 1 606.66 486.65
  Q 607.80 487.17 608.84 486.25
  A 1.00 0.99 -60.6 0 1 609.64 486.02
  L 614.81 486.78
  A 1.03 1.03 0.0 0 0 615.51 486.62
  L 616.57 485.91
  A 1.00 1.00 0.0 0 1 617.78 485.97
  C 618.98 487.00 621.53 484.58 624.11 485.64
  A 1.02 0.99 -51.2 0 0 625.08 485.52
  Q 626.65 484.39 628.69 484.83
  A 0.98 0.97 32.1 0 0 629.50 484.65
  Q 633.02 481.97 637.36 482.39
  A 1.01 0.95 -56.5 0 0 638.00 482.24
  C 640.68 480.54 643.55 480.37 646.09 478.58
  A 1.00 0.99 -58.5 0 1 646.82 478.40
  L 650.32 478.97
  A 0.99 0.98 30.3 0 0 651.09 478.77
  Q 653.08 477.25 655.66 477.12
  A 1.05 1.03 -65.8 0 0 656.25 476.89
  Q 659.31 474.34 663.00 475.98
  A 1.00 1.00 0.0 0 0 663.85 475.96
  L 667.14 474.30
  A 1.00 1.00 0.0 0 1 668.55 474.92
  L 669.03 476.58
  A 1.02 1.00 -86.1 0 0 669.56 477.20
  L 674.61 479.62
  A 1.01 0.98 -45.6 0 0 675.53 479.60
  Q 677.45 478.55 676.43 480.64
  A 1.00 0.99 -53.0 0 0 676.58 481.75
  C 679.38 484.88 683.85 481.56 684.63 488.70
  A 1.00 1.00 0.0 0 0 685.11 489.46
  Q 688.02 491.16 687.99 494.71
  A 0.99 0.97 -28.2 0 1 687.82 495.26
  Q 684.63 499.98 682.68 505.38
  A 1.02 0.99 42.6 0 0 682.72 506.15
  L 682.85 506.43
  A 0.51 0.51 0.0 0 1 682.51 507.15
  L 678.74 508.01
  A 1.00 1.00 0.0 0 0 677.97 509.12
  Q 678.28 511.51 676.81 513.08
  C 674.74 515.29 671.37 517.29 667.81 519.23
  C 666.02 520.21 661.81 522.76 661.26 524.57
  A 1.00 0.97 -9.2 0 1 660.86 525.11
  L 654.05 529.72
  A 0.98 0.97 -6.6 0 0 653.69 530.17
  Q 653.19 531.41 651.79 531.37
  A 1.02 1.00 -65.0 0 0 651.09 531.63
  C 646.59 535.63 640.80 538.24 636.75 542.47
  Q 628.11 551.47 616.82 557.10
  A 1.02 1.01 87.0 0 0 616.32 557.66
  Q 615.83 559.03 614.36 559.33
  A 1.02 1.01 -80.3 0 0 613.69 559.81
  C 612.32 562.22 611.14 564.20 608.89 566.13
  Q 601.76 572.24 598.83 582.65
  Q 598.32 584.50 598.88 587.46
  Q 599.60 591.30 598.61 594.86
  A 1.07 1.00 -47.0 0 0 598.61 595.39
  Q 599.75 599.49 599.75 603.75
  Q 599.75 605.85 601.47 607.03
  Q 603.17 608.20 603.70 610.17
  A 1.04 1.02 -77.1 0 0 604.00 610.66
  Q 612.68 618.34 618.70 622.04
  Q 621.55 623.79 622.73 625.15
  Q 622.84 625.28 622.98 625.36
  L 628.51 628.55
  A 1.00 0.99 11.8 0 1 629.00 629.29
  Q 629.49 633.18 632.89 635.12
  A 1.00 0.99 -77.5 0 1 633.39 635.91
  Q 633.71 640.09 635.61 643.83
  A 1.02 1.01 49.3 0 1 635.54 644.86
  Q 633.35 648.00 633.49 651.83
  Q 633.54 653.09 632.63 652.22
  Q 632.38 651.98 631.97 652.00
  A 0.51 0.51 0.0 0 0 631.50 652.65
  Q 631.82 653.78 631.01 654.19
  A 0.81 0.80 -24.8 0 0 630.63 655.20
  C 631.07 656.31 630.66 657.13 629.50 657.47
  Q 624.95 658.83 621.98 654.75
  Q 621.65 654.30 621.22 654.23
  Q 619.60 653.92 620.60 655.24
  L 622.22 657.40
  A 0.18 0.18 0.0 0 1 622.26 657.56
  Q 622.22 657.81 621.91 657.59
  Q 620.85 656.86 620.05 655.86
  A 1.01 1.00 55.2 0 0 618.75 655.62
  Q 617.73 656.24 617.19 654.58
  Q 616.09 651.19 613.32 650.55
  Q 609.76 649.72 612.40 652.25
  L 613.14 652.95
  Q 615.61 655.31 612.45 654.00
  Q 610.53 653.21 609.28 651.43
  A 1.01 1.00 65.3 0 0 608.21 651.03
  L 607.67 651.17
  A 1.03 1.02 49.9 0 1 606.99 651.11
  L 602.88 649.19
  A 1.05 1.01 86.2 0 1 602.45 648.80
  Q 600.35 645.36 596.25 644.61
  A 0.99 0.98 79.9 0 1 595.57 644.13
  Q 594.66 642.55 592.95 642.09
  A 1.02 1.01 -2.2 0 1 592.28 641.48
  Q 591.41 639.20 588.81 639.79
  A 0.81 0.80 75.6 0 1 587.86 639.22
  L 587.75 638.81
  Q 587.55 638.10 588.15 638.52
  Q 590.49 640.19 590.06 638.15
  A 1.00 0.99 -7.5 0 0 589.01 637.36
  Q 587.03 637.50 587.27 635.24
  Q 587.40 633.98 586.55 634.92
  L 586.22 635.30
  Q 585.36 636.26 585.11 634.99
  Q 584.11 629.80 578.82 629.83
  A 1.01 1.01 0.0 0 1 577.88 629.19
  Q 576.91 626.71 574.61 625.29
  C 573.05 624.32 572.92 625.62 573.73 626.65
  Q 574.06 627.07 574.00 627.50
  A 0.80 0.80 0.0 0 1 572.90 628.12
  C 571.01 627.32 570.42 625.34 569.53 624.21
  Q 562.74 615.56 560.76 604.68
  C 559.87 599.81 561.04 595.71 560.53 590.95
  Q 560.13 587.14 561.61 583.45
  A 1.05 1.02 50.8 0 0 561.66 582.87
  C 561.47 581.95 561.17 581.45 561.34 580.45
  C 563.50 568.10 567.93 558.64 576.40 548.71
  Q 586.42 536.95 597.70 527.47
  Q 599.67 525.82 597.99 525.16
  A 1.00 1.00 0.0 0 0 597.36 525.13
  C 594.24 525.99 591.58 526.30 588.51 527.80
  Q 582.28 530.83 575.26 529.48
  A 1.04 1.04 0.0 0 0 574.73 529.52
  C 572.72 530.26 566.07 533.77 563.26 533.29
  A 1.04 1.02 -61.4 0 0 562.40 533.55
  C 561.32 534.58 557.40 534.07 555.50 534.71
  C 553.79 535.29 552.36 537.17 549.67 537.18
  A 1.02 0.97 27.9 0 0 549.14 537.33
  Q 544.90 540.02 539.81 540.23
  A 1.01 1.00 74.4 0 1 538.88 539.70
  L 538.66 539.28
  Q 537.94 537.91 537.48 539.38
  Q 537.23 540.17 536.25 540.23
  Q 534.01 540.37 533.02 537.94
  A 0.41 0.41 0.0 0 0 532.46 537.73
  L 532.22 537.85
  A 0.51 0.51 0.0 0 0 531.99 538.54
  Q 534.04 542.52 529.24 541.71
  A 1.00 0.94 74.4 0 1 528.63 541.34
  Q 526.32 538.44 524.63 541.14
  A 1.01 1.01 0.0 0 0 525.37 542.67
  Q 526.89 542.84 523.97 544.30
  A 1.03 1.00 -88.5 0 0 523.55 544.71
  C 520.36 550.39 511.55 549.30 506.83 553.51
  Q 504.54 555.56 501.91 557.06
  A 1.04 1.00 40.0 0 1 501.07 557.12
  C 498.08 556.03 494.41 552.60 491.69 550.77
  A 1.00 0.99 11.6 0 1 491.27 550.14
  Q 491.04 549.02 489.84 548.81
  A 0.99 0.98 80.4 0 1 489.14 548.31
  L 487.79 545.89
  A 1.00 1.00 0.0 0 0 486.81 545.38
  Q 483.37 545.72 482.00 542.65
  A 1.01 1.01 0.0 0 0 480.65 542.15
  Q 477.35 543.73 477.32 540.31
  C 477.30 536.13 495.52 516.95 499.23 513.06
  C 501.66 510.52 504.58 505.97 508.78 503.41
  A 1.01 0.96 88.6 0 0 509.16 502.99
  Q 511.10 498.97 514.50 496.34
  C 520.17 491.97 524.95 486.71 530.58 482.24
  Q 532.12 481.01 533.38 479.26
  C 535.87 475.82 539.53 474.26 542.02 470.78
  A 1.01 1.00 48.4 0 0 542.08 469.72
  C 540.07 466.04 536.59 458.42 533.25 456.25
  Z
  M 516.80 405.46
  C 516.75 404.00 512.93 405.28 516.32 405.88
  A 0.41 0.41 0.0 0 0 516.80 405.46
  Z
  M 590.4308 522.1611
  A 1.15 0.68 -36.8 0 0 589.1027 522.3055
  A 1.15 0.68 -36.8 0 0 588.5892 523.5389
  A 1.15 0.68 -36.8 0 0 589.9173 523.3945
  A 1.15 0.68 -36.8 0 0 590.4308 522.1611
  Z
  M 571.35 528.20
  C 571.95 528.02 574.48 527.49 573.91 526.55
  A 0.65 0.63 70.0 0 0 573.29 526.25
  L 570.64 526.54
  A 1.01 1.00 87.5 0 0 569.74 527.53
  Q 569.74 528.68 571.35 528.20
  Z
  M 556.49 530.59
  A 0.64 0.63 -80.2 0 0 555.60 531.22
  Q 555.66 532.17 556.54 532.28
  A 0.64 0.64 0.0 0 0 557.23 531.46
  Q 557.04 530.83 556.49 530.59
  Z
  M 553.61 532.03
  Q 554.16 532.57 554.67 531.84
  Q 555.12 531.19 554.33 531.20
  Q 554.04 531.20 553.71 531.37
  A 0.41 0.41 0.0 0 0 553.61 532.03
  Z
  M 536.5076 536.4435
  A 1.21 0.65 -36.9 0 0 535.1497 536.6502
  A 1.21 0.65 -36.9 0 0 534.5724 537.8965
  A 1.21 0.65 -36.9 0 0 535.9303 537.6898
  A 1.21 0.65 -36.9 0 0 536.5076 536.4435
  Z
  M 570.30 619.13
  C 568.19 618.81 573.81 624.86 570.67 619.38
  A 0.49 0.49 0.0 0 0 570.30 619.13
  Z
  M 602.62 647.10
  C 608.38 647.45 598.11 642.01 601.91 646.73
  A 1.00 0.98 -16.9 0 0 602.62 647.10
  Z
  M 605.97 648.13
  Q 607.07 647.46 605.78 646.75
  A 0.51 0.51 0.0 0 0 605.02 647.16
  L 605.00 647.55
  Q 604.92 648.78 605.97 648.13
  Z"
/>
<path fill="#0f0d0c" d="
  M 977.50 457.75
  L 977.31 457.81
  A 0.16 0.05 79.5 0 0 977.29 457.96
  Q 978.25 464.71 971.22 463.24
  C 964.53 461.84 955.87 448.48 952.62 442.02
  Q 950.60 438.00 949.45 432.66
  Q 948.37 427.69 947.31 422.70
  A 0.97 0.96 -79.4 0 0 946.89 422.08
  Q 944.61 420.52 944.75 418.72
  C 945.09 414.48 945.69 420.61 947.06 419.06
  A 0.99 0.99 0.0 0 0 947.31 418.43
  Q 947.55 409.66 948.48 406.24
  C 949.20 403.58 952.93 399.03 956.25 399.27
  Q 959.12 399.48 958.49 403.13
  A 1.03 1.03 0.0 0 0 958.68 403.91
  C 960.12 405.81 960.06 402.88 959.81 402.14
  C 958.76 399.09 962.39 400.72 963.35 401.62
  C 966.04 404.13 969.02 407.03 972.19 408.93
  C 973.96 409.99 972.75 412.17 972.80 413.75
  C 972.97 418.64 973.87 422.33 973.23 427.24
  A 1.02 1.01 36.6 0 0 973.31 427.76
  C 974.32 430.12 974.29 432.71 974.84 434.75
  Q 976.99 442.68 982.28 451.97
  A 1.00 1.00 0.0 0 1 982.08 453.21
  Q 980.34 454.79 979.32 457.94
  Q 978.25 461.28 977.72 458.01
  A 0.28 0.15 78.6 0 0 977.50 457.75
  Z"
/>
<path fill="#0f0d0c" d="
  M 1045.67 525.53
  L 1043.91 526.46
  Q 1043.24 526.81 1043.44 526.08
  Q 1043.58 525.54 1044.24 525.37
  A 0.64 0.64 0.0 0 0 1044.69 524.91
  L 1044.80 524.49
  A 1.00 1.00 0.0 0 0 1044.25 523.34
  L 1038.42 520.62
  A 0.99 0.99 0.0 0 1 1037.87 519.92
  Q 1037.50 518.15 1035.60 518.42
  A 1.01 0.98 -30.9 0 1 1034.91 518.26
  L 1026.74 512.90
  A 0.99 0.94 59.2 0 0 1026.18 512.74
  L 1024.54 512.75
  A 0.99 0.99 0.0 0 1 1023.63 512.18
  L 1022.25 509.33
  A 1.01 1.01 0.0 0 1 1022.27 508.42
  C 1023.24 506.61 1023.16 504.62 1024.21 503.08
  Q 1027.29 498.57 1031.69 495.38
  C 1034.26 493.51 1036.96 494.23 1039.46 492.56
  Q 1044.10 489.48 1049.09 487.04
  C 1052.18 485.52 1056.28 484.49 1060.20 482.96
  Q 1076.79 476.50 1083.23 473.74
  A 1.00 0.99 64.1 0 0 1083.71 472.35
  L 1083.23 471.46
  Q 1083.12 471.27 1083.11 471.06
  Q 1082.77 466.69 1082.00 462.40
  C 1081.50 459.67 1081.91 456.81 1081.40 453.96
  C 1080.87 450.97 1081.04 448.64 1080.98 445.82
  A 0.99 0.99 0.0 0 1 1081.16 445.22
  C 1082.28 443.65 1079.18 438.64 1081.61 439.84
  A 0.80 0.80 0.0 0 0 1082.60 439.60
  Q 1083.07 438.98 1082.50 438.36
  A 1.00 0.99 49.4 0 0 1081.15 438.25
  L 1080.84 438.50
  Q 1080.25 438.96 1080.18 438.21
  L 1079.69 433.08
  A 1.00 0.99 84.9 0 1 1080.60 431.99
  Q 1081.37 431.93 1081.71 431.40
  A 1.00 1.00 0.0 0 0 1081.38 429.99
  Q 1079.53 428.92 1079.03 426.86
  A 1.00 0.99 -28.2 0 1 1079.33 425.89
  Q 1081.86 423.57 1081.44 420.99
  Q 1079.54 409.47 1087.06 400.92
  A 1.00 1.00 0.0 0 1 1088.72 401.16
  C 1089.45 402.73 1090.50 403.10 1092.12 402.26
  Q 1096.46 400.02 1097.72 404.78
  Q 1098.17 406.45 1099.39 405.23
  Q 1100.21 404.42 1101.33 404.88
  Q 1104.40 406.13 1107.11 408.00
  A 0.98 0.96 -76.8 0 1 1107.54 408.71
  Q 1108.81 419.99 1108.75 422.26
  Q 1108.64 426.17 1109.46 428.99
  Q 1110.28 431.81 1110.39 433.21
  C 1110.79 438.38 1113.23 443.76 1113.34 447.94
  Q 1113.45 452.23 1113.89 456.51
  Q 1113.91 456.74 1114.03 456.94
  Q 1115.49 459.32 1114.94 462.11
  A 1.00 0.99 -88.3 0 0 1116.05 463.29
  L 1128.04 461.70
  Q 1128.25 461.68 1128.44 461.56
  L 1132.28 459.14
  A 1.04 1.01 29.4 0 1 1132.85 458.99
  Q 1136.65 459.12 1140.06 457.68
  C 1142.49 456.66 1144.07 456.99 1146.48 457.27
  A 1.02 1.01 -58.8 0 0 1147.16 457.10
  L 1149.30 455.65
  A 1.01 1.01 0.0 0 1 1150.25 455.56
  Q 1151.02 455.88 1151.48 456.72
  A 0.65 0.65 0.0 0 0 1151.97 457.05
  C 1152.64 457.12 1154.65 452.73 1155.06 452.06
  C 1156.28 450.07 1159.20 447.90 1160.70 445.19
  C 1167.41 433.10 1175.83 421.31 1183.53 409.80
  C 1184.38 408.53 1189.24 402.75 1190.53 406.48
  A 1.00 0.99 -3.1 0 0 1191.26 407.13
  C 1196.50 408.28 1203.85 411.86 1206.25 417.24
  A 1.04 0.98 39.8 0 1 1206.32 417.81
  Q 1204.15 430.50 1197.01 441.04
  Q 1195.86 442.74 1194.57 445.78
  Q 1193.03 449.37 1190.16 452.11
  A 1.01 1.00 37.0 0 0 1190.39 453.72
  Q 1193.06 455.12 1196.23 454.53
  Q 1199.61 453.90 1205.48 455.96
  A 0.99 0.97 -42.6 0 0 1206.09 455.98
  L 1207.79 455.47
  A 0.98 0.97 47.6 0 1 1208.44 455.50
  L 1211.56 456.74
  A 1.01 1.00 38.5 0 0 1212.50 456.64
  C 1214.43 455.31 1216.46 456.64 1218.72 455.34
  A 1.00 1.00 0.0 0 1 1219.73 455.35
  L 1220.38 455.74
  A 1.04 1.01 55.5 0 0 1221.04 455.87
  Q 1222.69 455.63 1224.17 456.17
  C 1227.84 457.51 1231.73 457.49 1235.16 459.21
  C 1237.90 460.58 1240.64 461.76 1243.13 463.58
  Q 1249.05 467.90 1255.01 472.17
  C 1260.27 475.95 1264.23 484.57 1266.35 490.21
  Q 1266.52 490.65 1266.84 490.77
  A 0.52 0.51 -76.5 0 1 1267.17 491.32
  Q 1266.88 493.38 1266.59 495.44
  C 1266.23 497.97 1264.80 500.35 1264.36 503.06
  C 1263.67 507.33 1261.30 511.22 1259.53 515.11
  Q 1254.89 525.31 1247.22 533.49
  Q 1244.95 535.90 1243.82 539.02
  C 1241.72 544.80 1234.26 547.32 1228.93 550.22
  C 1224.65 552.54 1220.46 552.07 1216.33 553.28
  Q 1210.50 555.00 1208.54 555.34
  Q 1207.81 555.48 1207.28 555.22
  Q 1204.68 553.94 1207.57 553.70
  Q 1209.23 553.57 1210.83 553.48
  C 1212.01 553.42 1213.63 552.43 1212.19 551.25
  A 1.00 0.98 57.7 0 0 1211.34 551.05
  C 1210.53 551.24 1200.02 552.91 1201.53 550.34
  A 0.64 0.64 0.0 0 0 1201.21 549.42
  Q 1193.85 546.61 1188.32 540.93
  A 1.02 1.00 33.5 0 1 1188.10 539.88
  C 1190.74 532.85 1199.71 528.11 1205.68 523.93
  C 1208.88 521.69 1210.66 517.82 1212.40 515.68
  Q 1219.24 507.24 1225.32 498.24
  A 1.00 0.98 -31.5 0 0 1225.48 497.61
  Q 1225.33 495.57 1223.75 495.48
  Q 1215.35 495.00 1206.98 494.15
  C 1205.59 494.01 1203.70 494.42 1201.90 493.55
  Q 1201.66 493.44 1201.40 493.46
  L 1195.77 493.83
  A 1.02 1.00 -15.3 0 1 1194.81 493.29
  Q 1193.93 491.54 1192.87 492.88
  A 1.00 0.97 -68.3 0 1 1192.02 493.26
  Q 1190.07 493.14 1188.13 493.22
  C 1186.49 493.29 1185.14 494.66 1183.40 492.99
  A 1.01 1.01 0.0 0 0 1182.28 492.81
  L 1180.52 493.64
  A 1.00 1.00 0.0 0 1 1179.54 493.57
  Q 1178.45 492.86 1177.78 493.85
  A 1.02 0.99 -82.2 0 1 1177.31 494.22
  Q 1174.67 495.23 1171.99 494.63
  A 0.99 0.96 -54.3 0 0 1171.22 494.77
  Q 1170.38 495.33 1169.36 495.27
  A 1.02 1.01 14.1 0 0 1168.40 495.84
  Q 1163.74 505.68 1160.68 510.17
  C 1157.50 514.84 1155.96 518.82 1151.94 522.05
  A 1.00 1.00 0.0 0 1 1150.41 521.70
  L 1149.57 519.93
  A 1.01 1.01 0.0 0 0 1148.68 519.36
  Q 1146.76 519.32 1145.49 518.05
  A 1.02 1.01 26.1 0 1 1145.20 517.21
  Q 1145.64 513.93 1142.40 514.52
  A 1.01 0.98 -76.6 0 0 1141.76 514.93
  Q 1139.82 517.73 1140.00 514.36
  A 0.99 0.99 0.0 0 0 1139.51 513.44
  Q 1137.99 512.55 1136.97 513.54
  A 1.00 0.99 41.1 0 1 1135.69 513.62
  Q 1133.86 512.30 1136.14 510.59
  A 0.33 0.30 74.1 0 0 1136.27 510.33
  C 1136.28 508.78 1133.84 511.75 1133.76 511.85
  A 0.99 0.99 0.0 0 1 1132.46 512.10
  L 1130.55 510.97
  A 1.00 1.00 0.0 0 1 1130.28 509.48
  Q 1133.24 505.81 1131.88 501.33
  A 1.01 1.01 0.0 0 0 1131.06 500.63
  Q 1125.26 499.87 1119.87 502.24
  A 1.01 1.00 74.7 0 0 1119.28 503.28
  C 1120.12 510.06 1121.05 516.76 1122.88 523.15
  C 1123.85 526.50 1122.18 528.82 1125.26 531.47
  A 1.00 0.99 17.3 0 1 1125.61 532.13
  Q 1125.91 535.41 1127.01 538.46
  C 1127.99 541.17 1127.61 543.85 1129.44 546.52
  Q 1129.59 546.74 1129.61 547.00
  Q 1130.12 552.76 1132.89 557.73
  C 1134.21 560.08 1134.15 561.78 1134.58 564.29
  C 1134.94 566.38 1136.41 569.02 1136.24 571.87
  A 1.03 1.02 29.5 0 0 1136.42 572.51
  Q 1138.41 575.32 1139.19 578.60
  C 1139.74 580.91 1141.07 582.83 1141.18 585.42
  A 1.01 1.00 -71.1 0 0 1141.52 586.13
  L 1143.18 587.57
  A 0.99 0.98 -65.2 0 1 1143.51 588.48
  C 1142.62 594.06 1146.41 593.88 1147.45 598.18
  Q 1148.04 600.61 1148.62 601.65
  Q 1153.54 610.44 1159.42 624.99
  Q 1164.46 637.46 1162.36 649.17
  Q 1162.32 649.39 1162.20 649.57
  L 1160.82 651.57
  A 1.01 0.99 -38.5 0 0 1160.71 652.48
  Q 1161.29 654.07 1160.19 655.04
  A 0.99 0.98 -55.7 0 1 1159.20 655.23
  L 1156.47 654.26
  A 1.00 1.00 0.0 0 0 1155.25 654.74
  Q 1154.15 656.84 1151.82 653.16
  A 1.01 1.00 -18.8 0 0 1150.87 652.70
  L 1146.76 653.11
  A 0.99 0.98 67.5 0 1 1145.88 652.74
  C 1145.83 652.68 1142.89 647.93 1142.63 648.38
  A 0.53 0.51 -55.4 0 0 1142.74 649.02
  Q 1143.62 649.79 1143.05 650.84
  A 0.99 0.98 41.5 0 0 1143.12 651.92
  Q 1143.83 652.88 1143.18 652.51
  A 0.63 0.63 0.0 0 0 1142.36 652.67
  C 1141.37 653.91 1138.76 650.21 1137.65 649.52
  A 0.81 0.80 -63.6 0 0 1136.48 649.92
  L 1136.37 650.23
  Q 1136.01 651.18 1135.61 650.24
  Q 1134.91 648.61 1133.91 649.62
  A 1.01 1.00 48.6 0 1 1132.41 649.52
  Q 1130.34 646.85 1130.34 643.49
  Q 1130.33 643.23 1130.21 643.00
  Q 1129.29 641.38 1129.50 639.50
  A 1.01 0.99 13.3 0 0 1128.84 638.45
  Q 1127.43 637.94 1128.78 637.05
  A 0.64 0.64 0.0 0 0 1128.93 636.12
  Q 1128.56 635.64 1128.01 636.09
  A 0.80 0.80 0.0 0 1 1126.79 635.83
  L 1125.58 633.44
  A 1.01 1.00 56.3 0 1 1125.82 632.23
  L 1126.79 631.39
  Q 1127.48 630.80 1126.61 630.52
  C 1125.61 630.19 1125.43 632.38 1124.47 631.26
  A 0.84 0.82 -61.6 0 1 1124.29 630.64
  Q 1124.51 628.74 1122.47 626.80
  Q 1122.32 626.66 1122.24 626.47
  Q 1121.12 623.82 1119.12 621.70
  Q 1118.97 621.55 1118.90 621.35
  L 1116.29 614.06
  Q 1116.20 613.81 1116.25 613.55
  C 1116.74 610.72 1114.71 610.31 1113.79 608.68
  Q 1112.39 606.19 1112.31 603.25
  A 1.04 1.03 -61.9 0 0 1112.16 602.75
  Q 1109.88 599.07 1108.59 595.01
  C 1108.33 594.18 1107.62 594.00 1107.30 593.28
  Q 1103.85 585.32 1103.39 582.81
  C 1102.94 580.36 1101.95 578.43 1101.71 576.42
  C 1100.75 568.29 1097.08 560.02 1094.44 552.31
  Q 1093.77 550.34 1093.55 548.27
  A 1.00 0.98 -72.1 0 0 1093.24 547.65
  Q 1091.78 546.26 1092.61 544.34
  A 1.01 0.98 45.8 0 0 1092.61 543.53
  Q 1091.06 540.13 1091.03 535.49
  Q 1091.03 534.51 1090.04 533.61
  A 1.06 1.02 -77.5 0 1 1089.76 533.15
  C 1088.31 528.09 1088.48 523.08 1086.96 518.15
  Q 1086.38 516.27 1086.11 514.29
  A 1.00 1.00 0.0 0 0 1084.94 513.44
  Q 1082.08 513.99 1079.54 515.20
  Q 1076.66 516.57 1074.62 517.01
  Q 1067.89 518.47 1061.44 520.80
  C 1057.59 522.19 1052.62 525.39 1047.52 526.59
  Q 1045.66 527.03 1046.13 525.94
  Q 1046.49 525.09 1045.67 525.53
  Z
  M 1182.90 490.49
  Q 1184.18 491.42 1185.56 490.23
  Q 1187.41 488.63 1184.97 488.47
  Q 1182.74 488.33 1180.67 489.08
  A 0.80 0.79 71.9 0 0 1180.18 490.06
  Q 1180.53 491.23 1181.78 490.45
  A 1.01 0.99 -42.5 0 1 1182.90 490.49
  Z
  M 1193.73 489.37
  C 1191.56 489.00 1196.65 492.13 1194.29 489.67
  A 1.04 1.02 -16.4 0 0 1193.73 489.37
  Z
  M 1126.27 498.12
  Q 1128.19 498.78 1129.55 497.50
  Q 1131.08 496.09 1129.00 496.12
  Q 1127.60 496.14 1126.26 496.61
  Q 1124.10 497.38 1126.27 498.12
  Z
  M 1062.02 515.33
  Q 1061.08 516.43 1062.96 516.24
  A 0.33 0.33 0.0 0 0 1063.22 515.78
  L 1063.09 515.49
  A 0.64 0.64 0.0 0 0 1062.02 515.33
  Z
  M 1216.66 550.44
  Q 1218.18 550.60 1219.37 550.14
  C 1219.87 549.94 1220.16 549.44 1220.00 548.93
  A 0.65 0.64 88.1 0 0 1219.56 548.51
  Q 1217.94 548.07 1216.48 548.49
  Q 1211.58 549.90 1216.66 550.44
  Z
  M 1128.90 631.48
  C 1127.86 628.63 1127.81 632.48 1128.72 631.98
  A 0.42 0.41 65.3 0 0 1128.90 631.48
  Z
  M 1132.14 640.71
  Q 1133.42 641.54 1133.12 638.90
  Q 1132.88 636.83 1131.41 638.30
  Q 1130.66 639.06 1130.28 640.04
  Q 1129.89 641.06 1130.92 640.71
  L 1131.27 640.60
  A 1.00 0.99 51.9 0 1 1132.14 640.71
  Z"
/>
<path fill="#0f0d0c" d="
  M 816.75 638.25
  Q 817.71 638.40 818.14 637.73
  A 1.00 0.99 -73.3 0 1 819.00 637.26
  Q 820.26 637.29 819.50 636.37
  A 0.99 0.98 -30.1 0 0 818.38 636.08
  Q 816.82 636.68 816.75 638.25
  Q 814.35 638.26 812.84 636.53
  A 0.65 0.64 63.5 0 1 813.19 635.48
  Q 813.99 635.31 814.63 635.99
  A 1.04 1.01 -20.9 0 0 815.38 636.31
  C 819.72 636.21 816.52 634.17 815.21 633.85
  Q 813.23 633.38 811.26 633.05
  A 0.99 0.98 25.9 0 0 810.37 633.35
  C 807.11 636.81 800.22 631.02 795.30 627.66
  A 1.01 0.99 21.9 0 1 794.87 626.68
  Q 795.19 624.63 794.06 625.34
  A 1.00 1.00 0.0 0 1 792.76 625.13
  Q 789.68 621.46 784.96 620.13
  A 0.64 0.64 0.0 0 1 784.50 619.50
  L 784.50 619.18
  A 1.01 1.01 0.0 0 0 784.09 618.35
  C 783.55 617.96 776.96 612.28 777.69 616.07
  A 1.03 1.02 57.0 0 1 777.53 616.84
  C 776.28 618.63 779.05 618.53 778.43 619.17
  A 0.27 0.26 38.6 0 1 778.09 619.20
  Q 774.30 616.59 772.58 612.45
  C 772.11 611.31 771.79 611.06 770.83 610.42
  A 1.07 1.05 5.1 0 1 770.48 610.01
  L 766.08 600.57
  A 1.01 0.98 -51.1 0 1 766.02 599.90
  Q 767.23 595.26 764.20 591.93
  A 1.08 1.03 18.9 0 1 763.95 591.45
  C 763.33 588.14 761.79 585.30 761.80 581.97
  C 761.82 575.76 761.45 569.43 761.89 563.25
  C 762.23 558.51 761.77 554.88 762.78 548.11
  A 0.97 0.95 -20.2 0 1 763.04 547.57
  C 765.03 545.47 765.16 543.42 764.11 540.59
  Q 760.37 530.56 765.71 521.02
  A 0.97 0.96 59.5 0 0 765.84 520.50
  Q 765.56 513.06 770.11 507.23
  A 1.07 1.03 66.3 0 0 770.32 506.66
  C 770.88 495.24 776.25 484.33 783.29 475.51
  Q 785.17 473.16 783.20 471.08
  L 780.31 468.05
  A 1.00 1.00 0.0 0 0 779.14 467.85
  L 778.73 468.05
  Q 777.88 468.48 778.71 468.95
  Q 781.59 470.61 778.01 471.73
  Q 777.01 472.04 775.67 471.58
  A 0.99 0.99 0.0 0 0 774.42 472.15
  Q 773.82 473.64 772.26 472.91
  A 0.99 0.97 10.1 0 1 771.69 472.11
  Q 771.49 470.24 769.92 470.94
  C 765.66 472.84 761.83 472.70 758.39 469.49
  Q 755.77 467.05 752.16 466.13
  A 1.00 0.98 -50.2 0 0 751.48 466.20
  Q 749.12 467.33 748.72 464.91
  A 1.01 1.00 1.8 0 0 747.95 464.10
  Q 745.79 463.62 744.62 461.74
  A 1.00 0.96 -53.0 0 1 744.52 460.92
  C 746.34 454.92 749.36 450.32 755.09 447.19
  Q 765.93 441.26 776.97 435.75
  C 778.53 434.97 780.12 433.00 782.76 432.80
  Q 783.02 432.78 783.24 432.63
  C 786.18 430.65 789.17 430.56 792.06 428.49
  Q 792.26 428.34 792.52 428.31
  Q 796.81 427.78 800.32 425.38
  A 1.07 1.04 -62.9 0 1 800.82 425.21
  Q 805.82 424.87 809.61 421.88
  A 1.03 0.97 -64.9 0 1 810.17 421.66
  C 814.07 421.43 815.10 419.51 818.10 418.56
  C 821.78 417.41 824.92 415.24 827.72 412.62
  A 0.98 0.96 21.8 0 1 828.37 412.35
  Q 834.06 412.19 838.65 409.37
  A 1.01 1.01 0.0 0 1 839.88 409.51
  L 842.03 411.64
  A 0.95 0.94 67.8 0 0 842.71 411.93
  Q 845.51 411.99 848.08 413.14
  A 1.01 0.99 -83.8 0 1 848.66 413.87
  C 849.16 416.61 853.98 416.37 855.73 416.43
  A 1.00 0.99 -5.8 0 1 856.66 417.18
  Q 857.69 421.17 861.19 423.06
  Q 863.10 424.08 862.36 426.46
  L 858.61 438.53
  A 0.80 0.80 0.0 0 1 858.08 439.05
  Q 857.54 439.22 857.46 439.79
  A 0.80 0.78 -3.4 0 1 856.86 440.45
  Q 854.93 440.93 856.21 442.70
  A 1.00 1.00 0.0 0 1 856.24 443.84
  Q 854.91 445.85 853.22 447.46
  C 845.69 454.62 837.77 461.76 831.20 469.58
  C 826.97 474.61 823.22 481.57 818.93 487.43
  Q 818.46 488.07 816.96 489.21
  A 1.02 1.00 77.6 0 0 816.60 489.78
  C 815.29 495.40 811.63 499.35 809.31 503.07
  C 807.53 505.93 807.53 509.48 806.45 512.32
  C 804.88 516.43 804.00 519.52 803.53 524.32
  C 803.30 526.69 802.21 528.54 802.25 530.94
  C 802.34 536.80 800.81 542.10 800.75 547.91
  C 800.71 551.77 799.78 555.29 799.94 559.11
  Q 800.18 564.42 799.72 569.71
  C 799.24 575.20 800.69 580.44 801.62 585.74
  A 1.04 1.01 -73.6 0 0 801.90 586.27
  L 802.27 586.65
  A 0.41 0.37 -70.0 0 1 802.38 586.93
  L 802.46 591.62
  A 1.00 0.99 23.2 0 0 802.74 592.31
  Q 805.67 595.28 806.59 599.30
  A 1.02 1.02 0.0 0 0 807.06 599.94
  C 814.78 604.54 821.52 606.69 829.89 602.37
  C 831.99 601.28 833.43 599.16 836.23 598.30
  Q 836.48 598.23 836.67 598.03
  C 839.33 595.23 842.10 593.98 845.41 590.42
  Q 847.21 588.48 849.01 585.63
  C 853.32 578.82 858.50 572.61 863.71 565.51
  Q 867.46 560.39 874.15 547.60
  C 881.86 532.86 887.71 516.51 893.70 500.82
  Q 895.37 496.44 895.92 492.04
  C 896.91 484.11 896.53 474.06 902.47 467.07
  C 906.35 462.51 909.31 457.58 913.62 453.56
  A 1.01 1.01 0.0 0 1 915.17 453.79
  L 916.14 455.44
  A 1.01 1.00 66.5 0 0 917.29 455.90
  C 920.47 454.95 923.13 456.81 925.88 458.88
  A 0.98 0.97 -36.1 0 0 926.80 459.02
  C 929.73 458.02 932.16 460.40 933.58 462.67
  A 1.02 1.01 82.1 0 0 934.13 463.09
  C 939.85 464.87 938.22 472.98 938.37 477.58
  Q 938.62 485.04 939.04 492.50
  C 939.12 493.97 938.38 495.19 938.85 496.89
  Q 940.14 501.53 942.19 505.90
  Q 942.31 506.13 942.29 506.40
  L 942.01 510.02
  A 1.01 1.00 -72.2 0 0 942.49 510.96
  Q 946.28 513.23 945.95 517.83
  A 0.98 0.97 -72.4 0 0 946.42 518.75
  Q 948.28 519.91 947.81 522.22
  Q 947.80 522.28 947.93 523.06
  Q 948.22 524.76 949.90 525.29
  A 1.00 0.99 -81.1 0 1 950.60 526.26
  L 950.54 530.82
  A 0.98 0.98 0.0 0 0 950.93 531.62
  C 952.13 532.56 951.63 533.86 951.94 534.85
  C 953.73 540.59 959.27 545.70 963.36 550.37
  C 964.92 552.15 966.16 555.18 968.81 556.92
  A 1.00 0.99 33.8 0 1 969.09 558.32
  C 966.92 561.49 967.92 567.51 964.41 568.39
  A 0.99 0.98 87.0 0 0 963.67 569.22
  C 963.16 572.80 959.35 572.19 956.64 571.46
  A 1.00 0.99 32.3 0 0 955.73 571.66
  Q 953.37 573.65 951.39 572.14
  Q 950.10 571.14 951.68 570.73
  Q 951.87 570.68 952.04 570.59
  Q 953.38 569.94 951.98 569.42
  L 945.93 567.17
  A 1.03 1.02 -7.2 0 1 945.46 566.81
  Q 944.87 565.97 943.88 565.97
  A 1.00 1.00 0.0 0 1 942.94 565.31
  C 942.67 564.57 942.37 564.45 941.57 564.40
  C 939.02 564.26 937.11 562.42 935.39 561.65
  Q 928.38 558.48 921.81 554.51
  Q 920.96 554.00 921.03 554.99
  Q 921.10 555.86 922.07 556.01
  A 1.02 1.01 1.2 0 1 922.92 556.89
  L 923.12 558.82
  Q 923.29 560.35 921.94 559.60
  Q 921.14 559.16 922.01 558.00
  A 0.64 0.64 0.0 0 0 921.91 557.13
  Q 921.34 556.66 921.03 557.31
  A 0.80 0.80 0.0 0 1 919.88 557.65
  Q 918.69 556.90 918.37 555.41
  A 1.00 0.98 14.5 0 0 918.04 554.86
  Q 915.73 552.92 914.30 550.29
  Q 913.33 548.53 912.82 550.47
  Q 911.55 555.29 908.90 559.49
  Q 907.96 560.98 907.21 563.37
  C 906.34 566.16 904.14 568.44 903.03 570.64
  C 898.20 580.25 893.87 586.24 889.02 593.55
  C 887.83 595.34 885.62 597.58 884.42 599.83
  C 883.38 601.78 880.04 606.39 878.47 607.88
  C 875.75 610.47 874.12 613.76 871.74 616.65
  Q 871.58 616.85 868.77 619.28
  C 867.14 620.70 866.96 622.44 865.55 623.76
  C 859.14 629.71 851.37 633.05 844.51 638.36
  A 1.01 0.98 32.4 0 1 843.65 638.54
  Q 842.06 638.12 841.10 639.24
  A 1.01 1.01 0.0 0 1 840.17 639.58
  L 838.30 639.25
  A 0.99 0.98 29.3 0 0 837.49 639.47
  Q 836.01 640.69 833.82 640.14
  Q 828.43 638.80 822.44 639.17
  A 0.82 0.81 71.9 0 1 821.70 638.79
  C 820.67 637.10 825.54 637.53 826.06 637.57
  A 0.64 0.64 0.0 0 0 826.74 636.81
  Q 826.58 636.01 825.88 636.41
  A 0.80 0.79 48.2 0 1 825.01 636.36
  Q 823.66 635.36 822.81 636.83
  Q 822.37 637.60 818.26 638.51
  Q 817.42 638.69 816.75 638.25
  Z
  M 768.15 591.44
  Q 768.08 591.78 768.13 592.12
  Q 768.39 594.24 769.12 592.23
  Q 769.26 591.83 769.15 591.40
  Q 768.57 589.24 768.15 591.44
  Z
  M 770.02 592.23
  Q 769.83 592.94 770.41 593.22
  A 0.42 0.41 -73.6 0 0 770.99 592.90
  Q 771.07 592.35 770.67 592.01
  A 0.41 0.40 -63.2 0 0 770.02 592.23
  Z
  M 775.97 613.58
  Q 777.36 613.59 775.93 612.06
  Q 775.34 611.42 775.23 612.29
  L 775.18 612.68
  A 0.80 0.80 0.0 0 0 775.97 613.58
  Z
  M 799.99 628.21
  L 800.74 628.65
  Q 803.15 630.05 801.40 627.89
  Q 800.95 627.34 800.30 627.26
  Q 797.89 626.99 799.99 628.21
  Z
  M 804.36 630.93
  C 800.80 629.56 805.91 633.50 804.90 631.43
  A 0.99 0.98 87.5 0 0 804.36 630.93
  Z
  M 807.25 633.09
  C 808.48 632.49 803.65 630.90 806.41 633.00
  A 0.83 0.80 50.3 0 0 807.25 633.09
  Z
  M 828.79 635.98
  C 828.54 636.81 830.14 637.24 830.91 637.69
  A 1.00 0.99 -49.5 0 0 832.07 637.59
  Q 832.97 636.81 834.22 637.01
  A 0.52 0.51 8.6 0 0 834.80 636.59
  C 834.95 635.76 831.52 635.56 829.62 635.42
  A 0.80 0.80 0.0 0 0 828.79 635.98
  Z"
/>
<path fill="#0f0d0c" d="
  M 527.97 453.55
  A 1.02 1.00 -64.5 0 1 528.37 454.71
  C 527.76 456.50 525.19 451.73 527.97 453.55
  Z"
/>
<path fill="#0f0d0c" d="
  M 533.25 456.25
  Q 531.29 456.03 531.69 455.03
  Q 532.11 453.98 532.62 454.99
  L 533.25 456.25
  Z"
/>
<path fill="#0f0d0c" d="
  M 207.56 459.44
  Q 208.40 459.90 207.86 460.48
  A 0.52 0.52 0.0 0 1 207.12 460.49
  L 205.90 459.28
  Q 205.15 458.53 206.20 458.41
  Q 207.01 458.31 207.56 459.44
  Z"
/>
<path fill="#0f0d0c" d="
  M 924.43 559.66
  Q 925.57 559.39 925.59 560.27
  Q 925.62 561.96 924.29 560.91
  L 923.93 560.63
  Q 923.04 559.92 924.15 559.72
  Q 924.30 559.69 924.43 559.66
  Z"
/>
<path fill="#0f0d0c" d="
  M 939.94 565.81
  Q 939.77 565.77 939.61 565.68
  Q 938.34 564.98 939.79 565.07
  Q 941.85 565.20 943.23 566.61
  Q 945.74 569.19 942.49 567.63
  Q 941.06 566.94 939.94 565.81
  Z"
/>
<path fill="#0f0d0c" d="
  M 575.69 629.63
  C 579.17 634.23 571.13 628.74 575.02 629.25
  A 1.02 1.00 73.9 0 1 575.69 629.63
  Z"
/>
<path fill="#0f0d0c" d="
  M 212.88 648.82
  Q 210.29 646.86 213.49 647.39
  Q 214.48 647.55 215.45 648.29
  Q 216.13 648.80 216.72 649.40
  Q 220.39 653.12 215.77 650.67
  Q 214.26 649.86 212.88 648.82
  Z"
/>
<path fill="#0f0d0c" d="
  M 227.97 657.87
  Q 227.03 656.45 228.45 656.88
  A 0.52 0.52 0.0 0 1 228.66 657.74
  L 228.48 657.92
  A 0.34 0.33 -38.9 0 1 227.97 657.87
  Z"
/>
<path fill="#0f0d0c" d="
  M 296.22 663.28
  Q 292.88 659.86 297.10 663.10
  Q 298.68 664.32 296.79 663.67
  Q 296.50 663.57 296.22 663.28
  Z"
/>
<path fill="#0f0d0c" d="
  M 690.99 1008.77
  Q 689.02 1007.40 687.41 1005.66
  A 0.98 0.98 0.0 0 0 686.33 1005.40
  Q 683.64 1006.40 684.78 1009.09
  A 0.99 0.99 0.0 0 0 685.65 1009.70
  Q 687.15 1009.77 686.94 1010.64
  Q 686.65 1011.84 685.90 1012.15
  A 1.01 1.00 70.0 0 1 684.56 1011.52
  L 683.03 1006.52
  A 1.07 1.05 -81.9 0 0 682.64 1005.99
  C 679.60 1003.87 681.08 999.78 681.25 996.75
  Q 681.26 996.50 681.16 996.27
  C 680.21 994.24 680.96 992.56 681.03 990.82
  Q 681.56 977.44 680.49 972.77
  Q 679.55 968.71 680.70 966.17
  A 1.04 1.04 0.0 0 0 680.77 965.59
  Q 680.43 963.62 681.55 961.97
  A 1.03 1.02 -33.9 0 0 681.70 961.21
  L 681.22 958.82
  A 0.99 0.98 51.1 0 1 681.28 958.24
  Q 681.88 956.78 681.01 955.53
  A 1.01 0.99 34.2 0 1 680.85 954.75
  Q 681.58 951.41 680.61 948.18
  A 0.95 0.92 46.8 0 1 680.62 947.57
  Q 681.59 944.76 680.80 942.00
  A 1.00 0.96 -44.0 0 1 680.82 941.42
  Q 681.76 938.53 680.83 935.63
  A 1.00 0.95 -46.4 0 1 680.83 935.02
  C 681.80 931.92 682.29 929.22 681.55 926.00
  C 681.25 924.70 681.78 923.56 681.72 922.34
  Q 680.92 906.08 679.21 889.91
  C 678.89 886.89 679.25 883.45 678.77 880.14
  A 1.06 1.03 -35.4 0 1 678.88 879.53
  L 679.38 878.59
  A 1.01 0.99 39.8 0 0 679.27 877.49
  L 676.72 874.33
  A 1.00 0.98 -55.0 0 1 676.56 873.37
  L 676.73 872.88
  A 1.00 1.00 0.0 0 0 676.38 871.75
  Q 675.13 870.82 675.68 869.34
  A 1.03 1.00 46.6 0 0 675.69 868.65
  L 674.89 866.44
  A 1.00 0.99 67.7 0 1 675.40 865.20
  Q 676.19 864.83 675.10 864.09
  A 0.98 0.97 -76.1 0 1 674.66 863.35
  L 674.03 856.49
  A 0.99 0.96 -70.6 0 0 673.75 855.88
  L 672.74 854.87
  A 1.05 1.04 21.1 0 1 672.45 854.23
  Q 672.25 851.11 671.66 848.05
  Q 671.62 847.82 671.69 847.59
  Q 672.05 846.33 671.18 845.47
  A 1.01 1.01 0.0 0 1 670.89 844.87
  L 670.40 840.21
  A 1.02 1.01 65.8 0 1 670.71 839.37
  L 673.00 837.25
  A 1.01 1.01 0.0 0 0 672.68 835.58
  L 672.36 835.46
  A 0.99 0.99 0.0 0 0 671.33 835.64
  Q 669.22 837.52 669.51 834.45
  A 1.04 1.02 -13.8 0 1 669.98 833.69
  Q 671.88 832.50 669.54 831.86
  A 0.99 0.99 0.0 0 1 668.81 830.89
  L 668.85 827.39
  A 1.04 0.98 31.3 0 0 668.71 826.88
  Q 667.38 824.58 668.33 821.99
  A 1.03 1.01 38.1 0 0 668.21 821.08
  Q 666.90 819.16 667.92 817.10
  A 1.03 1.01 -44.3 0 0 667.94 816.24
  Q 666.01 811.94 667.63 807.57
  A 1.07 1.03 -46.2 0 0 667.63 806.88
  Q 666.03 802.57 665.30 798.07
  C 664.78 794.84 665.65 791.24 665.69 787.79
  A 1.00 0.98 24.2 0 0 665.41 787.08
  Q 663.54 785.15 664.51 782.50
  Q 664.78 781.77 664.01 778.75
  C 663.61 777.16 662.77 775.97 662.73 774.34
  Q 662.54 766.56 662.56 758.78
  A 0.26 0.26 0.0 0 1 662.83 758.52
  C 662.96 758.53 664.28 762.75 664.56 763.28
  C 666.93 767.73 665.63 760.00 665.62 759.82
  A 0.95 0.94 56.3 0 1 665.73 759.24
  Q 666.84 757.14 664.70 756.53
  Q 662.81 755.99 664.65 755.32
  Q 665.23 755.10 665.86 755.32
  A 1.00 1.00 0.0 0 0 667.19 754.27
  C 666.99 752.49 667.53 750.81 668.54 749.16
  C 674.05 740.06 678.55 732.48 685.93 726.57
  A 0.99 0.99 0.0 0 1 687.40 726.83
  Q 689.99 731.06 695.11 730.47
  A 1.00 1.00 0.0 0 1 696.20 731.24
  C 697.01 734.75 697.94 737.72 697.88 741.47
  Q 697.79 746.42 698.39 751.35
  C 698.79 754.56 698.02 759.38 698.95 762.06
  Q 700.56 766.74 701.04 773.25
  Q 701.26 776.26 703.23 779.40
  A 1.01 1.00 35.1 0 1 703.36 780.13
  Q 702.09 786.33 705.30 791.89
  A 0.99 0.97 -46.7 0 1 705.32 792.85
  Q 703.10 797.11 706.97 800.74
  A 1.00 1.00 0.0 0 1 707.25 801.75
  Q 706.22 805.25 706.96 808.82
  Q 707.01 809.08 706.93 809.32
  Q 705.56 813.74 708.21 817.42
  C 709.02 818.54 709.40 819.65 708.38 820.70
  A 1.00 1.00 0.0 0 0 708.23 821.89
  Q 710.00 824.98 710.06 828.59
  A 0.96 0.91 29.4 0 0 710.22 829.11
  Q 711.98 831.89 711.09 835.00
  A 1.02 1.02 0.0 0 0 711.36 836.00
  Q 713.46 838.03 712.37 840.99
  A 1.01 1.00 36.3 0 0 712.52 841.95
  Q 713.98 843.84 713.88 846.17
  A 1.06 1.03 -63.4 0 0 714.09 846.83
  Q 715.67 848.85 715.90 851.39
  Q 715.92 851.64 715.83 851.86
  C 714.43 855.24 716.08 856.75 717.88 859.21
  A 0.98 0.97 -57.6 0 1 718.05 859.99
  Q 717.30 863.82 719.96 866.62
  A 1.00 0.96 -66.5 0 1 720.23 867.35
  C 720.10 870.21 721.69 871.81 721.58 874.26
  A 1.11 1.00 34.4 0 0 721.71 874.80
  L 723.85 878.53
  A 1.04 1.04 0.0 0 1 723.96 879.25
  L 722.81 884.25
  A 1.00 0.99 29.9 0 0 723.06 885.16
  L 724.46 886.65
  A 0.97 0.96 28.3 0 1 724.72 887.50
  Q 723.50 894.66 725.74 899.31
  Q 726.93 901.78 727.50 904.42
  A 1.00 1.00 0.0 0 0 729.14 904.96
  Q 737.97 897.10 747.03 889.54
  Q 756.35 881.77 766.65 875.40
  C 770.92 872.75 776.66 870.55 781.49 867.56
  Q 783.17 866.52 785.30 866.22
  Q 789.78 865.60 793.94 863.82
  A 1.02 0.99 -48.6 0 1 794.57 863.77
  C 799.99 865.06 807.42 870.78 811.59 874.53
  C 814.06 876.75 817.09 877.12 819.34 880.32
  C 821.55 883.47 822.43 887.91 825.31 891.54
  A 1.04 1.02 27.6 0 1 825.52 892.19
  Q 825.43 894.95 827.62 896.45
  A 0.99 0.96 -80.6 0 1 828.03 897.04
  Q 828.63 899.55 827.61 901.81
  A 1.02 1.01 34.9 0 0 827.81 902.92
  L 829.44 904.62
  A 0.98 0.98 0.0 0 1 829.68 905.58
  L 828.49 909.80
  A 0.97 0.92 46.6 0 0 828.49 910.37
  Q 830.41 916.59 828.22 922.63
  A 0.97 0.96 -46.8 0 0 828.24 923.34
  Q 830.74 929.58 828.04 935.85
  A 1.00 1.00 0.0 0 0 828.46 937.11
  C 834.68 940.70 825.87 945.30 829.04 950.76
  A 1.00 0.98 45.5 0 1 829.04 951.77
  Q 827.47 954.41 826.00 958.78
  Q 821.47 972.24 812.95 985.41
  C 810.77 988.79 809.08 993.12 805.01 996.05
  C 801.10 998.88 799.76 1003.16 795.93 1005.78
  Q 790.15 1009.74 783.71 1012.50
  Q 782.82 1012.88 782.34 1013.76
  A 0.96 0.94 -85.0 0 1 781.79 1014.23
  Q 779.15 1015.15 777.65 1017.48
  A 0.98 0.96 -83.0 0 1 777.16 1017.87
  Q 771.91 1019.85 767.24 1022.88
  A 1.00 0.94 26.5 0 1 766.70 1023.04
  L 765.83 1023.04
  A 1.02 1.02 0.0 0 0 764.86 1023.78
  C 763.52 1028.65 753.74 1029.82 749.75 1032.14
  A 1.04 1.04 0.0 0 1 749.03 1032.25
  Q 748.24 1032.08 748.08 1032.82
  A 1.02 1.01 -10.0 0 1 747.61 1033.48
  C 744.34 1035.38 741.43 1037.67 737.29 1037.38
  A 1.02 1.01 73.1 0 1 736.55 1036.98
  Q 735.32 1035.30 733.31 1035.02
  A 1.01 1.01 0.0 0 0 732.26 1035.60
  C 730.31 1039.95 727.10 1038.85 723.57 1039.78
  Q 719.87 1040.76 716.02 1040.63
  A 1.00 0.99 -15.5 0 1 715.23 1040.19
  Q 714.27 1038.78 714.99 1037.50
  Q 715.79 1036.06 714.16 1036.32
  Q 711.70 1036.71 710.20 1035.23
  C 707.91 1032.97 706.53 1032.30 703.88 1031.11
  A 1.04 1.03 -85.5 0 1 703.33 1030.46
  Q 702.86 1028.76 701.44 1027.81
  A 1.00 1.00 0.0 0 1 701.00 1026.86
  C 701.41 1023.48 697.28 1025.11 698.06 1023.20
  A 0.98 0.97 43.2 0 0 698.03 1022.37
  Q 697.28 1020.87 698.69 1016.79
  A 1.00 0.99 -65.5 0 0 698.25 1015.60
  Q 693.99 1013.10 691.24 1009.03
  Q 691.14 1008.87 690.99 1008.77
  Z
  M 667.45 776.46
  C 666.71 772.55 665.76 778.51 667.27 777.03
  A 0.65 0.64 -27.9 0 0 667.45 776.46
  Z
  M 667.22 785.67
  L 666.94 786.59
  A 1.02 1.01 29.3 0 0 667.24 787.63
  Q 668.31 788.58 668.99 787.28
  A 1.02 0.98 -42.1 0 0 669.05 786.47
  L 668.74 785.63
  Q 667.91 783.39 667.22 785.67
  Z
  M 668.98 807.27
  Q 669.34 807.66 669.75 807.76
  A 0.80 0.80 0.0 0 0 670.74 807.10
  Q 671.13 804.36 670.43 801.68
  Q 669.73 798.95 669.43 801.75
  Q 669.27 803.29 669.48 804.83
  A 1.02 1.00 -24.8 0 1 669.14 805.72
  Q 668.26 806.48 668.98 807.27
  Z
  M 671.98 812.80
  C 671.08 810.17 671.10 816.41 671.99 813.33
  Q 672.07 813.06 671.98 812.80
  Z
  M 672.37 824.86
  C 674.22 824.43 669.20 821.11 671.53 824.53
  A 0.80 0.78 65.9 0 0 672.37 824.86
  Z
  M 673.59 827.01
  C 672.41 827.21 672.53 832.62 672.64 833.35
  A 1.01 1.00 -7.6 0 0 673.76 834.20
  Q 674.68 834.07 673.95 832.85
  A 1.03 0.97 -60.8 0 1 673.81 832.30
  L 673.97 827.35
  A 0.33 0.32 86.5 0 0 673.59 827.01
  Z
  M 680.44 875.06
  Q 681.67 876.14 681.02 878.10
  A 1.00 0.94 45.8 0 0 681.03 878.75
  Q 682.08 881.69 683.11 879.14
  A 1.04 1.01 42.6 0 0 683.06 878.29
  L 682.65 877.54
  A 1.02 1.01 51.4 0 1 682.77 876.41
  Q 684.17 874.80 681.53 871.06
  A 1.01 1.00 55.6 0 0 680.17 870.80
  Q 677.53 872.52 680.44 875.06
  Z
  M 755.50 943.33
  C 753.52 945.54 750.11 948.47 748.19 951.69
  Q 744.28 958.26 740.82 966.32
  C 740.22 967.74 740.56 969.85 739.60 971.71
  Q 736.49 977.73 736.40 984.44
  Q 736.38 986.22 737.91 985.31
  Q 749.90 978.20 761.35 970.27
  C 762.91 969.19 763.95 967.76 765.18 966.34
  C 767.14 964.06 770.71 962.71 772.14 960.36
  Q 776.92 952.45 779.31 940.65
  C 779.72 938.63 779.20 937.06 778.87 935.11
  C 778.35 931.96 779.72 928.94 779.13 925.59
  A 1.00 0.99 -19.8 0 0 777.65 924.90
  Q 774.04 926.97 770.60 929.32
  C 768.41 930.81 767.02 933.02 765.08 934.49
  Q 759.87 938.46 755.50 943.33
  Z
  M 721.84 1036.24
  Q 721.26 1036.20 720.67 1036.25
  A 1.00 0.99 12.5 0 0 719.88 1036.75
  Q 719.30 1037.78 720.40 1037.58
  Q 721.20 1037.44 721.92 1037.25
  Q 724.88 1036.48 721.84 1036.24
  Z"
/>
<path fill="#0f0d0c" d="
  M 876.19 824.56
  Q 873.50 822.30 869.34 815.10
  A 1.01 0.99 -54.2 0 1 869.23 814.37
  Q 870.58 808.72 876.20 804.77
  C 880.09 802.04 886.02 798.48 890.33 801.39
  Q 894.02 803.89 896.54 807.44
  C 898.18 809.77 899.96 810.43 902.20 811.88
  A 1.08 1.05 9.1 0 1 902.62 812.44
  L 903.69 816.11
  A 1.00 0.99 87.1 0 0 904.47 816.82
  Q 907.09 817.29 906.40 819.68
  Q 903.01 831.42 893.24 838.73
  Q 890.54 840.74 886.72 839.55
  Q 884.96 839.01 884.00 837.90
  Q 882.56 836.23 884.77 836.25
  L 885.03 836.25
  Q 887.08 836.27 885.83 834.64
  Q 881.55 829.08 876.19 824.56
  Z"
/>
<path fill="#0f0d0c" d="
  M 334.15 916.58
  Q 331.36 916.42 329.11 914.73
  A 0.97 0.95 -30.3 0 0 328.36 914.54
  C 322.84 915.38 323.14 902.82 324.04 899.75
  C 327.20 889.03 332.72 876.74 340.60 868.60
  C 346.96 862.03 353.22 854.91 360.50 849.95
  Q 371.54 842.42 384.08 837.59
  A 1.05 1.00 -41.3 0 1 384.87 837.62
  C 390.13 840.14 395.41 837.50 399.75 842.83
  Q 401.90 845.47 405.08 846.99
  A 1.00 1.00 0.0 0 1 405.64 847.72
  L 405.74 848.30
  A 1.01 0.95 19.7 0 0 406.00 848.81
  C 408.59 851.54 414.13 855.65 412.39 860.13
  C 411.55 862.31 402.73 876.19 398.75 876.28
  C 386.08 876.58 379.05 885.29 372.90 895.17
  Q 371.24 897.84 374.25 898.11
  Q 381.55 898.75 388.39 901.28
  A 1.00 1.00 0.0 0 0 389.39 901.11
  Q 391.81 899.03 393.59 901.45
  A 1.05 1.01 -8.8 0 0 394.12 901.82
  Q 408.14 905.94 420.34 913.69
  C 424.05 916.04 427.96 919.79 432.02 922.98
  Q 438.26 927.88 443.42 934.78
  C 446.00 938.22 450.28 942.98 452.55 948.20
  C 457.40 959.35 459.88 971.04 455.85 982.53
  Q 450.77 997.01 443.14 1010.24
  C 439.76 1016.10 434.81 1022.54 430.72 1028.71
  C 424.71 1037.76 410.16 1045.90 399.16 1050.66
  C 395.19 1052.38 393.00 1054.79 387.98 1053.48
  A 0.80 0.79 11.9 0 0 386.99 1054.12
  Q 386.87 1054.79 386.26 1054.80
  A 0.80 0.80 0.0 0 1 385.49 1053.71
  Q 385.68 1053.24 386.23 1053.23
  A 0.80 0.79 77.8 0 0 386.94 1052.12
  Q 386.06 1050.05 385.38 1052.53
  A 1.05 1.00 -12.2 0 1 385.02 1053.06
  L 381.90 1055.44
  A 1.01 1.00 -46.7 0 1 380.74 1055.48
  C 377.95 1053.64 371.42 1058.68 366.25 1054.89
  A 1.01 0.97 -34.2 0 0 365.38 1054.74
  L 364.10 1055.11
  A 1.02 1.00 -42.4 0 1 363.51 1055.09
  Q 360.58 1054.12 357.66 1054.63
  A 1.00 1.00 0.0 0 1 356.81 1054.37
  Q 354.46 1052.15 350.99 1052.52
  A 1.01 1.01 0.0 0 1 350.17 1052.23
  L 346.71 1048.71
  A 1.00 1.00 0.0 0 1 346.47 1047.71
  C 347.19 1045.44 348.58 1048.20 349.52 1048.61
  Q 351.17 1049.34 352.57 1048.39
  A 1.00 0.99 48.7 0 0 352.67 1046.81
  Q 346.57 1041.52 339.66 1037.25
  A 1.01 1.00 -47.4 0 0 338.53 1037.30
  Q 336.84 1038.57 335.48 1036.45
  A 1.02 1.01 74.7 0 0 334.70 1036.00
  Q 332.58 1035.87 331.35 1034.22
  A 1.05 0.99 -14.1 0 0 330.64 1033.82
  Q 328.75 1033.65 328.34 1031.94
  A 1.02 1.01 54.9 0 1 328.47 1031.16
  C 329.84 1029.05 327.05 1026.63 326.31 1027.44
  A 0.52 0.52 0.0 0 0 326.30 1028.13
  C 327.65 1029.66 328.78 1033.00 324.37 1031.30
  A 0.98 0.98 0.0 0 1 323.87 1030.86
  L 315.61 1016.39
  A 1.04 1.00 -56.6 0 1 315.49 1015.74
  L 316.34 1010.21
  A 0.99 0.98 1.5 0 1 317.23 1009.37
  Q 318.58 1009.24 317.44 1007.84
  A 1.00 1.00 0.0 0 1 318.03 1006.23
  Q 320.17 1005.82 321.88 1004.69
  C 324.46 1002.99 323.95 1001.54 327.99 1001.80
  Q 335.17 1002.26 338.47 1002.94
  A 0.99 0.99 0.0 0 0 339.36 1002.69
  Q 342.08 1000.10 345.64 1001.38
  A 1.08 1.04 79.9 0 1 346.08 1001.70
  Q 348.08 1004.22 351.56 1004.54
  A 1.00 0.99 32.9 0 0 352.14 1004.42
  Q 353.67 1003.56 355.16 1004.58
  A 1.02 1.01 -39.7 0 0 356.13 1004.67
  Q 358.06 1003.82 359.97 1004.94
  A 1.00 0.98 -36.2 0 0 360.72 1005.05
  L 361.42 1004.87
  A 1.00 1.00 0.0 0 1 362.52 1005.32
  Q 363.02 1006.15 363.98 1005.51
  A 1.00 0.99 40.0 0 1 364.95 1005.43
  Q 366.71 1006.22 369.25 1005.73
  C 378.50 1003.95 386.46 1002.49 392.69 994.95
  C 396.52 990.30 405.99 974.45 405.66 965.89
  C 405.45 960.49 403.68 954.63 398.38 952.14
  A 1.03 0.98 87.5 0 1 397.92 951.70
  Q 396.72 949.37 394.51 950.44
  A 1.04 1.03 36.3 0 1 393.90 950.53
  L 386.73 949.27
  Q 385.28 949.02 383.45 948.37
  Q 375.64 945.58 367.39 944.25
  A 1.07 1.00 -15.4 0 1 366.82 943.95
  Q 365.75 942.80 364.32 943.51
  A 1.05 1.03 -49.2 0 1 363.56 943.57
  Q 360.00 942.42 356.96 940.30
  A 0.99 0.99 0.0 0 0 356.36 940.12
  Q 351.35 940.26 351.38 934.80
  Q 351.38 934.61 351.31 934.43
  L 349.75 930.51
  A 1.05 1.01 -83.7 0 0 349.41 930.07
  Q 347.45 928.66 345.52 927.22
  C 344.35 926.35 342.64 924.33 340.64 923.48
  Q 340.45 923.40 340.31 923.25
  L 334.96 917.69
  Q 334.79 917.52 334.72 917.29
  L 334.62 916.94
  A 0.53 0.52 -7.3 0 0 334.15 916.58
  Z
  M 352.32 934.46
  Q 351.56 935.01 352.38 935.86
  A 0.79 0.79 0.0 0 0 353.38 935.99
  Q 354.02 935.58 353.47 934.69
  A 0.80 0.80 0.0 0 0 352.32 934.46
  Z"
/>
<path fill="#0f0d0c" d="
  M 1157.00 1011.00
  C 1156.91 1005.35 1151.90 1010.68 1157.00 1011.00
  Q 1157.98 1013.25 1156.55 1014.96
  A 1.01 1.01 0.0 0 1 1155.27 1015.17
  C 1154.17 1014.52 1153.66 1012.98 1152.91 1012.14
  Q 1149.25 1008.05 1147.38 1003.87
  A 1.03 1.01 47.1 0 1 1147.40 1003.01
  Q 1149.46 998.94 1147.11 1000.04
  A 1.00 1.00 0.0 0 1 1145.82 999.62
  Q 1144.47 997.21 1143.55 994.69
  Q 1143.33 994.07 1142.23 993.24
  A 1.01 0.97 -75.1 0 1 1141.84 992.53
  Q 1141.66 990.54 1140.11 989.21
  A 1.01 1.01 0.0 0 1 1139.79 988.19
  Q 1140.29 986.30 1138.91 984.75
  A 0.99 0.99 0.0 0 1 1138.66 984.21
  C 1138.37 982.03 1136.94 970.59 1136.05 969.47
  A 1.02 0.97 30.0 0 1 1135.84 968.76
  Q 1136.51 961.24 1136.39 953.69
  C 1136.37 952.26 1137.10 950.82 1136.36 949.07
  A 0.97 0.94 45.8 0 1 1136.36 948.28
  L 1136.72 947.44
  A 1.01 0.99 33.5 0 0 1136.48 946.30
  Q 1135.20 945.14 1136.13 943.61
  A 1.03 0.98 -32.8 0 0 1136.28 942.99
  Q 1135.69 937.06 1136.27 935.80
  C 1138.31 931.35 1138.64 925.81 1139.60 922.37
  Q 1143.25 909.28 1150.02 897.59
  C 1159.65 880.97 1177.09 867.04 1193.82 858.32
  Q 1197.15 856.58 1201.82 856.37
  Q 1202.39 856.34 1203.04 855.67
  A 0.97 0.97 0.0 0 1 1203.53 855.38
  C 1207.65 854.40 1213.26 851.05 1217.14 851.19
  Q 1220.29 851.30 1223.42 851.72
  C 1225.27 851.97 1226.48 851.42 1228.28 851.22
  A 1.00 0.99 -29.9 0 1 1229.00 851.41
  Q 1231.69 853.42 1234.96 852.78
  A 1.06 1.03 -37.1 0 1 1235.59 852.86
  C 1240.13 855.07 1244.04 854.64 1248.19 858.77
  A 1.00 0.99 68.9 0 0 1248.84 859.06
  Q 1251.43 859.20 1253.35 860.65
  C 1257.84 864.03 1263.63 867.37 1265.75 870.01
  Q 1271.46 877.14 1277.44 884.06
  C 1278.65 885.47 1278.01 887.78 1279.40 888.98
  Q 1280.76 890.16 1283.73 890.75
  A 1.02 1.01 80.3 0 1 1284.40 891.23
  L 1287.90 897.15
  A 0.96 0.92 -1.4 0 0 1288.34 897.55
  Q 1292.84 899.64 1292.33 901.58
  Q 1292.15 902.27 1292.16 902.54
  Q 1292.45 911.26 1288.55 919.03
  C 1288.07 919.98 1288.21 921.92 1287.73 923.36
  Q 1284.64 932.69 1282.23 942.21
  Q 1282.00 943.12 1282.29 946.14
  A 1.02 1.01 -28.4 0 1 1282.08 946.84
  C 1278.34 951.67 1278.00 960.32 1278.56 966.57
  A 1.02 1.00 62.5 0 1 1278.34 967.28
  Q 1275.02 971.48 1277.98 975.87
  C 1280.43 979.51 1278.49 981.65 1277.35 984.88
  A 1.00 0.99 24.3 0 0 1277.81 986.09
  L 1278.66 986.55
  A 1.01 1.00 27.2 0 1 1279.09 987.87
  Q 1278.31 989.46 1279.62 990.74
  A 1.01 1.00 34.0 0 1 1279.84 991.84
  L 1279.66 992.26
  A 1.00 0.99 28.1 0 0 1280.04 993.49
  Q 1282.35 994.99 1285.17 995.48
  Q 1285.33 995.50 1285.47 995.58
  Q 1293.01 999.65 1301.47 999.81
  C 1303.81 999.86 1310.54 1000.93 1310.76 1003.85
  A 1.01 1.01 0.0 0 0 1311.51 1004.74
  L 1315.61 1005.82
  A 1.02 0.99 2.9 0 1 1316.34 1006.61
  L 1317.15 1011.18
  A 1.01 1.00 81.0 0 0 1318.27 1012.00
  L 1319.81 1011.79
  A 1.00 1.00 0.0 0 1 1320.94 1012.86
  C 1320.59 1017.23 1316.80 1022.99 1313.11 1026.00
  A 0.98 0.96 71.0 0 0 1312.75 1026.76
  L 1312.74 1027.30
  A 1.00 1.00 0.0 0 1 1311.77 1028.29
  L 1306.09 1028.45
  A 0.80 0.80 0.0 0 0 1305.36 1029.53
  L 1305.49 1029.87
  A 0.64 0.63 -26.6 0 1 1305.23 1030.64
  C 1294.92 1037.16 1283.45 1044.59 1271.16 1043.51
  A 1.01 1.00 79.3 0 1 1270.35 1042.95
  C 1269.33 1040.85 1263.91 1044.35 1262.86 1038.33
  A 0.99 0.97 57.7 0 1 1263.02 1037.60
  Q 1264.64 1035.23 1261.92 1036.16
  A 1.01 1.01 0.0 0 1 1260.84 1035.86
  L 1258.80 1033.50
  A 1.04 0.99 25.8 0 1 1258.55 1032.84
  Q 1258.57 1030.64 1256.91 1029.72
  Q 1253.47 1027.80 1255.58 1031.13
  L 1258.35 1035.48
  Q 1259.83 1037.82 1257.19 1036.97
  Q 1255.70 1036.48 1255.23 1034.72
  A 1.03 0.96 -80.4 0 0 1254.88 1034.19
  Q 1253.95 1033.45 1252.72 1033.21
  A 1.00 0.99 -77.2 0 1 1251.95 1031.98
  Q 1252.02 1031.70 1252.20 1031.42
  A 1.04 1.03 61.9 0 0 1252.35 1030.92
  L 1252.41 1028.18
  A 1.01 1.00 16.1 0 0 1251.92 1027.30
  L 1249.21 1025.69
  A 1.03 1.00 9.1 0 1 1248.74 1025.06
  Q 1248.32 1023.20 1246.57 1022.26
  A 1.00 0.99 -40.5 0 0 1245.76 1022.20
  L 1244.21 1022.76
  A 0.98 0.98 0.0 0 1 1243.15 1022.51
  Q 1242.36 1021.68 1241.42 1022.44
  A 1.01 1.01 0.0 0 1 1240.65 1022.65
  C 1236.68 1022.07 1235.74 1024.71 1233.41 1026.31
  C 1229.04 1029.30 1225.81 1032.70 1221.73 1035.98
  C 1219.94 1037.41 1217.08 1037.98 1215.66 1040.99
  A 0.96 0.94 89.4 0 1 1215.22 1041.45
  Q 1212.66 1042.81 1209.84 1043.09
  C 1207.65 1043.31 1205.95 1044.04 1203.91 1044.49
  A 1.03 1.02 55.6 0 1 1203.13 1044.34
  Q 1201.60 1043.31 1200.09 1044.16
  A 1.01 1.00 52.8 0 1 1198.89 1043.99
  Q 1197.77 1042.86 1196.25 1044.02
  A 1.01 0.99 -56.3 0 1 1195.39 1044.20
  Q 1191.40 1043.20 1187.85 1041.02
  A 0.81 0.79 -68.7 0 1 1187.49 1040.18
  Q 1187.70 1039.11 1188.97 1039.59
  A 1.06 1.02 -2.8 0 1 1189.51 1040.06
  Q 1190.31 1041.59 1191.27 1040.34
  A 1.03 0.99 21.3 0 1 1192.18 1039.96
  L 1193.93 1040.17
  Q 1194.18 1040.20 1194.41 1040.11
  C 1199.94 1037.94 1184.45 1035.26 1183.81 1035.17
  A 1.01 0.99 75.5 0 1 1183.15 1034.77
  C 1182.00 1033.21 1181.67 1031.13 1180.28 1030.05
  C 1177.28 1027.71 1173.71 1028.58 1171.23 1025.07
  A 1.02 1.01 -20.4 0 0 1170.30 1024.65
  C 1165.19 1025.23 1159.81 1020.98 1157.32 1017.35
  A 1.00 0.98 35.7 0 1 1157.18 1016.53
  Q 1158.57 1011.40 1157.00 1011.00
  Z
  M 1235.48 888.21
  C 1239.75 890.28 1234.34 885.06 1235.06 887.70
  A 0.83 0.81 -85.1 0 0 1235.48 888.21
  Z
  M 1182.19 947.21
  Q 1182.65 951.71 1181.29 956.09
  A 1.00 1.00 0.0 0 0 1181.38 956.89
  C 1183.92 961.27 1179.74 964.31 1182.05 967.08
  A 1.02 0.99 -63.4 0 1 1182.28 967.80
  Q 1181.96 971.99 1183.28 975.94
  Q 1183.35 976.15 1183.53 977.14
  Q 1183.97 979.68 1184.65 980.94
  Q 1188.74 988.52 1193.08 995.75
  A 1.01 1.00 -25.8 0 0 1194.29 996.17
  C 1199.77 994.12 1201.98 991.10 1205.62 986.93
  C 1214.09 977.23 1219.41 965.99 1224.70 954.36
  Q 1227.78 947.57 1230.31 938.79
  C 1233.69 927.05 1237.49 915.37 1240.16 903.46
  Q 1241.24 898.68 1244.09 894.61
  A 1.00 1.00 0.0 0 0 1243.59 893.09
  C 1234.37 889.96 1225.58 889.75 1216.43 893.75
  C 1206.74 897.99 1195.54 903.83 1190.42 912.91
  Q 1190.32 913.10 1189.82 913.38
  A 1.05 1.03 -4.9 0 0 1189.39 913.88
  C 1187.27 919.19 1184.61 924.29 1183.27 929.71
  Q 1182.26 933.78 1181.39 937.87
  A 0.94 0.92 -50.5 0 0 1181.44 938.45
  C 1182.66 941.50 1181.87 944.12 1182.19 947.21
  Z
  M 1145.78 991.31
  L 1145.23 991.88
  Q 1143.45 993.77 1145.91 992.93
  Q 1146.61 992.68 1146.85 991.94
  Q 1147.72 989.25 1145.78 991.31
  Z
  M 1159.80 1016.45
  L 1158.85 1016.10
  A 0.64 0.64 0.0 0 0 1157.99 1016.79
  Q 1158.14 1017.81 1158.96 1017.63
  A 1.01 0.96 -33.7 0 1 1159.71 1017.76
  Q 1160.96 1018.55 1162.40 1018.70
  Q 1164.62 1018.92 1162.85 1017.56
  Q 1161.62 1016.60 1160.08 1016.51
  Q 1159.93 1016.50 1159.80 1016.45
  Z
  M 1244.14 1021.25
  Q 1244.27 1021.88 1244.93 1021.75
  Q 1245.86 1021.57 1245.20 1020.89
  L 1242.35 1017.98
  Q 1240.33 1015.92 1241.29 1018.64
  Q 1241.92 1020.42 1243.63 1020.74
  A 0.64 0.64 0.0 0 1 1244.14 1021.25
  Z
  M 1266.73 1036.02
  Q 1264.94 1036.01 1264.98 1037.62
  Q 1265.01 1039.28 1266.29 1038.22
  L 1267.23 1037.44
  Q 1268.92 1036.04 1266.73 1036.02
  Z"
/>
<path fill="#0f0d0c" d="
  M 137.65 1003.01
  C 136.16 1003.05 133.55 997.12 132.82 995.73
  C 129.17 988.86 126.84 977.46 126.89 971.07
  C 126.96 959.34 126.15 946.67 128.36 935.67
  C 131.97 917.57 140.09 899.91 153.55 886.99
  C 164.13 876.83 176.29 867.26 190.74 863.42
  Q 197.30 861.68 203.49 858.83
  A 0.98 0.94 -53.7 0 1 204.01 858.74
  C 209.07 859.26 214.61 858.95 219.20 859.92
  C 238.95 864.09 250.63 874.44 262.79 889.87
  C 264.27 891.74 264.45 893.94 265.98 895.92
  A 1.03 1.02 74.6 0 0 266.62 896.29
  C 271.11 896.96 271.70 900.06 273.66 903.47
  A 1.01 0.95 86.9 0 0 274.07 903.86
  L 277.31 905.53
  A 0.99 0.99 0.0 0 1 277.85 906.36
  C 278.34 915.58 274.93 923.16 272.45 931.80
  C 270.75 937.74 267.96 944.63 268.27 950.81
  A 0.99 0.97 -26.5 0 1 268.03 951.50
  C 264.66 955.54 264.40 963.44 264.60 968.06
  C 264.72 970.67 263.98 972.48 262.99 974.60
  Q 262.18 976.33 263.25 977.90
  Q 266.46 982.60 264.03 986.75
  C 263.35 987.91 263.00 989.14 264.40 989.76
  A 1.01 1.01 0.0 0 1 264.99 990.52
  L 265.84 996.10
  A 1.01 1.00 8.5 0 0 266.41 996.86
  C 268.85 998.00 271.02 998.03 273.38 999.38
  C 280.41 1003.39 287.72 1001.53 294.61 1004.63
  A 0.98 0.97 2.2 0 1 295.14 1005.20
  Q 296.29 1008.45 300.14 1007.98
  A 1.01 1.01 0.0 0 1 301.25 1008.82
  L 301.99 1013.39
  A 1.01 1.01 0.0 0 0 302.96 1014.23
  L 304.64 1014.26
  A 0.99 0.99 0.0 0 1 305.62 1015.31
  Q 305.52 1017.22 304.55 1019.05
  Q 302.24 1023.40 300.83 1025.59
  A 1.02 0.98 -85.6 0 1 300.44 1025.94
  Q 298.06 1027.14 297.40 1029.53
  A 1.01 1.00 5.7 0 1 296.50 1030.26
  C 294.57 1030.39 292.93 1030.66 291.03 1030.15
  Q 289.54 1029.75 290.23 1031.75
  A 1.01 1.00 64.7 0 1 289.81 1032.93
  Q 281.85 1037.85 273.54 1041.97
  C 268.42 1044.51 262.93 1045.46 257.33 1044.51
  A 1.09 1.05 -19.4 0 1 256.85 1044.29
  C 254.42 1042.22 249.31 1045.27 249.67 1039.21
  A 1.00 1.00 0.0 0 0 249.13 1038.26
  Q 246.27 1036.80 245.06 1033.05
  Q 244.54 1031.45 243.31 1031.38
  Q 241.35 1031.27 242.41 1032.92
  L 245.36 1037.51
  A 0.80 0.79 69.4 0 1 244.81 1038.73
  Q 244.33 1038.80 243.87 1038.59
  C 242.13 1037.79 242.53 1035.80 239.76 1034.92
  A 1.01 1.00 -79.2 0 1 239.07 1033.90
  L 239.30 1030.38
  A 1.02 0.99 22.8 0 0 238.95 1029.56
  Q 234.52 1025.74 230.86 1021.18
  C 230.30 1020.49 227.71 1019.16 229.16 1021.80
  A 1.03 1.00 -6.7 0 0 229.80 1022.29
  Q 230.66 1022.49 231.27 1023.10
  Q 232.91 1024.72 230.61 1024.46
  C 227.38 1024.10 225.16 1024.79 222.48 1026.91
  C 216.92 1031.30 211.69 1036.13 205.97 1040.29
  C 203.79 1041.88 202.56 1043.42 199.83 1044.17
  C 192.55 1046.18 183.39 1046.78 176.92 1042.37
  A 0.51 0.51 0.0 0 1 176.85 1041.59
  Q 177.58 1040.85 178.63 1042.09
  A 0.99 0.98 64.3 0 0 179.59 1042.43
  C 192.56 1039.73 174.62 1037.17 173.13 1036.83
  A 1.00 0.98 86.7 0 1 172.41 1036.18
  C 169.90 1028.82 164.24 1031.79 160.88 1027.16
  A 1.01 1.00 -20.8 0 0 159.96 1026.75
  Q 157.88 1026.98 156.48 1026.50
  Q 152.34 1025.08 149.29 1021.82
  Q 146.40 1018.74 150.37 1020.20
  Q 150.99 1020.43 151.58 1020.73
  C 152.21 1021.05 153.91 1021.20 153.03 1019.93
  A 1.04 1.01 -20.1 0 0 152.09 1019.51
  Q 151.29 1019.60 150.80 1018.95
  A 1.00 0.99 -23.5 0 0 149.81 1018.57
  Q 147.43 1019.02 147.96 1016.90
  Q 148.73 1013.80 147.03 1016.50
  Q 146.88 1016.74 146.75 1017.00
  A 1.00 1.00 0.0 0 1 145.08 1017.18
  C 142.47 1013.94 139.11 1010.18 137.88 1006.47
  A 1.06 0.99 46.0 0 1 137.87 1005.86
  L 138.43 1004.04
  A 0.79 0.79 0.0 0 0 137.65 1003.01
  Z
  M 223.29 894.94
  C 225.99 896.67 223.57 893.03 223.08 894.32
  A 0.53 0.53 0.0 0 0 223.29 894.94
  Z
  M 230.68 899.39
  C 221.96 896.51 213.29 896.17 204.72 900.11
  C 197.63 903.37 186.37 908.53 181.72 914.74
  C 176.75 921.39 169.98 936.20 171.23 945.60
  Q 172.22 953.09 170.63 960.57
  A 1.02 1.01 -53.4 0 0 170.73 961.27
  C 172.55 964.54 171.14 965.80 170.47 968.99
  A 0.98 0.95 -56.5 0 0 170.61 969.74
  Q 172.19 972.19 171.40 975.04
  A 0.99 0.94 43.6 0 0 171.43 975.66
  C 172.68 978.99 172.57 983.05 174.42 985.93
  Q 178.32 991.99 181.92 998.71
  A 1.00 1.00 0.0 0 0 183.21 999.15
  C 192.46 995.00 200.55 983.30 205.25 973.91
  C 209.91 964.59 214.54 955.51 217.47 945.32
  Q 221.25 932.16 225.13 919.04
  C 226.60 914.05 227.63 906.59 231.22 900.87
  A 1.00 1.00 0.0 0 0 230.68 899.39
  Z
  M 136.01 994.86
  L 135.78 995.36
  A 0.64 0.64 0.0 0 0 136.38 996.26
  Q 137.60 996.23 137.20 994.94
  Q 136.70 993.33 136.01 994.86
  Z
  M 146.27 1011.75
  C 145.06 1009.95 144.65 1011.76 145.74 1012.87
  Q 149.88 1017.13 146.27 1011.75
  Z
  M 251.72 1038.90
  C 251.33 1042.94 256.78 1036.21 252.33 1038.08
  A 1.00 1.00 0.0 0 0 251.72 1038.90
  Z"
/>
<path fill="#0f0d0c" d="
  M 491.42 1004.29
  L 489.20 1002.08
  A 1.00 1.00 0.0 0 0 487.53 1002.53
  Q 486.92 1004.75 488.89 1006.41
  A 0.99 0.98 28.6 0 1 489.20 1007.45
  Q 488.68 1009.26 485.36 1007.23
  A 1.01 0.98 -83.4 0 1 484.91 1006.64
  Q 482.46 997.73 478.75 989.25
  C 476.23 983.50 477.90 974.35 479.08 968.18
  C 479.72 964.89 478.61 962.17 478.80 958.76
  C 479.07 953.94 479.17 949.13 480.38 944.49
  C 486.48 921.05 500.74 903.26 518.72 887.33
  C 523.98 882.68 540.57 869.14 547.41 869.52
  A 1.11 1.06 28.6 0 0 548.03 869.35
  C 550.10 867.96 559.01 861.43 560.96 864.44
  A 1.00 1.00 0.0 0 0 562.32 864.75
  L 566.68 862.09
  A 1.00 0.99 -37.3 0 1 567.92 862.25
  Q 572.81 867.39 579.21 864.34
  A 1.01 1.00 51.6 0 1 580.26 864.47
  Q 583.58 867.11 587.69 868.06
  A 0.99 0.97 31.8 0 0 588.53 867.87
  Q 589.74 866.93 590.18 868.30
  A 1.01 1.00 81.9 0 0 591.09 868.99
  C 593.24 869.10 595.13 870.03 597.13 870.36
  Q 600.68 870.95 603.59 873.19
  A 1.00 1.00 0.0 0 0 604.22 873.39
  Q 608.03 873.35 611.71 874.48
  A 1.03 1.00 78.1 0 1 612.21 874.82
  Q 613.89 876.97 616.55 877.42
  C 618.80 877.81 619.61 879.20 621.53 879.68
  C 623.97 880.30 625.29 881.86 627.77 882.52
  A 0.98 0.95 -9.6 0 1 628.31 882.89
  C 630.12 885.35 632.69 885.68 634.63 887.27
  Q 638.58 890.51 642.57 893.68
  C 646.62 896.91 650.39 901.21 654.64 904.72
  C 656.86 906.55 658.10 908.92 659.11 911.45
  C 660.35 914.56 662.65 918.07 663.00 921.87
  A 1.00 0.99 1.1 0 0 663.87 922.77
  Q 669.00 923.41 665.63 927.70
  A 1.02 1.01 45.3 0 0 665.63 928.93
  Q 667.95 931.94 666.17 935.26
  A 0.51 0.51 0.0 0 0 666.63 936.01
  L 666.95 936.00
  A 0.81 0.80 4.2 0 1 667.76 936.93
  C 667.32 939.64 666.22 941.75 666.15 944.45
  Q 666.10 946.37 665.95 948.28
  A 1.05 0.99 -58.2 0 0 666.06 948.82
  Q 667.81 952.21 665.55 955.22
  A 1.04 1.04 0.0 0 0 665.35 955.89
  C 665.85 963.31 660.81 969.87 658.14 978.12
  Q 657.64 979.68 656.39 981.91
  C 644.29 1003.67 633.17 1020.69 610.19 1031.65
  Q 608.49 1032.45 602.16 1035.88
  C 593.82 1040.39 584.43 1042.65 575.25 1044.86
  A 1.01 0.99 56.7 0 1 574.41 1044.68
  C 573.18 1043.74 564.13 1047.01 560.66 1045.67
  A 1.01 1.00 43.4 0 0 559.89 1045.69
  Q 557.73 1046.66 555.73 1045.45
  A 1.01 1.00 -37.8 0 0 554.90 1045.35
  Q 552.15 1046.24 549.38 1045.30
  A 1.10 1.00 44.2 0 0 548.81 1045.28
  Q 543.78 1046.57 539.42 1043.93
  A 1.02 1.01 46.1 0 0 538.41 1043.91
  L 538.00 1044.14
  A 1.01 0.96 -49.6 0 1 537.22 1044.22
  L 524.54 1040.33
  A 1.00 0.95 76.4 0 1 524.08 1040.03
  Q 522.29 1037.96 519.65 1037.94
  A 1.02 0.99 -18.0 0 1 518.88 1037.56
  Q 516.92 1035.11 513.94 1034.09
  A 1.01 1.00 87.0 0 1 513.35 1033.55
  Q 512.17 1030.91 509.62 1029.51
  A 1.00 1.00 0.0 0 1 509.12 1028.44
  C 509.75 1025.29 505.55 1022.50 502.85 1020.56
  A 0.99 0.97 -27.1 0 0 502.24 1020.37
  C 495.64 1020.52 494.64 1014.09 493.80 1008.29
  A 1.00 0.99 10.5 0 0 493.29 1007.56
  Q 491.82 1006.75 491.72 1004.95
  A 0.99 0.98 -69.6 0 0 491.42 1004.29
  Z
  M 554.66 992.00
  L 555.57 993.66
  A 1.00 1.00 0.0 0 0 556.58 994.17
  Q 562.54 993.38 567.70 991.22
  C 573.56 988.77 579.26 987.67 584.96 985.16
  C 586.96 984.28 589.27 984.44 591.41 982.89
  C 595.10 980.21 598.88 978.04 601.60 974.40
  Q 611.26 961.49 613.49 945.25
  Q 613.54 944.89 614.40 943.32
  A 1.00 1.00 0.0 0 0 614.46 942.47
  Q 613.82 940.83 614.88 939.42
  A 1.01 1.00 -36.1 0 0 615.03 938.51
  Q 614.58 937.12 615.21 935.83
  A 1.00 1.00 0.0 0 0 615.15 934.86
  Q 614.25 933.44 615.20 932.10
  A 1.00 1.00 0.0 0 0 615.33 931.19
  C 614.37 928.45 613.87 925.48 611.67 923.48
  Q 609.01 921.06 606.89 920.62
  C 605.63 920.35 600.10 919.28 599.75 917.98
  A 1.02 1.00 5.2 0 0 599.18 917.31
  C 596.52 916.18 593.91 916.30 591.43 914.84
  Q 590.19 914.10 588.87 913.47
  Q 587.18 912.65 588.80 911.70
  L 589.81 911.11
  A 1.01 1.00 -40.2 0 0 589.95 909.48
  Q 588.55 908.30 586.89 908.88
  A 1.00 1.00 0.0 0 0 586.29 910.21
  Q 586.65 911.07 586.47 911.96
  A 1.00 1.00 0.0 0 1 585.15 912.69
  Q 581.88 911.51 578.38 911.62
  A 0.98 0.94 -24.7 0 1 577.69 911.38
  Q 576.54 910.38 575.28 911.03
  A 1.02 1.02 0.0 0 1 574.19 910.92
  Q 573.18 910.10 571.90 910.53
  A 1.00 0.99 -45.5 0 1 571.30 910.54
  C 552.97 905.12 539.92 920.63 532.04 934.75
  C 530.54 937.43 530.21 940.37 529.22 943.06
  Q 527.72 947.12 527.70 951.44
  C 527.67 955.25 527.08 957.98 526.36 961.36
  A 1.01 1.01 0.0 0 0 526.82 962.42
  Q 527.72 962.96 527.21 963.95
  A 1.00 0.94 -37.4 0 0 527.11 964.55
  C 527.60 968.05 528.83 971.38 526.09 974.52
  A 0.99 0.99 0.0 0 0 526.04 975.76
  Q 528.66 979.39 526.35 983.37
  A 1.02 1.01 44.7 0 0 526.36 984.39
  Q 528.59 988.13 532.62 989.45
  A 0.99 0.97 -8.3 0 1 533.13 989.82
  L 534.80 992.19
  Q 535.58 993.30 538.93 992.52
  Q 543.94 991.35 548.25 993.76
  A 1.00 0.99 38.9 0 0 549.40 993.64
  Q 551.18 992.07 553.56 991.51
  A 1.00 0.99 -20.7 0 1 554.66 992.00
  Z
  M 594.05 910.97
  L 593.88 911.32
  Q 593.20 912.71 594.73 912.46
  Q 596.13 912.23 594.89 910.85
  A 0.51 0.51 0.0 0 0 594.05 910.97
  Z
  M 604.16 915.51
  C 600.93 914.99 604.24 916.90 604.43 915.90
  A 0.34 0.34 0.0 0 0 604.16 915.51
  Z
  M 498.13 1015.28
  Q 499.08 1016.24 500.23 1017.06
  C 501.30 1017.81 503.33 1017.66 501.39 1015.80
  Q 500.37 1014.83 496.66 1013.93
  Q 495.14 1013.56 495.96 1014.89
  Q 496.30 1015.44 496.96 1015.10
  A 1.01 0.99 -35.7 0 1 498.13 1015.28
  Z
  M 513.21 1026.17
  C 512.87 1024.80 510.61 1023.01 511.25 1025.27
  Q 511.77 1027.10 513.65 1028.51
  Q 514.78 1029.36 514.46 1027.98
  Q 514.28 1027.24 513.59 1026.73
  A 1.00 0.99 -79.6 0 1 513.21 1026.17
  Z"
/>
<path fill="#0f0d0c" d="
  M 970.71 925.96
  C 972.34 924.24 968.67 923.98 970.09 921.69
  A 1.02 1.01 46.5 0 0 970.11 920.65
  Q 968.95 918.67 969.59 916.44
  A 1.00 0.99 40.6 0 0 969.53 915.72
  Q 967.92 912.43 967.52 908.79
  A 1.04 1.02 20.2 0 0 967.24 908.20
  Q 965.77 906.70 966.32 904.51
  A 1.01 0.93 42.7 0 0 966.27 903.89
  Q 964.24 898.86 961.98 893.96
  C 958.87 887.21 971.70 879.09 976.70 876.24
  C 986.55 870.60 995.07 880.55 1002.22 886.56
  C 1004.73 888.67 1006.07 892.08 1007.59 894.90
  C 1009.42 898.29 1011.31 899.23 1011.47 904.01
  Q 1011.63 908.31 1015.38 911.19
  A 1.00 0.99 27.1 0 1 1015.73 912.27
  L 1015.13 914.24
  A 1.01 1.00 39.4 0 0 1015.21 915.01
  L 1017.99 920.13
  A 1.00 0.98 -53.3 0 1 1018.08 920.81
  Q 1017.35 924.32 1020.23 925.78
  A 1.00 0.97 -83.2 0 1 1020.75 926.46
  L 1021.22 928.69
  A 1.03 1.01 52.4 0 1 1021.14 929.34
  L 1020.07 931.52
  A 1.02 1.02 0.0 0 0 1020.07 932.42
  L 1026.51 945.12
  A 1.05 1.02 -89.3 0 0 1026.91 945.54
  Q 1029.96 947.25 1030.29 950.78
  A 0.95 0.95 0.0 0 0 1030.49 951.30
  Q 1032.00 953.26 1033.28 951.04
  C 1037.78 943.18 1041.80 934.94 1046.77 927.68
  Q 1053.20 918.30 1059.81 909.06
  C 1062.97 904.63 1065.59 899.83 1069.36 896.19
  Q 1083.55 882.53 1102.88 877.60
  A 1.00 1.00 0.0 0 1 1104.13 878.58
  L 1104.11 881.01
  A 1.00 0.99 5.5 0 0 1104.93 882.00
  Q 1109.74 882.90 1111.01 887.62
  A 0.98 0.97 4.5 0 0 1111.57 888.27
  C 1116.53 890.46 1118.09 890.06 1118.00 896.49
  A 1.02 1.00 -72.0 0 0 1118.40 897.30
  L 1120.53 898.90
  A 0.99 0.99 0.0 0 1 1120.88 899.99
  L 1119.95 903.05
  Q 1119.89 903.24 1119.76 903.40
  Q 1117.06 906.60 1113.10 912.59
  C 1111.74 914.64 1108.03 915.80 1107.53 918.20
  A 1.00 0.99 73.2 0 1 1107.28 918.67
  Q 1101.73 924.64 1099.62 928.40
  Q 1083.53 957.09 1065.75 984.77
  C 1059.99 993.74 1054.20 1001.52 1046.80 1010.26
  Q 1027.98 1032.51 1014.06 1048.56
  C 1006.31 1057.49 996.36 1065.13 987.02 1072.31
  Q 982.75 1075.59 976.74 1079.30
  C 971.18 1082.73 966.11 1086.28 960.08 1088.91
  A 0.99 0.99 0.0 0 1 959.35 1088.94
  C 957.11 1088.16 955.27 1087.45 953.85 1085.35
  C 951.94 1082.52 948.09 1080.13 948.80 1077.57
  A 0.99 0.99 0.0 0 0 948.00 1076.32
  Q 947.43 1076.23 946.89 1076.60
  A 1.00 0.99 -37.0 0 1 945.55 1076.42
  L 942.45 1072.70
  A 0.80 0.80 0.0 0 0 941.17 1072.76
  Q 940.67 1073.51 939.58 1072.97
  A 1.00 0.99 -58.9 0 1 939.22 1071.49
  C 951.33 1054.76 959.84 1037.96 974.98 1022.20
  C 987.91 1008.75 997.14 996.58 1007.83 983.28
  A 0.96 0.92 -77.6 0 1 1008.34 982.94
  Q 1011.87 981.97 1008.67 979.85
  C 1006.76 978.57 996.94 972.64 996.31 971.25
  C 995.03 968.42 999.21 973.27 998.64 970.32
  A 1.02 1.00 -75.8 0 0 998.32 969.77
  Q 995.26 967.00 991.45 965.62
  A 1.00 0.99 -74.4 0 1 990.81 964.47
  Q 991.10 963.11 990.14 961.98
  Q 989.03 960.68 989.25 962.38
  Q 989.35 963.20 989.81 963.87
  A 1.01 1.00 -37.1 0 1 989.62 965.22
  Q 989.18 965.58 989.08 966.12
  Q 988.81 967.56 987.74 966.56
  Q 986.64 965.53 985.58 964.50
  Q 984.95 963.87 983.43 961.58
  C 982.43 960.07 981.01 959.41 980.18 957.87
  Q 975.86 949.91 975.37 947.96
  Q 974.09 942.86 972.26 937.92
  C 970.88 934.16 970.74 930.58 970.44 926.73
  A 0.99 0.97 64.8 0 1 970.71 925.96
  Z"
/>
<path fill="#0f0d0c" d="
  M 872.72 917.95
  L 872.32 918.19
  A 0.98 0.98 0.0 0 1 871.19 918.11
  L 870.98 917.95
  A 2.70 0.35 87.6 0 1 870.57 915.59
  Q 870.32 911.09 873.43 910.29
  A 1.02 0.99 -79.0 0 0 874.02 909.88
  L 876.15 906.69
  A 1.00 0.98 54.2 0 0 876.28 905.84
  Q 874.57 900.20 875.56 894.32
  A 0.99 0.99 0.0 0 1 875.82 893.80
  Q 880.17 889.16 885.81 886.14
  A 1.00 0.99 40.5 0 1 886.62 886.08
  C 895.56 889.24 900.32 895.53 904.79 903.56
  C 906.83 907.23 906.80 911.52 907.30 915.62
  C 907.51 917.33 907.02 919.40 908.18 921.49
  A 1.09 1.07 33.7 0 1 908.30 922.06
  C 907.81 928.37 909.37 933.92 910.16 940.12
  A 1.00 0.99 8.7 0 0 910.74 940.90
  Q 913.73 942.25 911.52 944.96
  A 1.02 1.00 -31.4 0 0 911.31 945.79
  L 911.72 947.84
  A 0.97 0.96 -74.7 0 0 912.03 948.39
  Q 913.39 949.61 913.05 951.03
  Q 911.96 955.54 914.53 958.70
  A 1.02 0.97 -65.7 0 1 914.75 959.33
  L 914.75 965.39
  A 1.02 0.97 -62.1 0 0 914.90 965.92
  C 916.35 968.24 919.17 974.37 917.25 977.45
  A 1.02 1.02 0.0 0 0 917.13 978.20
  L 918.54 984.29
  A 1.01 1.01 0.0 0 0 918.95 984.89
  Q 921.80 986.81 919.68 989.93
  A 0.99 0.98 48.1 0 0 919.63 990.97
  C 921.05 993.54 917.90 1003.48 916.23 1005.99
  Q 913.94 1009.45 912.45 1013.31
  A 1.00 0.98 -84.5 0 1 911.71 1013.93
  Q 907.97 1014.65 908.10 1018.69
  A 1.03 1.01 71.6 0 1 907.69 1019.53
  Q 904.45 1021.89 900.39 1021.15
  A 1.00 0.98 -7.8 0 1 899.68 1020.62
  Q 899.02 1019.33 898.11 1020.08
  A 1.01 1.00 47.1 0 1 896.79 1020.03
  Q 894.31 1017.68 893.42 1014.26
  A 0.80 0.79 80.2 0 1 894.12 1013.26
  L 894.49 1013.23
  Q 896.24 1013.08 894.97 1011.86
  Q 887.94 1005.05 882.01 997.24
  C 879.76 994.27 881.07 991.47 876.31 990.42
  A 1.01 1.00 0.5 0 1 875.54 989.64
  C 875.06 987.23 873.09 982.17 873.74 980.05
  Q 873.81 979.81 873.76 979.56
  Q 873.26 977.14 873.20 974.74
  Q 873.10 970.32 872.93 969.54
  Q 871.58 963.29 870.57 957.01
  C 870.20 954.68 871.11 952.56 870.53 950.02
  A 1.00 0.96 50.1 0 1 870.57 949.44
  L 871.87 946.03
  A 0.99 0.96 44.3 0 0 871.85 945.25
  L 870.16 941.59
  A 0.99 0.97 -50.8 0 1 870.10 940.90
  Q 871.44 936.13 870.59 934.23
  Q 870.08 933.08 870.84 931.52
  A 1.01 1.01 0.0 0 1 872.23 931.09
  L 872.77 931.39
  A 1.00 0.99 23.5 0 0 874.21 930.83
  Q 875.32 927.39 874.79 923.87
  A 0.99 0.98 59.7 0 1 874.99 923.10
  Q 875.73 922.16 874.91 921.28
  A 0.97 0.94 19.0 0 1 874.66 920.79
  L 874.22 918.61
  A 1.00 1.00 0.0 0 0 872.72 917.95
  Z
  M 872.06 915.08
  Q 871.71 916.19 872.61 915.97
  A 0.51 0.51 0.0 0 0 872.93 915.21
  L 872.80 915.00
  Q 872.34 914.22 872.06 915.08
  Z
  M 874.53 942.05
  Q 874.81 942.54 875.17 942.84
  Q 876.65 944.07 876.20 942.20
  Q 875.70 940.11 874.32 938.49
  A 0.99 0.98 25.6 0 1 874.08 937.82
  L 874.16 934.75
  A 0.24 0.16 -88.4 0 0 874.00 934.50
  L 873.72 934.50
  A 0.41 0.41 0.0 0 0 873.31 934.91
  C 873.31 936.34 872.93 940.92 874.18 941.68
  Q 874.41 941.82 874.53 942.05
  Z
  M 876.26 967.01
  Q 877.42 966.13 876.37 965.89
  A 0.51 0.50 -82.0 0 0 875.75 966.36
  L 875.73 966.73
  Q 875.70 967.43 876.26 967.01
  Z
  M 877.45 969.01
  Q 876.94 969.35 877.53 970.31
  A 0.63 0.63 0.0 0 0 878.26 970.58
  Q 878.96 970.37 878.38 969.25
  A 0.64 0.64 0.0 0 0 877.45 969.01
  Z
  M 877.91 979.36
  A 0.81 0.80 19.0 0 0 876.78 979.91
  C 876.26 982.36 880.04 980.37 877.91 979.36
  Z
  M 878.73 986.21
  Q 880.70 988.10 880.41 985.38
  Q 880.29 984.30 879.65 983.50
  Q 878.14 981.65 877.88 984.03
  Q 877.74 985.27 878.73 986.21
  Z
  M 897.39 1017.13
  C 901.14 1020.10 899.04 1014.81 896.60 1013.79
  A 1.00 1.00 0.0 0 0 895.23 1014.53
  Q 895.08 1015.33 895.86 1015.32
  A 0.99 0.98 -4.8 0 1 896.87 1016.17
  Q 896.96 1016.79 897.39 1017.13
  Z"
/>
<path fill="#0f0d0c" d="
  M 873.46 906.53
  C 875.36 907.56 870.46 909.79 872.12 906.92
  A 1.00 1.00 0.0 0 1 873.46 906.53
  Z"
/>
<path fill="#0f0d0c" d="
  M 330.33 918.63
  Q 329.29 918.58 328.88 917.89
  Q 328.33 916.98 329.38 917.11
  Q 332.56 917.51 334.54 919.95
  A 1.00 0.99 65.5 0 1 333.94 921.56
  Q 331.73 921.96 331.26 919.44
  A 0.98 0.98 0.0 0 0 330.33 918.63
  Z"
/>
<path fill="#0f0d0c" d="
  M 348.08 936.81
  Q 347.00 936.18 346.96 934.98
  Q 346.92 933.55 348.16 934.26
  Q 349.15 934.84 349.27 936.04
  Q 349.42 937.58 348.08 936.81
  Z"
/>
<path fill="#0f0d0c" d="
  M 989.95 969.07
  A 0.80 0.80 0.0 0 1 989.90 967.72
  Q 991.16 966.84 991.92 968.69
  A 1.01 1.01 0.0 0 0 992.46 969.23
  L 993.83 969.80
  A 0.81 0.80 -58.0 0 1 994.12 971.07
  Q 993.32 971.99 992.70 970.18
  A 1.00 1.00 0.0 0 0 991.73 969.51
  Q 990.76 969.53 989.95 969.07
  Z"
/>
<path fill="#0f0d0c" d="
  M 699.47 1027.72
  Q 699.84 1026.71 700.48 1027.60
  Q 700.91 1028.21 700.17 1028.25
  L 699.88 1028.27
  A 0.41 0.41 0.0 0 1 699.47 1027.72
  Z"
/>
<path fill="#0f0d0c" d="
  M 1179.94 1035.56
  C 1179.38 1035.09 1175.18 1030.29 1176.92 1030.25
  A 0.81 0.81 0.0 0 1 1177.57 1030.55
  L 1181.35 1035.32
  Q 1182.79 1037.13 1180.72 1036.10
  Q 1180.36 1035.92 1179.94 1035.56
  Z"
/>
<path fill="#0f0d0c" d="
  M 169.44 1037.31
  Q 167.26 1035.63 166.10 1033.11
  Q 164.60 1029.86 166.95 1032.56
  L 170.75 1036.92
  Q 171.85 1038.19 170.23 1037.75
  Q 169.88 1037.66 169.44 1037.31
  Z"
/>
</svg>
