<?xml version="1.0" encoding="UTF-8" standalone="no"?>
<svg
   version="1.1"
   viewBox="0 0 1295.556 482.216"
   id="svg13"
   sodipodi:docname="asobiya.svg"
   width="1295.556"
   height="482.216"
   inkscape:version="1.3 (0e150ed6c4, 2023-07-21)"
   xmlns:inkscape="http://www.inkscape.org/namespaces/inkscape"
   xmlns:sodipodi="http://sodipodi.sourceforge.net/DTD/sodipodi-0.dtd"
   xmlns="http://www.w3.org/2000/svg"
   xmlns:svg="http://www.w3.org/2000/svg">
  <defs
     id="defs13" />
  <sodipodi:namedview
     id="namedview13"
     pagecolor="#505050"
     bordercolor="#eeeeee"
     borderopacity="1"
     inkscape:showpageshadow="0"
     inkscape:pageopacity="0"
     inkscape:pagecheckerboard="0"
     inkscape:deskcolor="#505050"
     inkscape:zoom="0.57281509"
     inkscape:cx="475.72071"
     inkscape:cy="56.737332"
     inkscape:window-width="2560"
     inkscape:window-height="1369"
     inkscape:window-x="1912"
     inkscape:window-y="-8"
     inkscape:window-maximized="1"
     inkscape:current-layer="svg13" />
  <path
     fill="#0f0d0c"
     d="m 614.72111,341.20604 c -2.52,-1.09 -1.38,-6.29 -1.03,-8.42 a 1,1.04 34.8 0 0 -0.1,-0.62 l -0.7,-1.34 a 0.99,0.97 41.1 0 1 -0.06,-0.78 q 1.42,-4.18 0.3,-8.41 a 1,1.02 45.5 0 1 0.01,-0.54 q 1.15,-3.92 -0.25,-7.64 a 1,1 0 0 1 -0.03,-0.63 c 0.76,-2.64 -0.47,-4.6 -0.39,-6.83 q 0.16,-4.2 1.57,-8.82 0.25,-0.81 -0.3,-1.64 a 0.99,1.01 38.3 0 1 -0.1,-0.92 c 0.65,-1.68 -0.23,-2.86 -0.24,-4.27 q -0.05,-4.66 -0.26,-9.33 a 1.04,1.04 0 0 1 0.24,-0.69 q 0.66,-0.79 0.01,-1.64 a 1.01,0.99 33.7 0 1 -0.18,-0.86 c 0.79,-3.16 -0.19,-5.81 0.45,-8.73 0.58,-2.66 1.15,-4.56 0.54,-6.55 q -0.34,-1.09 -0.29,-2.03 c 0.44,-7.27 -0.82,-15.97 -1.14,-21.52 q -0.41,-7.42 -1.28,-14.81 c -0.32,-2.66 0.23,-5.57 -0.24,-8.47 a 0.99,0.97 57.7 0 1 0.16,-0.73 l 0.33,-0.48 a 0.99,0.99 0 0 0 -0.04,-1.17 l -2.98,-3.87 q -0.16,-0.21 -0.19,-0.46 l -2.24,-14.84 q -0.04,-0.25 0.05,-0.49 0.63,-1.75 -0.91,-2.72 a 0.96,0.98 11.8 0 1 -0.45,-0.7 l -0.93,-6.58 q -0.04,-0.24 0.04,-0.46 0.36,-1.04 -0.52,-1.83 a 0.98,0.97 18.1 0 1 -0.32,-0.62 l -0.62,-4.73 a 1.01,0.99 66.3 0 1 0.34,-0.89 l 2.51,-2.15 a 1,1 0 0 0 0.12,-1.4 q -1.01,-1.22 -2.09,-0.27 -1.86,1.63 -1.66,-0.83 0.06,-0.74 0.62,-1.47 a 0.4,0.41 29.5 0 1 0.48,-0.14 q 0.37,0.16 0.71,-0.29 a 0.64,0.65 48.9 0 1 1.08,0.07 l 0.47,0.88 a 0.8,0.8 0 0 0 1.16,0.27 q 0.76,-0.53 -0.03,-1.58 -0.48,-0.64 0,-1.29 a 0.99,0.99 0 0 0 0.1,-1.02 q -0.46,-0.97 0.18,-2.01 a 0.81,0.79 43.2 0 0 -0.04,-0.89 c -1.21,-1.66 -1.54,2.41 -1.48,3.23 a 1.01,1 68.2 0 1 -0.36,0.85 c -4.93,4.09 -2.6,-3.62 -4.1,-5.27 a 0.97,0.94 19.3 0 1 -0.23,-0.46 q -0.38,-1.78 0.22,-3.55 a 1.03,1.02 44.6 0 0 -0.01,-0.64 l -0.88,-2.56 a 1.03,1.01 57.1 0 1 0.21,-1.01 q 1.07,-1.15 -0.03,-2.32 a 0.91,0.92 18.7 0 1 -0.26,-0.53 c -0.33,-2.13 -0.75,-5.92 0.2,-7.13 a 0.99,0.99 0 0 0 0.07,-1.13 q -0.67,-1.13 -0.6,-2.57 0.01,-0.25 -0.1,-0.48 c -2.39,-4.92 -2.05,-9.99 -0.95,-15.53 a 1,1 0 0 0 -0.3,-0.93 q -1.93,-1.79 -1.3,-4.46 a 0.99,0.97 41.7 0 0 -0.04,-0.61 c -0.89,-2.17 0.12,-3.84 -1.27,-6.06 a 0.99,0.97 29.5 0 1 -0.15,-0.52 q -0.06,-7.14 -0.39,-14.250003 c -0.1,-2.13 1.34,-0.83 1.44,0.26 q 0.11,1.22 0.64,2.2 1.67,3.080003 1.5,-0.42 l -0.28,-5.78 a 1.02,1.01 12.4 0 0 -0.55,-0.85 q -3.11,-1.57 0.7,-1.39 a 1,1 0 0 0 1.04,-0.94 q 0.16,-2.42 0.9,-3.82 6.45,-12.049999 16.12,-22.729999 1.89,-2.08 4.19,0.12 2.95,2.83 6.94,2.63 a 1,0.99 79.3 0 1 1,0.69 q 1.65,5.02 1.72,8.05 0.23,10.339999 1.04,20.619999 c 0.26,3.43 1.95,7.170003 2.07,10.580003 q 0.18,5.31 2.33,9.02 a 1,0.98 33.7 0 1 0.13,0.62 c -0.16,1.38 -0.82,2.59 -0.59,3.95 q 0.69,4.08 2.46,7.79 a 1.02,1.02 0 0 1 0.05,0.74 l -0.94,2.99 a 1.01,0.96 40.4 0 0 0.08,0.78 c 2.79,5.05 1.85,8.06 2.58,12.43 q 0.04,0.25 -0.04,0.49 c -1.91,5.52 3.21,8.08 1.27,11.97 a 1,1 0 0 0 0.08,1.03 q 1.24,1.77 1.46,4.51 0.16,2.12 1.75,5.53 a 0.99,1.01 44.3 0 1 0,0.85 q -1.17,2.47 0.99,4.3 a 1.03,1.01 24.9 0 1 0.35,0.92 l -0.44,2.81 a 1,1.02 30.7 0 0 0.18,0.74 q 1.34,1.85 1.26,4.16 a 0.99,0.97 26.5 0 0 0.24,0.69 c 2.89,3.38 0.67,6.38 1.9,10.06 a 1,1 0 0 0 0.45,0.55 c 2.85,1.64 0.37,5.72 3.25,8.88 a 0.96,0.99 20.5 0 1 0.25,0.57 q 0.66,6.33 3.93,11.73 a 0.99,1.03 35.8 0 1 0.11,0.78 l -1.28,4.66 a 0.99,1 27.5 0 0 0.32,1.03 c 2.94,2.47 0.88,4.9 1.23,7.75 q 0.63,5.24 3.04,9.93 a 0.97,0.93 39.7 0 1 0.08,0.7 q -0.19,0.76 0.04,1.35 a 1,1 0 0 0 1.61,0.37 c 12.71,-11.71 26,-23.26 41,-31.94 2.3,-1.33 5.04,-1.84 7.08,-2.96 q 3.24,-1.79 5.87,-4.06 a 1.02,0.98 25.8 0 1 0.73,-0.24 q 5.18,0.4 9.61,-2.09 a 1.03,1.02 33.9 0 1 0.62,-0.12 c 6.92,0.89 15.32,9.09 21.2,12.94 5.1,3.33 6.12,7.19 8.31,12.56 a 0.99,0.94 8.9 0 0 0.33,0.43 c 2.24,1.65 1.95,5.06 4.33,7.43 a 0.98,1 26.6 0 1 0.28,0.88 l -0.72,4.07 a 0.98,0.99 30.1 0 0 0.21,0.8 l 1.49,1.83 a 0.99,0.98 34.8 0 1 0.17,0.93 q -1.38,4.37 -0.53,8.81 c 0.63,3.32 0.07,5.27 -0.82,8.22 a 1.01,1.03 40.9 0 0 0.04,0.68 q 2.37,5.6 0.11,11.21 -0.66,1.64 0.74,2.9 c 4.86,4.35 -3.22,7.72 -0.14,13.18 a 1.01,1.02 42.8 0 1 0.03,0.92 c -2.63,5.56 -4.72,12.2 -6.91,16.93 q -5.56,12.05 -12.94,23.12 c -2.21,3.31 -5.44,4.61 -7.57,7.67 -4.83,6.95 -10.17,9.67 -17.7,13.06 q -1.15,0.52 -1.85,1.62 a 1.01,1.02 7.9 0 1 -0.55,0.42 q -2.36,0.72 -3.63,2.86 a 1.03,1.01 2.9 0 1 -0.44,0.39 c -3.23,1.49 -6.19,2.74 -9.18,4.68 q -1.08,0.7 -2.41,0.81 a 1,1.02 8.4 0 0 -0.86,0.65 c -1.54,4.17 -12.12,7.32 -16.14,8.37 q -0.26,0.07 -0.45,0.26 c -3.57,3.52 -10.18,7.37 -14.42,2.44 a 1,1 0 0 0 -1.7,0.31 q -1.22,3.35 -4.71,4.26 c -0.69,0.18 -1.24,-0.3 -1.17,-1.04 a 0.33,0.33 0 0 0 -0.45,-0.34 l -0.34,0.14 a 0.25,0.26 77 0 0 -0.16,0.25 c 0.08,2.24 -7.3,1.94 -9.09,2.17 a 0.98,1.03 66.3 0 1 -0.86,-0.31 q -1.07,-1.16 -0.7,-2.52 a 1.01,1 14.2 0 0 -0.75,-1.24 l -2.63,-0.59 a 1.01,0.99 74.9 0 1 -0.51,-0.3 q -2.82,-3.04 -6.78,-4.47 a 1,1.02 86.1 0 1 -0.53,-0.45 l -1.49,-2.63 a 0.8,0.81 72.1 0 0 -0.79,-0.4 l -0.28,0.03 q -1.12,0.14 -0.66,-0.9 l 0.31,-0.68 a 1,1 0 0 0 -0.48,-1.31 q -4.81,-2.31 -0.98,-7.19 a 0.99,1 37.5 0 0 -0.18,-1.42 l -5.11,-3.8 q -0.17,-0.13 -0.27,-0.32 c -1.58,-2.84 -4.16,-3.67 -5.37,-5.91 a 0.98,1 80.7 0 0 -0.71,-0.5 c -3.07,-0.53 -4.09,3.1 -2.41,4.03 q 0.34,0.18 0.76,0.21 1.45,0.1 0.59,1.27 l -0.26,0.36 q -1.19,1.62 -1.77,-0.3 l -1.56,-5.23 a 1.02,0.99 4.3 0 0 -0.56,-0.63 z m -15.62,-229.76 q -0.86,0.63 -0.16,1.14 0.81,0.59 0.81,-0.41 v -0.4 q 0,-0.8 -0.65,-0.33 z m 0.28,10.38 q -0.55,1.68 1.06,1.69 a 1,1 0 0 0 0.96,-1.3 l -0.12,-0.38 q -0.93,-2.95 -1.9,-0.01 z m 2.34,21.61 a 1,1 0 0 0 1.36,-0.84 q 0.22,-2.38 -0.2,-4.76 -0.62,-3.5 -1.01,0.04 -0.16,1.44 -0.13,2.92 a 1.04,1.01 65.4 0 1 -0.23,0.65 q -1.18,1.44 0.21,1.99 z m 3.24,16.9 q 0.15,-0.74 -0.8,-1.36 -0.91,-0.59 -0.79,0.49 0.09,0.78 0.83,1.22 a 0.51,0.52 20.6 0 0 0.76,-0.35 z m 7.01,46.68 c -1.23,3.33 1.95,3.92 1.3,7.37 a 1,1 0 0 0 0.33,0.95 c 3.65,3.12 0.86,-3.25 1.55,-3.82 a 2.27,0.64 83.7 0 0 0.31,-1.87 q -0.15,-2.4 -2.18,-3.21 a 1,1 0 0 0 -1.31,0.58 z m 56.94,112.82 q -0.32,0.36 -0.39,0.74 -0.31,1.56 1.13,0.88 c 2.66,-1.27 4.93,-3.33 7.25,-4.63 q 8.57,-4.77 16.48,-10.57 c 3.01,-2.2 5.03,-6.1 8.44,-7.72 q 2.18,-1.04 3.23,-3.22 4.61,-9.67 6.7,-19.23 c 0.64,-2.92 -1.02,-5.3 -0.42,-8.54 q 0.71,-3.86 0.35,-5.37 c -0.83,-3.52 -2.53,-0.8 -3.9,-0.1 -6.47,3.32 -8.53,7.4 -14.51,11.11 q -2.62,1.62 -4.83,6.07 -0.11,0.24 -0.33,0.38 -6.59,4.51 -9.76,11.65 c -1.79,4.02 -3.48,6.92 -5.24,10.35 a 0.92,0.93 56.7 0 0 -0.11,0.51 c 0.13,2.61 0,4.36 -1.55,6.75 q -2.95,4.54 -2.3,10.17 a 1,0.99 62.6 0 1 -0.24,0.77 z m -14.34,52.11 q -1.21,-0.56 -2.08,0.27 -1.37,1.32 0.52,1.1 l 1.36,-0.15 q 2.27,-0.27 0.2,-1.22 z"
     id="path1" />
  <path
     fill="#0f0d0c"
     d="m 815.03111,166.81604 c -2.57,-4.13 -6.86,-5.93 -9.5,-10.19 -2.33,-3.76 -5.73,-6.14 -2.17,-11.11 q 5.77,-8.04 16.34,-9.64 a 1.03,1.08 54.3 0 1 0.57,0.08 q 5.03,2.36 8.26,6.72 c 2.65,3.58 5.91,3.86 7.47,8.48 q 0.06,0.18 0.18,0.32 l 2.4,2.87 a 1,0.97 33.9 0 1 0.19,0.91 c -2.17,7.73 -12.1,26.21 -22.25,18.64 q -2.19,-1.64 0.54,-1.8 0.83,-0.05 1.22,-0.67 a 1,1.01 38.1 0 0 -0.15,-1.27 q -2.45,-2.31 -3.1,-3.34 z"
     id="path2" />
  <path
     fill="#0f0d0c"
     d="m 316.47111,389.63604 -2.46,1.54 a 0.98,1.01 40.2 0 1 -0.89,0.09 l -1.29,-0.5 a 0.99,1.01 46.5 0 0 -0.71,-0.01 c -4.19,1.52 -8.93,2.41 -12.78,-0.12 a 0.98,1.02 54.3 0 0 -0.83,-0.12 c -2.12,0.61 -4.95,-0.34 -7.85,-0.26 a 1,0.98 65.8 0 1 -0.71,-0.28 q -1.95,-1.86 -4.74,-1.68 -0.27,0.02 -0.5,-0.1 -2.77,-1.34 -4.67,-3.77 c -1.1,-1.41 0.25,-2.46 1.5,-1.14 2.2,2.32 7.26,1.19 3.66,-1.63 q -5.9,-4.63 -12.2,-8.72 a 0.99,0.99 0 0 0 -1.24,0.12 q -1.22,1.18 -2.46,-0.49 a 0.93,0.95 82.6 0 0 -0.45,-0.34 q -3.97,-1.49 -7.2,-4.33 a 0.97,0.94 69.4 0 0 -0.51,-0.24 c -5.13,-0.81 -10.64,-12.02 -12,-15.71 q -0.59,-1.6 0.36,-3.98 a 1,0.98 46.4 0 0 0.01,-0.73 q -0.57,-1.47 0.59,-2.22 a 1.01,1.01 0 0 0 0.42,-1.13 l -0.15,-0.51 a 0.99,1 74.4 0 1 0.71,-1.25 q 4.07,-1.04 6.82,-4.21 a 0.98,0.97 20.4 0 1 0.77,-0.35 q 4.54,0.09 8.93,0.3 c 2.51,0.11 4.63,1.78 7.21,-0.82 a 1.02,0.98 17.2 0 1 0.56,-0.28 l 2.3,-0.35 a 1.01,1.01 0 0 1 0.8,0.22 q 5.26,4.47 8.14,3.11 a 0.98,0.99 53.2 0 1 1.09,0.15 q 1.08,0.97 2.44,0.28 a 1.09,1.02 34.9 0 1 0.62,-0.09 q 5.13,0.89 10.23,1.59 2.18,0.3 12.22,-2.61 c 7.75,-2.25 11.48,-5.88 15.91,-12.99 6.23,-10 13.77,-22.34 7.26,-34.08 -1.42,-2.57 -4.09,-3.66 -6.24,-5.76 a 1,1 0 0 0 -0.92,-0.26 c -2.28,0.52 -8.63,-0.27 -10.57,-1.8 a 0.99,0.98 56.6 0 0 -0.87,-0.18 q -0.76,0.19 -1.59,-0.11 -7.08,-2.54 -15.33,-3.79 a 1.02,0.99 75 0 1 -0.65,-0.39 q -0.93,-1.24 -2.41,-0.36 a 1.03,1.01 42.1 0 1 -0.95,0.04 l -7.33,-3.53 q -0.22,-0.11 -0.47,-0.1 -2.1,0.09 -3.29,-1.62 -1.15,-1.64 -1.06,-3 0.13,-1.77 -1.07,-3.91 c -0.98,-1.76 -7.98,-7.43 -9.75,-8.04 q -0.24,-0.08 -0.41,-0.26 l -5.69,-6.05 a 0.97,1.02 76.2 0 0 -0.49,-0.28 q -2.41,-0.61 -4.48,-1.96 a 0.96,0.98 61.9 0 0 -0.58,-0.17 c -6.29,0.24 -6.05,-11.84 -4.52,-16.35 q 3.83,-11.29 9.84,-21.52 c 4.1,-6.95 10.24,-12.36 16,-18.12 9.58,-9.57 21.31,-16.28 33.91,-21.11 a 1.01,1 45.4 0 1 0.76,0.01 l 2.98,1.3 a 1.02,0.95 50.7 0 0 0.53,0.07 q 8.59,-1.14 13.16,5.84 a 0.93,0.94 84 0 0 0.47,0.38 c 3.2,1.28 4.94,4.76 8.17,7.75 1.72,1.59 2.03,3.41 2.63,5.53 a 0.98,0.96 50.5 0 1 -0.06,0.71 c -3.32,6.98 -6.54,9.57 -10,14.46 q -1.87,2.64 -5.11,2.75 c -11.77,0.39 -19.64,9.94 -25.03,19.33 q -1.13,1.98 1.1,2.43 c 3.4,0.67 5.25,-0.87 8.56,1.74 a 0.98,0.99 64.8 0 0 0.62,0.22 l 2.28,-0.01 a 0.95,0.98 63.9 0 1 0.62,0.2 c 1.58,1.21 2.99,1.05 4.83,0.14 q 0.52,-0.26 1.07,-0.47 a 1,1 0 0 1 1.32,0.69 q 0.44,1.72 2.13,1.91 2.81,0.32 3.5,0.57 28.42,10.18 45.83,32.9 1.13,1.47 1.87,2.32 c 8.94,10.25 14.41,29.57 9.86,42.8 -4.51,13.12 -10.23,25.51 -18.15,37 q -6.45,9.37 -8.25,11.6 c -8.57,10.56 -24.11,18.47 -36.16,23.59 q -2.32,0.98 -5.17,0.2 a 1.01,1.01 0 0 0 -1.19,0.57 q -0.65,1.53 -1.83,-0.02 a 1,1.01 55.5 0 0 -1.33,-0.24 z m -31.0605,-117.5587 a 1.14,0.86 73.2 0 0 0.4938,-1.3399 1.14,0.86 73.2 0 0 -1.1528,-0.8427 1.14,0.86 73.2 0 0 -0.4938,1.3399 1.14,0.86 73.2 0 0 1.1528,0.8427 z m -24.6495,92.3387 q -0.51,-0.41 -0.91,-0.64 -2.49,-1.51 -0.86,0.9 l 1.14,1.68 q 0.8,1.18 1.15,-0.2 0.13,-0.51 -0.22,-1.34 -0.1,-0.24 -0.3,-0.4 z m 57.24,23.22 q -0.69,0.86 0.44,1.46 a 0.64,0.63 29.6 0 0 0.84,-0.23 q 0.44,-0.7 -0.4,-1.34 a 0.64,0.64 0 0 0 -0.88,0.11 z"
     id="path3" />
  <path
     fill="#0f0d0c"
     d="m 1089.1911,350.18604 -0.31,0.37 a 1,1 0 0 1 -1.51,0 q -4.34,-4.94 -7.6,-10.66 a 0.99,1.01 39.7 0 1 -0.07,-0.84 l 1.06,-2.85 a 0.64,0.64 0 0 0 -0.53,-0.86 q -0.58,-0.07 -0.9,0.33 a 0.63,0.64 50.6 0 1 -1.07,-0.1 l -1.89,-3.66 q -0.11,-0.22 -0.11,-0.47 0.02,-1.53 -1.38,-2.1 a 1.01,0.99 7.4 0 1 -0.61,-0.78 l -0.22,-1.46 a 0.98,0.97 15.2 0 0 -0.38,-0.66 q -1.64,-1.23 -1.28,-3.23 a 1.04,1.04 0 0 0 -0.07,-0.58 q -0.72,-1.63 -1.33,-3.3 c -0.59,-1.63 -0.18,-3.37 -1.07,-5.19 a 0.8,0.79 59.3 0 1 0.25,-1 l 0.27,-0.2 a 0.33,0.32 54.2 0 0 0.07,-0.46 q -2.08,-2.68 -1.55,-5.97 a 1,1 0 0 0 -0.26,-0.85 q -1.15,-1.2 -0.2,-2.56 a 1,0.98 58.4 0 0 0.16,-0.71 c -0.52,-3.7 0.45,-6.86 0.06,-10.55 q -0.26,-2.53 0.48,-4.99 a 0.97,0.97 0 0 0 -0.05,-0.72 q -0.76,-1.55 -0.08,-2.97 a 1,1 0 0 0 -0.25,-1.19 q -1.43,-1.24 -0.22,-2.93 a 0.98,0.97 57.6 0 0 0.17,-0.78 c -1,-5.13 1.02,-9.15 1.77,-13.19 3.59,-19.48 12.65,-37.28 27.24,-50.69 9.05,-8.33 23.31,-20.54 36.2,-22.52 q 4,-0.62 11.98,-4.24 c 2.82,-1.28 5.95,-0.53 8.91,-0.23 3.39,0.33 6.16,-0.98 9.83,1.33 a 1,0.94 54.7 0 0 0.7,0.14 c 4.29,-0.73 12.56,2.94 15.31,5.76 a 0.98,1 69.2 0 0 0.69,0.3 c 3.4,0.11 5,2.32 7.1,3.6 q 5.17,3.14 9.58,7.26 c 2.33,2.19 4.06,5.63 6.8,8.09 0.84,0.76 1.18,2.23 1.76,2.61 q 4.13,2.66 4.34,7.77 a 1,1.01 7.4 0 0 0.7,0.92 l 4.67,1.46 a 0.97,1 85 0 1 0.58,0.47 l 3.48,6.31 a 1.01,1 78.8 0 0 0.76,0.51 q 2.42,0.3 3.54,2.48 a 1.01,1.01 0 0 1 0.09,0.63 q -0.3,1.68 -0.29,4.84 0.03,5.11 -3.04,11.9 -0.53,1.16 -0.8,3.32 c -0.21,1.69 -1.1,3.2 -1.47,4.48 q -2.43,8.43 -4.82,16.88 a 1.03,1.06 40.7 0 0 0.04,0.66 c 1.41,3.37 -1.38,4.6 -2,6.96 q -1.82,6.9 -1.61,14.01 c 0.09,3.12 -1.12,4.88 -2.02,7.7 a 0.98,0.98 0 0 0 0.07,0.77 l 2.65,5.03 a 0.92,0.97 31.6 0 1 0.11,0.52 q -0.21,3.34 -1.88,6.28 a 1,1 0 0 0 0.49,1.42 q 1.99,0.81 0.96,2.94 a 0.99,0.99 0 0 0 0.49,1.35 q 1.16,0.52 0.43,1.84 a 1,1 0 0 0 0.32,1.31 q 2.4,1.63 5.27,1.76 a 0.98,1.02 63.5 0 1 0.51,0.16 c 7.8,5.17 15.24,2.85 23.77,6.47 a 1,0.99 6.4 0 1 0.58,0.72 c 0.53,2.47 3.23,2.6 5.16,3.19 a 1,1 0 0 1 0.57,0.44 q 1.19,1.96 1.12,4.32 a 1.01,0.98 21.2 0 0 0.36,0.78 q 1.02,0.87 2.45,0.51 a 1,1 0 0 1 1.22,1.2 q -1.76,7.28 -7.18,12.5 -1.43,1.39 -4.63,2.84 c -2.74,1.25 -5.33,3.2 -7.45,4.4 q -7.17,4.04 -14.38,8.01 c -3.2,1.77 -7.17,1.65 -10.73,3.1 q -0.24,0.1 -0.5,0.06 l -5.25,-0.68 a 1.02,1.01 72.8 0 1 -0.62,-0.33 l -0.39,-0.45 a 0.98,0.99 65.2 0 0 -0.91,-0.33 q -2.92,0.47 -5.27,-1.29 a 1.02,0.99 22.8 0 1 -0.4,-0.94 q 0.14,-0.93 -0.45,-1.66 a 0.64,0.65 52.7 0 1 0.13,-0.93 l 0.27,-0.18 a 0.81,0.81 0 0 0 0.22,-1.09 q -0.59,-0.93 -1.16,-0.04 a 0.8,0.8 0 0 1 -1.27,0.11 l -2.22,-2.47 a 0.97,1 22.9 0 1 -0.26,-0.67 q 0.01,-2.42 -1.76,-3.28 -3.25,-1.58 -1.27,1.45 l 2.72,4.16 q 1.49,2.28 -1.12,1.51 l -0.7,-0.21 a 1.01,0.99 2.2 0 1 -0.69,-0.73 q -0.59,-2.51 -3.17,-2.48 a 0.83,0.84 70.7 0 1 -0.65,-0.31 q -0.54,-0.69 0.09,-1.31 a 1.03,1.04 67.5 0 0 0.29,-0.69 l 0.05,-2.83 a 1.02,1.01 17.7 0 0 -0.45,-0.86 l -2.71,-1.75 a 0.94,0.98 8.8 0 1 -0.43,-0.61 c -0.43,-1.81 -6.75,-7.47 -7.17,-7.21 a 0.41,0.41 0 0 0 -0.15,0.54 c 0.46,0.88 3.67,3.59 3.16,4.05 a 0.5,0.5 0 0 1 -0.48,0.11 c -5.96,-1.69 -7.12,1.37 -11.19,4.06 -4.46,2.93 -7.87,6.75 -12.08,10.03 -1.05,0.82 -1.82,0.82 -2.98,1.38 a 0.98,0.94 1.4 0 0 -0.43,0.39 q -2.66,4.53 -7.79,4.67 c -2.05,0.06 -3.61,0.74 -5.36,1.43 a 1.02,1.01 50.2 0 1 -0.92,-0.09 q -1.6,-1.06 -3.32,-0.36 a 1,0.99 49 0 1 -0.91,-0.07 q -1.44,-0.9 -2.96,0.05 a 0.98,1.01 37 0 1 -0.76,0.12 q -3.95,-0.94 -7.46,-3.07 a 0.79,0.8 28.3 0 1 -0.3,-1.02 q 0.57,-1.2 1.96,0.08 a 1,1 0 0 0 1.13,0.16 c 0.97,-0.5 8.38,0.14 3.23,-2.59 q -3.03,-1.61 -10.21,-2.49 a 1,1 0 0 1 -0.84,-0.72 q -1.53,-5.44 -6.33,-6.39 -3.71,-0.73 -5.32,-2.89 a 1.01,1.03 73.6 0 0 -0.75,-0.4 c -2.08,-0.1 -3.65,-0.07 -5.56,-1.03 q -4.66,-2.38 -6.87,-5.27 -1.14,-1.48 -0.63,-3.74 0.36,-1.59 -0.71,-0.36 z m 79.98,-126.51 c -4.68,-2.9 -0.56,2.51 0.2,0.63 a 0.51,0.51 0 0 0 -0.2,-0.63 z m 5.9,4.89 c -6.68,-2.02 -17.35,-3.5 -23.65,0.13 a 0.98,1.04 31.3 0 1 -0.51,0.14 c -2.1,-0.02 -3.14,1.34 -4.55,1.96 q -8.28,3.64 -15.63,8.88 c -9.85,7.01 -15.03,22.52 -16.93,33.87 a 0.97,1.02 36.5 0 0 0.07,0.57 c 1.25,2.87 0.33,5.48 0.69,8.21 q 0.63,4.82 -0.91,9.47 a 0.99,0.99 0 0 0 0.03,0.73 l 1.24,2.78 a 1.02,0.99 41.9 0 1 0.05,0.71 l -1.42,4.58 a 0.99,0.98 37.6 0 0 0.11,0.83 q 1.63,2.56 0.86,5.56 a 1.04,1 44 0 0 0.02,0.56 c 1.18,3.66 1.32,7.64 3.29,10.92 q 3.96,6.58 7.53,13.08 a 1,1 0 0 0 1.23,0.45 c 8.55,-3.19 16.93,-15.38 21.21,-23.15 q 8.76,-15.93 12.45,-26.22 3.6,-10.05 13.42,-46.45 0.85,-3.15 2.25,-5.03 1.41,-1.89 -0.85,-2.58 z m -97.61,99.38 q -0.52,1.44 0.87,0.8 0.81,-0.37 1.04,-1.4 0.36,-1.64 -1,-0.66 -0.61,0.45 -0.91,1.26 z m 11.7879,18.834 a 1.56,0.81 53.5 0 0 -0.2768,-1.7358 1.56,0.81 53.5 0 0 -1.579,-0.7722 1.56,0.81 53.5 0 0 0.2768,1.7358 1.56,0.81 53.5 0 0 1.579,0.7722 z m 6.8333,7.5054 a 0.62,0.62 0 0 0 -0.358,-0.8004 l -4.2226,-1.6125 a 0.62,0.62 0 0 0 -0.8004,0.3581 l -0.021,0.056 a 0.62,0.62 0 0 0 0.358,0.8004 l 4.2226,1.6125 a 0.62,0.62 0 0 0 0.8004,-0.3581 z m 103.8888,18.5606 0.27,0.04 q 0.54,0.1 0.19,-0.33 -1.32,-1.66 -2.82,-0.28 a 0.98,0.98 0 0 0 -0.27,1.06 q 0.78,2.24 2.09,-0.23 a 0.52,0.51 18.3 0 1 0.54,-0.26 z"
     id="path4" />
  <path
     fill="#0f0d0c"
     d="m 77.451101,346.88604 q -0.54,0.96 0.6,1.6 3.45,1.93 0.91,4.47 a 1,1 0 0 1 -1.46,-0.05 q -1.91,-2.21 -3.6,-4.64 c -1.59,-2.28 -3.1,-3.77 -3.67,-6.69 a 1.02,1.04 60.9 0 1 0.26,-0.88 q 1.8,-1.89 -0.66,-1.73 a 0.99,0.98 73.1 0 1 -0.94,-0.51 q -5.01,-9.01 -5.67,-10.82 c -3.58,-9.78 -4.38,-21.43 -3.61,-35.51 0.29,-5.44 -1.05,-10.84 0.34,-16.72 3.31,-14.02 6.32,-25.6 14,-37.9 9.32,-14.92 24.560005,-27.07 40.040009,-35.29 q 2.74,-1.46 6.79,-2.41 7.74,-1.82 14.91,-5.19 a 1.01,1.04 36.5 0 1 0.54,-0.09 c 4.87,0.58 10.18,0.12 14.54,1 q 16.82,3.37 29.94,14.14 c 4.44,3.64 15.62,14.95 16.51,20.89 a 1.01,0.99 14.5 0 0 0.4,0.66 q 1.79,1.31 4.07,1.54 a 1.03,0.99 72.7 0 1 0.69,0.38 c 2.6,3.33 2.7,6.55 7.25,7.99 a 1,1.01 7.4 0 1 0.7,0.92 q 0.22,7.1 -1.79,13.83 c -0.4,1.33 -1.74,3.93 -2.12,6.1 q -0.32,1.84 -0.62,2.73 -2.83,8.68 -5.07,17.52 c -0.39,1.54 -0.01,2.79 -0.16,4.39 a 0.96,1 65.9 0 1 -0.2,0.49 c -3.14,4.25 -3.74,11.33 -3.53,16.41 0.15,3.43 -1.36,5.63 -1.67,9.02 a 0.99,1.01 27.4 0 0 0.23,0.74 q 4.22,5.04 0.35,10.36 a 0.99,0.99 0 0 0 0.49,1.53 q 1.67,0.56 1.23,2.39 -0.06,0.25 0,0.49 l 1,3.92 a 0.97,0.96 10 0 0 0.41,0.58 q 2.05,1.37 4.56,1.36 a 0.99,0.97 61.8 0 1 0.55,0.17 c 7.73,5.16 15.19,2.94 22.88,6.2 a 1,1.01 1.3 0 1 0.55,0.58 q 1.16,3.17 4.87,2.92 2.13,-0.15 1.91,3.87 -0.17,3.09 2.72,2.36 a 1,1.01 0.6 0 1 1.21,1.24 q -1.67,6.09 -5.74,10.98 a 1.01,1.02 11 0 1 -0.44,0.3 q -1.78,0.63 -1.98,2.36 a 1,1.01 85.1 0 1 -0.71,0.84 q -2.75,0.81 -5.41,0.19 a 0.8,0.8 0 0 0 -0.98,0.86 q 0.05,0.46 -0.06,0.89 c -0.54,2.07 -17.92,10.56 -18.49,10.8 q -6.3,2.69 -14.47,2.18 a 1.03,1 71.7 0 1 -0.71,-0.37 l -0.53,-0.65 a 1,1.01 65.6 0 0 -0.95,-0.35 q -4.1,0.76 -5.76,-2.83 a 0.99,1.01 45.3 0 1 0.01,-0.86 q 1.1,-2.18 -1.37,-2.19 a 1,0.99 72 0 1 -0.81,-0.42 q -1.76,-2.45 -3.03,-5.02 -0.47,-0.96 -1.46,-0.89 a 0.8,0.79 74.5 0 0 -0.65,1.16 q 1.21,2.37 2.8,4.46 c 0.89,1.17 0.11,2.49 -1.23,1.35 q -1.23,-1.05 -2.21,-2.36 a 1.01,1.07 81.5 0 0 -0.49,-0.34 q -1.29,-0.43 -1.91,-1.56 a 0.97,0.95 39.7 0 1 -0.08,-0.79 c 0.46,-1.4 0.51,-2.68 -0.61,-3.82 q -4.26,-4.32 -8.44,-8.72 a 0.97,1.03 69.9 0 0 -0.7,-0.3 l -0.48,-0.02 a 0.28,0.2 82.3 0 0 -0.18,0.34 c 0.29,1.38 3.03,3.14 2.9,3.39 a 0.51,0.52 14.7 0 1 -0.49,0.29 c -2.8,-0.21 -5.12,-0.15 -7.49,1.66 -5.77,4.4 -11.59,10.72 -17.95,13.96 a 0.91,1 88.5 0 0 -0.42,0.4 c -3.27,5.88 -15.33,5.12 -20.88,4.85 -2.61,-0.12 -4.18,-1.17 -6.48,-2.39 q -0.28,-0.15 -0.49,-0.33 -1.85,-1.51 0.51,-1.12 3,0.49 5.99,-0.02 c 0.87,-0.15 1.1,-1.07 0.26,-1.46 q -5.13,-2.39 -10.67,-2.65 a 0.99,1 81.8 0 1 -0.9,-0.67 q -2.18,-6.31 -8.690004,-7.02 -1.38,-0.15 -2.8,-2.23 a 0.99,1 74.1 0 0 -0.78,-0.43 q -6.270005,-0.29 -11.310005,-5.5 c -2.58,-2.66 -0.67,-3.58 -0.93,-5.92 q -0.26,-2.42 -1.93,-4.48 a 0.64,0.64 0 0 0 -1.06,0.09 z m 77.850009,-116.64 c 3.21,2.3 0.44,-2.33 -0.18,-0.59 a 0.52,0.51 28.3 0 0 0.18,0.59 z m 7.59,4.74 q -7.16,-2.19 -14.52,-2 c -9.42,0.25 -20.7,6.96 -28.25,12.24 -9.44,6.6 -18.15,25.37 -16.47,36.9 q 0.97,6.66 -0.55,14.1 a 0.98,1.01 37.8 0 0 0.07,0.63 c 2.1,4.43 -1.52,6.67 0.72,10.48 a 1,1.03 32.5 0 1 0.13,0.63 c -0.47,3.96 1.25,11.18 3.43,14.7 q 3.53,5.7 6.72,11.8 a 1,1 0 0 0 1.22,0.48 c 5.39,-1.86 7.99,-5.17 12.1,-10.1 11.28,-13.52 19.09,-32.36 23.95,-49.15 q 4.46,-15.38 8.65,-30.83 c 0.84,-3.1 1.97,-5.8 3.39,-8.45 a 1,1 0 0 0 -0.59,-1.43 z m -93.180009,95.63 q 0.12,-1.81 -1.11,-0.48 l -0.83,0.9 q -1.06,1.15 0.5,1.07 1.34,-0.06 1.44,-1.49 z m 14.65,26.09 a 0.95,0.95 0 0 0 0.6,0.06 c 3.29,-0.7 -3.07,-2.56 -3.52,-2.73 q -0.88,-0.34 -0.52,0.53 0.34,0.84 3.44,2.14 z m 101.230009,16.75 a 0.99,1 19.1 0 0 -1.46,0.71 c -0.52,3.07 3.86,0.6 1.46,-0.71 z"
     id="path5" />
  <path
     fill="#0f0d0c"
     d="m 420.04111,338.55604 -0.27,0.85 a 0.98,1 36.1 0 0 0.13,0.87 l 1.45,2.13 a 1,1.01 54 0 1 -0.22,1.36 l -0.36,0.27 a 1,1.01 52.1 0 1 -1.39,-0.17 l -3.16,-3.93 a 0.33,0.33 0 0 1 0.02,-0.44 l 0.19,-0.18 a 0.38,0.2 64.6 0 0 0.01,-0.33 c -1.94,-5.52 -7.61,-17.05 -6.72,-22.35 0.7,-4.16 0.44,-8.57 1.72,-12.57 1.08,-3.39 -0.39,-4.35 -0.32,-7.33 0.41,-17.79 5.57,-32.81 15.94,-47.3 12.47,-17.41 29.33,-33.22 48.43,-43.15 3.21,-1.68 5.82,-0.76 8.87,-3.83 q 1.5,-1.5 6.84,-3.2 a 1.02,1.03 53.2 0 1 0.86,0.12 l 1.68,1.12 a 1,0.99 45.3 0 0 1.1,0.01 l 4.1,-2.68 a 1.01,1.01 0 0 1 1.27,0.14 q 4.86,5.05 11.45,2.22 a 0.99,1 49.2 0 1 0.92,0.06 l 6.51,4.01 a 0.99,1 39.2 0 0 1.21,-0.13 q 1.63,-1.55 2.68,0.14 a 0.98,1 80.8 0 0 0.64,0.45 c 5.43,1.12 11.93,3.45 15.85,4.73 14.19,4.61 28.35,12.66 39.53,23.61 4.97,4.88 11.17,8.64 13.12,15.82 q 0.63,2.31 2.21,4.17 0.17,0.19 0.22,0.44 l 0.85,4.06 a 1.01,1 89.1 0 0 0.8,0.78 q 5.17,0.94 1.93,5.04 a 1.01,1.01 0 0 0 -0.03,1.2 q 2.22,3.12 0.43,6.73 a 0.4,0.41 12.5 0 0 0.37,0.59 h 0.39 a 0.8,0.79 2.8 0 1 0.81,0.89 q -0.19,1.64 -0.72,3.16 c -0.99,2.83 -0.82,5.06 -1.15,7.88 a 0.97,0.97 0 0 0 0.12,0.6 c 2.36,4.23 -1.49,6.05 -0.49,9.77 a 1.01,0.95 46.8 0 1 0,0.55 c -1.84,6.16 -4.35,11.4 -6.69,17.12 -9.16,22.36 -26.46,46.43 -49.28,55.68 -4.24,1.72 -8.31,5.59 -12.39,6.62 q -5.16,1.31 -9.69,4.21 a 0.97,0.99 34.8 0 1 -0.73,0.14 q -3.99,-0.8 -7.31,1.31 a 0.98,0.98 0 0 1 -0.81,0.11 q -1.52,-0.44 -2.55,0.62 a 1,1.01 38.5 0 1 -1.25,0.15 l -0.74,-0.47 a 1,0.98 51 0 0 -0.86,-0.1 q -6.43,2.2 -13.13,1.37 -2.6,-0.31 -4.26,-0.26 -5.23,0.15 -10.49,0.17 -3.41,0 -6.16,-1.93 a 0.63,0.63 0 0 0 -0.81,0.06 l -0.21,0.2 a 0.99,0.99 0 0 1 -1.01,0.22 c -5.26,-1.76 -11.14,-2.52 -15.55,-6.09 a 0.98,0.99 64.8 0 0 -0.62,-0.22 l -1.37,-0.02 a 1,0.97 70.7 0 1 -0.78,-0.39 q -1.84,-2.37 -4.7,-3.32 a 1,1.01 87.4 0 1 -0.61,-0.55 q -1.13,-2.65 -3.74,-3.81 a 1.01,1 13.4 0 1 -0.6,-0.96 c 0.22,-4.25 -2.81,-5.44 -5.73,-7.98 q -1.4,-1.22 -2.94,-0.53 a 0.99,0.99 0 0 1 -0.9,-0.04 c -3.55,-1.99 -3.94,-3.81 -4.92,-8.12 q -1.1,-4.81 -5.28,-9.72 -1.16,-1.37 -1.71,0.35 z m 67.03,-10.54 q 0.36,1.18 1.68,1.32 2.96,0.32 3.46,0.2 c 4.95,-1.17 9.54,-4.09 14.43,-4.96 4.19,-0.74 7.42,-2.54 11.18,-3.74 11.21,-3.55 17.68,-10.58 22.43,-20.78 4.56,-9.78 6.71,-21.33 7.6,-32.21 q 0.01,-0.2 -0.04,-0.38 c -0.88,-2.79 -1.59,-6.33 -3.79,-8.24 -2.82,-2.45 -7.09,-3.45 -10.63,-4.42 q -0.26,-0.07 -0.45,-0.26 -2.79,-2.81 -6.93,-2.83 -0.26,0 -0.49,-0.14 l -4.31,-2.49 a 1,1 0 0 1 -0.11,-1.65 l 0.94,-0.74 a 1,1 0 0 0 0.01,-1.56 q -1.46,-1.2 -3.14,-0.37 a 1.01,1.01 0 0 0 -0.54,1.05 l 0.2,1.36 a 1.01,1 4.9 0 1 -1.31,1.1 q -1.99,-0.67 -4.06,-0.86 c -12.51,-1.18 -22.46,-5.81 -32.78,3.63 -3.63,3.33 -7.96,6.73 -10.11,11.02 a 0.98,1.02 85.6 0 1 -0.35,0.39 c -2.02,1.3 -4.11,5.47 -5.37,7.6 -1.84,3.14 -2.08,6.84 -3.51,10.35 q -0.84,2.04 -0.85,4.12 0,6.28 -1.49,12.41 a 1,0.99 27.7 0 0 0.31,0.98 c 1.11,1 0.41,1.9 0.5,2.92 0.28,3.34 1.66,6.36 -1.05,9.38 a 1.01,0.99 53.6 0 0 -0.15,1.1 l 1.54,3.21 a 1,0.98 39.8 0 1 0.07,0.68 l -1.12,4.44 a 1.01,0.97 37.3 0 0 0.12,0.78 q 2.21,3.47 6.05,4.73 a 1.03,0.98 85.2 0 1 0.59,0.52 q 1.18,2.48 3.68,3.49 a 0.99,1.01 31.1 0 0 1.14,-0.29 q 1.03,-1.23 2.47,-0.73 a 1.06,1.01 46.5 0 0 0.58,0.03 q 3.89,-1 6.85,1.3 a 1.01,1 44.2 0 0 1.24,-0.01 q 1.91,-1.53 4.31,-2.13 a 1,0.99 74.2 0 1 1.2,0.68 z m 39.59,-81.49 -0.27,0.4 q -0.78,1.17 0.61,1.25 1.38,0.08 0.79,-1.52 -0.44,-1.16 -1.13,-0.13 z m -98.36,103.94 q 0.12,0.33 0.44,0.55 a 0.64,0.64 0 0 0 0.97,-0.35 q 0.29,-0.99 -0.4,-1.23 -1.57,-0.53 -1.01,1.03 z m 3.54,1.48 q 0.67,0.89 1.42,1.24 c 0.59,0.27 1.86,-0.02 0.75,-1.1 q -0.61,-0.59 -1.3,-1.06 -3.11,-2.09 -0.87,0.92 z m 13.87,12.07 c 0.3,0.25 0.63,0.75 1.12,0.61 a 0.41,0.41 0 0 0 0.22,-0.62 c -0.65,-1 -1.91,-3.65 -2.89,-4.07 q -0.99,-0.43 -0.7,0.61 0.59,2.09 2.25,3.47 z"
     id="path6" />
  <path
     fill="#0f0d0c"
     d="m 1044.3411,224.25604 c 4,0.54 7.1,3.63 5.95,7.88 a 1.01,1 24.3 0 0 0.42,1.1 l 2.07,1.33 a 0.99,1 22.3 0 1 0.43,1.04 c -0.81,4 -3.73,6.67 -5.45,9.27 -4.13,6.26 -10.6,10.87 -14.39,17.24 -12.24,20.57 -24.06,41.25 -37.06998,61.32 -11.93001,18.4 -27.73001,35.1 -41.86001,51.87 -12.84,15.25 -26.68,26.97 -39.46,36.05 -4.69,3.34 -11.62,7.02 -19.02,11.9 -4.6,3.03 -7.26,0.56 -10.36,-3.21 -2.04,-2.48 -3.81,-3.88 -5.07,-6.92 a 0.99,1 75.3 0 0 -1.04,-0.6 q -1,0.11 -1.46,-0.41 -1.54,-1.78 -3.3,-3.28 a 1,1 0 0 0 -1.33,0.03 q -1.04,0.97 -1.68,-1.49 a 1.03,1.01 57.6 0 1 0.19,-0.88 q 3.59,-4.44 5.83,-7.85 c 9.31,-14.19 16.93,-27.33 29.89,-41.02 5.88,-6.22 11.62,-12.2 17.02,-19.08 q 7.04,-8.97 13.89,-17.41 0.79,-0.98 1.78,-1.76 2.01,-1.6 2,-2.5 c -0.02,-0.83 -12.34,-8.71 -13.85,-9.67 a 0.33,0.33 0 0 1 0.02,-0.56 c 0.73,-0.42 2.01,1.05 2.44,-0.28 a 0.98,1.01 25.1 0 0 -0.4,-1.15 l -6.82,-4.42 a 1,0.97 57 0 0 -0.67,-0.15 c -4.24,0.57 2.18,4.59 2.95,5.23 q 1.62,1.32 -0.33,0.55 -0.16,-0.06 -0.32,-0.17 c -5.62,-3.62 -7.49,-6.58 -10.89,-10.35 -3.71,-4.1 -6.19,-10.52 -7.75,-15.97 -1.09,-3.78 -2.91,-7.19 -3.27,-11.2 -0.22,-2.45 -1.37,-5.13 -0.1,-7.51 a 1.01,0.98 40.4 0 0 -0.1,-1.09 l -0.78,-0.99 a 1,1 0 0 1 -0.19,-0.83 q 0.43,-2.08 -0.55,-4.05 a 1.04,1.04 0 0 1 -0.02,-0.85 c 0.72,-1.65 -1.59,-6.76 -1.83,-9.04 a 1.02,1.02 0 0 0 -0.37,-0.67 q -1.5,-1.2 -0.78,-3.08 a 0.98,1.04 42.6 0 0 -0.01,-0.74 l -5.03,-12 a 0.98,0.95 41.1 0 1 -0.05,-0.59 c 1.13,-5.43 3.57,-4.95 6.32,-8.76 2.27,-3.14 10.39,-7.88 14.19,-8.23 7.69,-0.7 22.51,11.96 24.67,18.21 1.04,3.02 3.14,4.52 4.75,7.19 a 1.01,1.04 29.4 0 1 0.15,0.57 q -0.22,4.59 1.9,8.71 a 1.02,1.05 0.7 0 0 0.4,0.42 q 2.78,1.54 1.56,4.41 a 0.98,1 40.6 0 0 0.06,0.9 q 2.09,3.55 2.72,7.59 c 0.27,1.75 0.93,2.6 2.38,3.37 a 1.01,0.99 11.3 0 1 0.52,0.76 l 0.29,2.43 a 1.03,0.99 63.3 0 1 -0.24,0.78 c -0.93,1.05 -1.09,2.19 -0.38,3.49 q 3.04,5.54 5.66,11.28 0.1,0.21 0.28,0.36 l 2.72,2.24 a 1.04,1.02 15.9 0 1 0.36,0.63 q 0.33,2.26 1.64,4.17 a 1,1 0 0 0 1.71,-0.1 c 8.49,-15.95 15.04,-26.78 28.51001,-45.03 2.13,-2.89 3.75,-6.61 6.43998,-9.31 q 13.47,-13.56 31.85,-19.2 c 2.1,-0.64 5.6,-2.2 4.2,2.22 a 1.01,1 14 0 0 0.78,1.29 q 5.21,0.94 6.45,5.83 a 0.98,0.99 87 0 0 0.83,0.74 z m -122.80999,74.23 0.54,1.1 q 1.29,2.65 1.21,-0.29 -0.02,-0.97 -0.77,-1.58 -2.26,-1.85 -0.98,0.77 z"
     id="path7" />
  <path
     fill="#0f0d0c"
     d="m 805.69111,253.53604 q -1.43,-0.32 -1.36,1.61 0.04,0.99 -0.45,0.58 a 0.33,0.34 14.1 0 1 -0.12,-0.21 c -0.42,-3.11 -2.56,-8.13 2.03,-9.47 a 1.06,1.02 12.5 0 0 0.46,-0.28 c 1.56,-1.72 2.51,-3.14 2.01,-5.64 q -0.96,-4.82 -0.54,-9.77 a 1,0.98 69.8 0 1 0.27,-0.6 q 4.52,-4.72 10.25,-7.87 a 0.98,0.98 0 0 1 0.81,-0.07 q 8.19,2.82 12.95,9.56 c 4.36,6.17 7.77,10.29 7.23,18.52 a 0.97,0.96 31.4 0 0 0.15,0.61 q 0.95,1.47 0.13,3.07 a 0.99,0.99 0 0 0 0.02,0.95 q 2,3.52 0.8,7.31 -0.07,0.23 -0.03,0.47 l 2.29,13.58 a 0.99,1.01 7.5 0 0 0.55,0.73 q 2.83,1.35 0.77,4.23 a 1,0.97 61.8 0 0 -0.18,0.63 q 0.11,2.17 1.51,3.76 a 1.02,1 34.2 0 1 0.2,0.98 q -1.21,3.62 0.66,6.83 1.56,2.66 1.14,5.31 -0.56,3.58 1.7,6.34 1.05,1.28 1.5,6.85 a 0.96,0.99 60.8 0 1 -0.2,0.67 q -1.54,2.1 0,4.15 a 0.99,1.06 23.2 0 1 0.2,0.55 l 0.14,2.73 a 0.99,1 13.6 0 0 0.48,0.8 q 3.2,1.95 0.95,5.3 a 0.98,0.99 49.5 0 0 -0.08,0.96 l 0.68,1.53 a 1,1.01 40.3 0 1 0.05,0.66 q -1.17,4.44 -2.26,8.88 c -0.88,3.56 -3.53,6.46 -5.01,9.9 -0.81,1.88 -1.76,2.61 -3.7,2.89 a 2.32,1.4 84.9 0 0 -1.15,2.37 c 0.29,3.83 -4.58,4.36 -7.31,4.22 a 1.01,1.03 75.4 0 1 -0.8,-0.46 q -0.74,-1.18 -2.01,-0.62 a 1.01,1 56.3 0 1 -1.14,-0.23 l -2.57,-2.75 a 1.02,1.03 29.1 0 1 -0.25,-0.89 q 0.24,-1.17 -0.56,-1.86 -1.32,-1.14 0.41,-1.39 1.37,-0.2 1.28,1.04 a 0.8,0.79 3.9 0 0 0.75,0.85 q 0.93,0.06 0.92,1.24 a 1.03,1.02 18.7 0 0 0.41,0.82 l 1.18,0.86 q 0.97,0.72 1.01,-0.49 0.01,-0.21 -0.06,-0.46 -0.65,-2.37 -2.84,-3.33 -0.24,-0.11 -0.4,-0.31 -1.4,-1.87 -3.12,-3.43 c -1.83,-1.65 -3.05,-4.13 -5.58,-5.46 a 0.98,0.96 1.3 0 1 -0.43,-0.44 q -2.05,-4.14 -5.6,-7.02 a 0.97,0.99 19.5 0 1 -0.37,-0.79 q 0.08,-4.72 -4.3,-5.84 c -0.57,-0.15 -0.68,-0.11 -1.11,0.21 q -0.38,0.28 -0.41,-0.2 -0.15,-2.14 -0.99,-6.31 -1.26,-6.28 -0.98,-12.69 0,-0.13 -0.03,-0.26 -1.64,-7.28 -2.71,-14.66 c -0.31,-2.18 0.51,-4.32 0.08,-6.73 q -0.05,-0.25 0.03,-0.5 l 1.15,-3.31 a 1.01,0.98 44.2 0 0 -0.02,-0.72 l -1.73,-4.12 a 1,1.01 57.6 0 1 0.26,-1.14 q 0.85,-0.76 0.27,-1.72 a 1.01,1 39.2 0 1 -0.09,-0.86 c 0.86,-2.36 -0.76,-4.04 0.28,-5.99 a 1.03,1.01 43.6 0 0 -0.03,-0.99 q -0.43,-0.72 0.26,-1 a 0.51,0.51 0 0 1 0.71,0.45 q 0.04,1.06 0.79,1.68 a 1,1 0 0 0 1.56,-0.41 q 0.81,-2.06 0.86,-4.22 c 0.08,-3.74 0.37,-5.95 -0.94,-8.64 a 0.98,0.99 83.1 0 0 -0.68,-0.53 z m -1.45,-2.14 q 0.3,1.08 1.32,0.06 a 0.64,0.64 0 0 0 -0.05,-0.94 q -0.33,-0.28 -0.82,-0.07 a 0.81,0.81 0 0 0 -0.45,0.95 z m 2.67,26.77 q 1.68,1.62 1.35,-0.69 -0.29,-2.07 -1.7,-3.74 a 1,0.99 30.9 0 1 -0.22,-0.87 c 1.1,-4.77 -1.61,-1.95 -0.71,0.04 a 0.98,1.01 37.8 0 1 0.07,0.63 q -0.65,2.82 1.21,4.63 z m 1.89,23.49 a 0.53,0.52 35.8 0 0 -0.59,0.09 q -0.48,0.46 0.18,0.89 a 0.51,0.5 34.7 0 0 0.68,-0.12 q 0.4,-0.52 -0.27,-0.86 z m 0.46,3.36 q 0.26,1.32 1.26,1.2 0.97,-0.11 0.32,-0.85 l -0.7,-0.79 q -1.26,-1.43 -0.88,0.44 z m 1.07,11.43 c 1.65,-4.18 -3.07,0.94 -0.6,0.49 a 0.8,0.79 5.2 0 0 0.6,-0.49 z m 1.36,5.62 q 2.72,0.74 1.07,-1.55 l -0.86,-1.19 q -1.45,-2 -1.8,0.44 -0.26,1.81 1.59,2.3 z"
     id="path8" />
  <ellipse
     fill="#0f0d0c"
     cx="691.70166"
     cy="478.92792"
     transform="rotate(-17.9)"
     rx="1.28"
     ry="0.92000002"
     id="ellipse8" />
  <path
     fill="#0f0d0c"
     d="m 262.95111,255.10604 q -3.44,-3.61 1.12,-1.6 1.62,0.71 2.8,2.17 a 0.99,1 59.5 0 1 -0.41,1.55 q -0.43,0.17 -0.99,0.14 a 0.98,0.96 69.6 0 1 -0.66,-0.31 z"
     id="path9" />
  <path
     fill="#0f0d0c"
     d="m 280.09111,272.26604 a 1.01,1.03 7.1 0 1 -0.54,-0.71 c -1.09,-5.89 4.86,2.87 0.54,0.71 z"
     id="path10" />
  <path
     fill="#0f0d0c"
     d="m 1110.7911,367.72604 q 1.52,1.12 2.58,2.67 1.9,2.78 -1.04,1.15 -1.03,-0.57 -1.45,-1.34 -0.92,-1.7 -1.99,-3.33 -1.43,-2.16 0.71,-0.71 0.57,0.39 0.84,1.1 a 0.91,0.93 7 0 0 0.35,0.46 z"
     id="path11" />
  <path
     fill="#0f0d0c"
     d="m 101.41111,372.70604 q -1.4,-1.21 -2.170004,-2.69 -2.24,-4.31 1.040004,-0.73 1.11,1.22 2.07,2.56 3.05,4.28 -0.94,0.86 z"
     id="path12" />
  <path
     fill="#0f0d0c"
     d="m 665.29111,373.21604 q -0.34,-2.13 1.3,-0.74 0.17,0.14 0.3,0.32 a 0.8,0.8 0 0 1 -0.39,1.23 q -1.03,0.34 -1.21,-0.81 z"
     id="path13" />
  <rect
     style="fill:none"
     id="rect26"
     width="877.68799"
     height="311.07928"
     x="16.047737"
     y="103.69308" />
  <rect
     style="fill:none"
     id="rect27"
     width="1304.8048"
     height="460.44672"
     x="12.344414"
     y="41.971008" />
  <rect
     style="fill:none"
     id="rect28"
     width="6.1722078"
     height="81.473145"
     x="1070.8961"
     y="173.5813" />
  <rect
     style="fill:none"
     id="rect29"
     width="1313.4459"
     height="509.82437"
     x="0"
     y="0" />
  <rect
     style="fill:none;stroke-width:0.919125"
     id="rect30"
     width="1285.0537"
     height="470.3222"
     x="39.502129"
     y="67.894287" />
</svg>
