<?xml version="1.0" encoding="UTF-8" standalone="no"?>
<!DOCTYPE svg PUBLIC "-//W3C//DTD SVG 1.1//EN" "http://www.w3.org/Graphics/SVG/1.1/DTD/svg11.dtd">
<svg xmlns="http://www.w3.org/2000/svg" version="1.1" viewBox="0 0 1448 1448">
<path fill="#0f0d0c" d="
  M 681.98 786.08
  C 679.46 784.99 680.60 779.79 680.95 777.66
  A 1.04 1.00 -55.2 0 0 680.85 777.04
  L 680.15 775.70
  A 0.99 0.97 41.1 0 1 680.09 774.92
  Q 681.51 770.74 680.39 766.51
  A 1.02 1.00 -44.5 0 1 680.40 765.97
  Q 681.55 762.05 680.15 758.33
  A 1.00 1.00 0.0 0 1 680.12 757.70
  C 680.88 755.06 679.65 753.10 679.73 750.87
  Q 679.89 746.67 681.30 742.05
  Q 681.55 741.24 681.00 740.41
  A 1.01 0.99 -51.7 0 1 680.90 739.49
  C 681.55 737.81 680.67 736.63 680.66 735.22
  Q 680.61 730.56 680.40 725.89
  A 1.04 1.04 0.0 0 1 680.64 725.20
  Q 681.30 724.41 680.65 723.56
  A 1.01 0.99 33.7 0 1 680.47 722.70
  C 681.26 719.54 680.28 716.89 680.92 713.97
  C 681.50 711.31 682.07 709.41 681.46 707.42
  Q 681.12 706.33 681.17 705.39
  C 681.61 698.12 680.35 689.42 680.03 683.87
  Q 679.62 676.45 678.75 669.06
  C 678.43 666.40 678.98 663.49 678.51 660.59
  A 0.99 0.97 57.7 0 1 678.67 659.86
  L 679.00 659.38
  A 0.99 0.99 0.0 0 0 678.96 658.21
  L 675.98 654.34
  Q 675.82 654.13 675.79 653.88
  L 673.55 639.04
  Q 673.51 638.79 673.60 638.55
  Q 674.23 636.80 672.69 635.83
  A 0.98 0.96 -78.2 0 1 672.24 635.13
  L 671.31 628.55
  Q 671.27 628.31 671.35 628.09
  Q 671.71 627.05 670.83 626.26
  A 0.98 0.97 18.1 0 1 670.51 625.64
  L 669.89 620.91
  A 1.01 0.99 66.3 0 1 670.23 620.02
  L 672.74 617.87
  A 1.00 1.00 0.0 0 0 672.86 616.47
  Q 671.85 615.25 670.77 616.20
  Q 668.91 617.83 669.11 615.37
  Q 669.17 614.63 669.73 613.90
  A 0.41 0.40 -60.5 0 1 670.21 613.76
  Q 670.58 613.92 670.92 613.47
  A 0.65 0.64 -41.1 0 1 672.00 613.54
  L 672.47 614.42
  A 0.80 0.80 0.0 0 0 673.63 614.69
  Q 674.39 614.16 673.60 613.11
  Q 673.12 612.47 673.60 611.82
  A 0.99 0.99 0.0 0 0 673.70 610.80
  Q 673.24 609.83 673.88 608.79
  A 0.81 0.79 43.2 0 0 673.84 607.90
  C 672.63 606.24 672.30 610.31 672.36 611.13
  A 1.01 1.00 68.2 0 1 672.00 611.98
  C 667.07 616.07 669.40 608.36 667.90 606.71
  A 0.97 0.94 19.3 0 1 667.67 606.25
  Q 667.29 604.47 667.89 602.70
  A 1.03 1.02 44.6 0 0 667.88 602.06
  L 667.00 599.50
  A 1.03 1.01 57.1 0 1 667.21 598.49
  Q 668.28 597.34 667.18 596.17
  A 0.92 0.91 -71.3 0 1 666.92 595.64
  C 666.59 593.51 666.17 589.72 667.12 588.51
  A 0.99 0.99 0.0 0 0 667.19 587.38
  Q 666.52 586.25 666.59 584.81
  Q 666.60 584.56 666.49 584.33
  C 664.10 579.41 664.44 574.34 665.54 568.80
  A 1.00 1.00 0.0 0 0 665.24 567.87
  Q 663.31 566.08 663.94 563.41
  A 0.99 0.97 41.7 0 0 663.90 562.80
  C 663.01 560.63 664.02 558.96 662.63 556.74
  A 0.99 0.97 29.5 0 1 662.48 556.22
  Q 662.42 549.08 662.09 541.97
  C 661.99 539.84 663.43 541.14 663.53 542.23
  Q 663.64 543.45 664.17 544.43
  Q 665.84 547.51 665.67 544.01
  L 665.39 538.23
  A 1.02 1.01 12.4 0 0 664.84 537.38
  Q 661.73 535.81 665.54 535.99
  A 1.00 1.00 0.0 0 0 666.58 535.05
  Q 666.74 532.63 667.48 531.23
  Q 673.93 519.18 683.60 508.50
  Q 685.49 506.42 687.79 508.62
  Q 690.74 511.45 694.73 511.25
  A 1.00 0.99 79.3 0 1 695.73 511.94
  Q 697.38 516.96 697.45 519.99
  Q 697.68 530.33 698.49 540.61
  C 698.75 544.04 700.44 547.78 700.56 551.19
  Q 700.74 556.50 702.89 560.21
  A 1.00 0.98 33.7 0 1 703.02 560.83
  C 702.86 562.21 702.20 563.42 702.43 564.78
  Q 703.12 568.86 704.89 572.57
  A 1.02 1.02 0.0 0 1 704.94 573.31
  L 704.00 576.30
  A 1.01 0.96 40.4 0 0 704.08 577.08
  C 706.87 582.13 705.93 585.14 706.66 589.51
  Q 706.70 589.76 706.62 590.00
  C 704.71 595.52 709.83 598.08 707.89 601.97
  A 1.00 1.00 0.0 0 0 707.97 603.00
  Q 709.21 604.77 709.43 607.51
  Q 709.59 609.63 711.18 613.04
  A 1.01 0.99 -45.7 0 1 711.18 613.89
  Q 710.01 616.36 712.17 618.19
  A 1.03 1.01 24.9 0 1 712.52 619.11
  L 712.08 621.92
  A 1.02 1.00 -59.3 0 0 712.26 622.66
  Q 713.60 624.51 713.52 626.82
  A 0.99 0.97 26.5 0 0 713.76 627.51
  C 716.65 630.89 714.43 633.89 715.66 637.57
  A 1.00 1.00 0.0 0 0 716.11 638.12
  C 718.96 639.76 716.48 643.84 719.36 647.00
  A 0.99 0.96 -69.5 0 1 719.61 647.57
  Q 720.27 653.90 723.54 659.30
  A 1.03 0.99 -54.2 0 1 723.65 660.08
  L 722.37 664.74
  A 1.00 0.99 -62.5 0 0 722.69 665.77
  C 725.63 668.24 723.57 670.67 723.92 673.52
  Q 724.55 678.76 726.96 683.45
  A 0.97 0.93 39.7 0 1 727.04 684.15
  Q 726.85 684.91 727.08 685.50
  A 1.00 1.00 0.0 0 0 728.69 685.87
  C 741.40 674.16 754.69 662.61 769.69 653.93
  C 771.99 652.60 774.73 652.09 776.77 650.97
  Q 780.01 649.18 782.64 646.91
  A 1.02 0.98 25.8 0 1 783.37 646.67
  Q 788.55 647.07 792.98 644.58
  A 1.03 1.02 33.9 0 1 793.60 644.46
  C 800.52 645.35 808.92 653.55 814.80 657.40
  C 819.90 660.73 820.92 664.59 823.11 669.96
  A 0.99 0.94 8.9 0 0 823.44 670.39
  C 825.68 672.04 825.39 675.45 827.77 677.82
  A 1.00 0.98 -63.4 0 1 828.05 678.70
  L 827.33 682.77
  A 0.99 0.98 -59.9 0 0 827.54 683.57
  L 829.03 685.40
  A 0.99 0.98 34.8 0 1 829.20 686.33
  Q 827.82 690.70 828.67 695.14
  C 829.30 698.46 828.74 700.41 827.85 703.36
  A 1.03 1.01 -49.1 0 0 827.89 704.04
  Q 830.26 709.64 828.00 715.25
  Q 827.34 716.89 828.74 718.15
  C 833.60 722.50 825.52 725.87 828.60 731.33
  A 1.02 1.01 -47.2 0 1 828.63 732.25
  C 826.00 737.81 823.91 744.45 821.72 749.18
  Q 816.16 761.23 808.78 772.30
  C 806.57 775.61 803.34 776.91 801.21 779.97
  C 796.38 786.92 791.04 789.64 783.51 793.03
  Q 782.36 793.55 781.66 794.65
  A 1.02 1.01 -82.1 0 1 781.11 795.07
  Q 778.75 795.79 777.48 797.93
  A 1.03 1.01 2.9 0 1 777.04 798.32
  C 773.81 799.81 770.85 801.06 767.86 803.00
  Q 766.78 803.70 765.45 803.81
  A 1.02 1.00 -81.6 0 0 764.59 804.46
  C 763.05 808.63 752.47 811.78 748.45 812.83
  Q 748.19 812.90 748.00 813.09
  C 744.43 816.61 737.82 820.46 733.58 815.53
  A 1.00 1.00 0.0 0 0 731.88 815.84
  Q 730.66 819.19 727.17 820.10
  C 726.48 820.28 725.93 819.80 726.00 819.06
  A 0.33 0.33 0.0 0 0 725.55 818.72
  L 725.21 818.86
  A 0.26 0.25 -13.0 0 0 725.05 819.11
  C 725.13 821.35 717.75 821.05 715.96 821.28
  A 1.03 0.98 -23.7 0 1 715.10 820.97
  Q 714.03 819.81 714.40 818.45
  A 1.01 1.00 14.2 0 0 713.65 817.21
  L 711.02 816.62
  A 1.01 0.99 74.9 0 1 710.51 816.32
  Q 707.69 813.28 703.73 811.85
  A 1.02 1.00 -3.9 0 1 703.20 811.40
  L 701.71 808.77
  A 0.81 0.80 -17.9 0 0 700.92 808.37
  L 700.64 808.40
  Q 699.52 808.54 699.98 807.50
  L 700.29 806.82
  A 1.00 1.00 0.0 0 0 699.81 805.51
  Q 695.00 803.20 698.83 798.32
  A 1.00 0.99 -52.5 0 0 698.65 796.90
  L 693.54 793.10
  Q 693.37 792.97 693.27 792.78
  C 691.69 789.94 689.11 789.11 687.90 786.87
  A 1.00 0.98 -9.3 0 0 687.19 786.37
  C 684.12 785.84 683.10 789.47 684.78 790.40
  Q 685.12 790.58 685.54 790.61
  Q 686.99 790.71 686.13 791.88
  L 685.87 792.24
  Q 684.68 793.86 684.10 791.94
  L 682.54 786.71
  A 1.02 0.99 4.3 0 0 681.98 786.08
  Z
  M 666.36 556.32
  Q 665.50 556.95 666.20 557.46
  Q 667.01 558.05 667.01 557.05
  L 667.01 556.65
  Q 667.01 555.85 666.36 556.32
  Z
  M 666.64 566.70
  Q 666.09 568.38 667.70 568.39
  A 1.00 1.00 0.0 0 0 668.66 567.09
  L 668.54 566.71
  Q 667.61 563.76 666.64 566.70
  Z
  M 668.98 588.31
  A 1.00 1.00 0.0 0 0 670.34 587.47
  Q 670.56 585.09 670.14 582.71
  Q 669.52 579.21 669.13 582.75
  Q 668.97 584.19 669.00 585.67
  A 1.04 1.01 65.4 0 1 668.77 586.32
  Q 667.59 587.76 668.98 588.31
  Z
  M 672.22 605.21
  Q 672.37 604.47 671.42 603.85
  Q 670.51 603.26 670.63 604.34
  Q 670.72 605.12 671.46 605.56
  A 0.52 0.51 -69.4 0 0 672.22 605.21
  Z
  M 679.23 651.89
  C 678.00 655.22 681.18 655.81 680.53 659.26
  A 1.00 1.00 0.0 0 0 680.86 660.21
  C 684.51 663.33 681.72 656.96 682.41 656.39
  A 2.27 0.64 83.7 0 0 682.72 654.52
  Q 682.57 652.12 680.54 651.31
  A 1.00 1.00 0.0 0 0 679.23 651.89
  Z
  M 736.17 764.71
  Q 735.85 765.07 735.78 765.45
  Q 735.47 767.01 736.91 766.33
  C 739.57 765.06 741.84 763.00 744.16 761.70
  Q 752.73 756.93 760.64 751.13
  C 763.65 748.93 765.67 745.03 769.08 743.41
  Q 771.26 742.37 772.31 740.19
  Q 776.92 730.52 779.01 720.96
  C 779.65 718.04 777.99 715.66 778.59 712.42
  Q 779.30 708.56 778.94 707.05
  C 778.11 703.53 776.41 706.25 775.04 706.95
  C 768.57 710.27 766.51 714.35 760.53 718.06
  Q 757.91 719.68 755.70 724.13
  Q 755.59 724.37 755.37 724.51
  Q 748.78 729.02 745.61 736.16
  C 743.82 740.18 742.13 743.08 740.37 746.51
  A 0.93 0.92 -33.3 0 0 740.26 747.02
  C 740.39 749.63 740.26 751.38 738.71 753.77
  Q 735.76 758.31 736.41 763.94
  A 1.00 0.99 62.6 0 1 736.17 764.71
  Z
  M 721.83 816.82
  Q 720.62 816.26 719.75 817.09
  Q 718.38 818.41 720.27 818.19
  L 721.63 818.04
  Q 723.90 817.77 721.83 816.82
  Z"
/>
<path fill="#0f0d0c" d="
  M 882.29 611.69
  C 879.72 607.56 875.43 605.76 872.79 601.50
  C 870.46 597.74 867.06 595.36 870.62 590.39
  Q 876.39 582.35 886.96 580.75
  A 1.08 1.03 -35.7 0 1 887.53 580.83
  Q 892.56 583.19 895.79 587.55
  C 898.44 591.13 901.70 591.41 903.26 596.03
  Q 903.32 596.21 903.44 596.35
  L 905.84 599.22
  A 1.00 0.97 33.9 0 1 906.03 600.13
  C 903.86 607.86 893.93 626.34 883.78 618.77
  Q 881.59 617.13 884.32 616.97
  Q 885.15 616.92 885.54 616.30
  A 1.01 1.00 -51.9 0 0 885.39 615.03
  Q 882.94 612.72 882.29 611.69
  Z"
/>
<path fill="#0f0d0c" d="
  M 383.73 834.51
  L 381.27 836.05
  A 1.01 0.98 -49.8 0 1 380.38 836.14
  L 379.09 835.64
  A 1.01 0.99 -43.5 0 0 378.38 835.63
  C 374.19 837.15 369.45 838.04 365.60 835.51
  A 1.02 0.98 -35.7 0 0 364.77 835.39
  C 362.65 836.00 359.82 835.05 356.92 835.13
  A 1.00 0.98 65.8 0 1 356.21 834.85
  Q 354.26 832.99 351.47 833.17
  Q 351.20 833.19 350.97 833.07
  Q 348.20 831.73 346.30 829.30
  C 345.20 827.89 346.55 826.84 347.80 828.16
  C 350.00 830.48 355.06 829.35 351.46 826.53
  Q 345.56 821.90 339.26 817.81
  A 0.99 0.99 0.0 0 0 338.02 817.93
  Q 336.80 819.11 335.56 817.44
  A 0.95 0.93 -7.4 0 0 335.11 817.10
  Q 331.14 815.61 327.91 812.77
  A 0.97 0.94 69.4 0 0 327.40 812.53
  C 322.27 811.72 316.76 800.51 315.40 796.82
  Q 314.81 795.22 315.76 792.84
  A 1.00 0.98 46.4 0 0 315.77 792.11
  Q 315.20 790.64 316.36 789.89
  A 1.01 1.01 0.0 0 0 316.78 788.76
  L 316.63 788.25
  A 1.00 0.99 -15.6 0 1 317.34 787.00
  Q 321.41 785.96 324.16 782.79
  A 0.98 0.97 20.4 0 1 324.93 782.44
  Q 329.47 782.53 333.86 782.74
  C 336.37 782.85 338.49 784.52 341.07 781.92
  A 1.02 0.98 17.2 0 1 341.63 781.64
  L 343.93 781.29
  A 1.01 1.01 0.0 0 1 344.73 781.51
  Q 349.99 785.98 352.87 784.62
  A 0.99 0.98 -36.8 0 1 353.96 784.77
  Q 355.04 785.74 356.40 785.05
  A 1.09 1.02 34.9 0 1 357.02 784.96
  Q 362.15 785.85 367.25 786.55
  Q 369.43 786.85 379.47 783.94
  C 387.22 781.69 390.95 778.06 395.38 770.95
  C 401.61 760.95 409.15 748.61 402.64 736.87
  C 401.22 734.30 398.55 733.21 396.40 731.11
  A 1.00 1.00 0.0 0 0 395.48 730.85
  C 393.20 731.37 386.85 730.58 384.91 729.05
  A 0.99 0.98 56.6 0 0 384.04 728.87
  Q 383.28 729.06 382.45 728.76
  Q 375.37 726.22 367.12 724.97
  A 1.02 0.99 75.0 0 1 366.47 724.58
  Q 365.54 723.34 364.06 724.22
  A 1.03 1.01 42.1 0 1 363.11 724.26
  L 355.78 720.73
  Q 355.56 720.62 355.31 720.63
  Q 353.21 720.72 352.02 719.01
  Q 350.87 717.37 350.96 716.01
  Q 351.09 714.24 349.89 712.10
  C 348.91 710.34 341.91 704.67 340.14 704.06
  Q 339.90 703.98 339.73 703.80
  L 334.04 697.75
  A 1.02 0.97 -13.8 0 0 333.55 697.47
  Q 331.14 696.86 329.07 695.51
  A 0.98 0.96 -28.1 0 0 328.49 695.34
  C 322.20 695.58 322.44 683.50 323.97 678.99
  Q 327.80 667.70 333.81 657.47
  C 337.91 650.52 344.05 645.11 349.81 639.35
  C 359.39 629.78 371.12 623.07 383.72 618.24
  A 1.01 1.00 45.4 0 1 384.48 618.25
  L 387.46 619.55
  A 1.02 0.95 50.7 0 0 387.99 619.62
  Q 396.58 618.48 401.15 625.46
  A 0.94 0.93 -6.0 0 0 401.62 625.84
  C 404.82 627.12 406.56 630.60 409.79 633.59
  C 411.51 635.18 411.82 637.00 412.42 639.12
  A 0.98 0.96 50.5 0 1 412.36 639.83
  C 409.04 646.81 405.82 649.40 402.36 654.29
  Q 400.49 656.93 397.25 657.04
  C 385.48 657.43 377.61 666.98 372.22 676.37
  Q 371.09 678.35 373.32 678.80
  C 376.72 679.47 378.57 677.93 381.88 680.54
  A 0.99 0.98 -25.2 0 0 382.50 680.76
  L 384.78 680.75
  A 0.98 0.95 -26.1 0 1 385.40 680.95
  C 386.98 682.16 388.39 682.00 390.23 681.09
  Q 390.75 680.83 391.30 680.62
  A 1.00 1.00 0.0 0 1 392.62 681.31
  Q 393.06 683.03 394.75 683.22
  Q 397.56 683.54 398.25 683.79
  Q 426.67 693.97 444.08 716.69
  Q 445.21 718.16 445.95 719.01
  C 454.89 729.26 460.36 748.58 455.81 761.81
  C 451.30 774.93 445.58 787.32 437.66 798.81
  Q 431.21 808.18 429.41 810.41
  C 420.84 820.97 405.30 828.88 393.25 834.00
  Q 390.93 834.98 388.08 834.20
  A 1.01 1.01 0.0 0 0 386.89 834.77
  Q 386.24 836.30 385.06 834.75
  A 1.01 1.00 -34.5 0 0 383.73 834.51
  Z
  M 352.6695 716.9513
  A 1.14 0.86 73.2 0 0 353.1633 715.6114
  A 1.14 0.86 73.2 0 0 352.0105 714.7687
  A 1.14 0.86 73.2 0 0 351.5167 716.1086
  A 1.14 0.86 73.2 0 0 352.6695 716.9513
  Z
  M 328.02 809.29
  Q 327.51 808.88 327.11 808.65
  Q 324.62 807.14 326.25 809.55
  L 327.39 811.23
  Q 328.19 812.41 328.54 811.03
  Q 328.67 810.52 328.32 809.69
  Q 328.22 809.45 328.02 809.29
  Z
  M 385.26 832.51
  Q 384.57 833.37 385.70 833.97
  A 0.64 0.63 29.6 0 0 386.54 833.74
  Q 386.98 833.04 386.14 832.40
  A 0.64 0.64 0.0 0 0 385.26 832.51
  Z"
/>
<path fill="#0f0d0c" d="
  M 1156.45 795.06
  L 1156.14 795.43
  A 1.00 1.00 0.0 0 1 1154.63 795.43
  Q 1150.29 790.49 1147.03 784.77
  A 1.01 0.99 -50.3 0 1 1146.96 783.93
  L 1148.02 781.08
  A 0.64 0.64 0.0 0 0 1147.49 780.22
  Q 1146.91 780.15 1146.59 780.55
  A 0.64 0.63 -39.4 0 1 1145.52 780.45
  L 1143.63 776.79
  Q 1143.52 776.57 1143.52 776.32
  Q 1143.54 774.79 1142.14 774.22
  A 1.01 0.99 7.4 0 1 1141.53 773.44
  L 1141.31 771.98
  A 0.98 0.97 15.2 0 0 1140.93 771.32
  Q 1139.29 770.09 1139.65 768.09
  A 1.04 1.04 0.0 0 0 1139.58 767.51
  Q 1138.86 765.88 1138.25 764.21
  C 1137.66 762.58 1138.07 760.84 1137.18 759.02
  A 0.80 0.79 59.3 0 1 1137.43 758.02
  L 1137.70 757.82
  A 0.33 0.32 54.2 0 0 1137.77 757.36
  Q 1135.69 754.68 1136.22 751.39
  A 1.00 1.00 0.0 0 0 1135.96 750.54
  Q 1134.81 749.34 1135.76 747.98
  A 1.00 0.98 58.4 0 0 1135.92 747.27
  C 1135.40 743.57 1136.37 740.41 1135.98 736.72
  Q 1135.72 734.19 1136.46 731.73
  A 0.97 0.97 0.0 0 0 1136.41 731.01
  Q 1135.65 729.46 1136.33 728.04
  A 1.00 1.00 0.0 0 0 1136.08 726.85
  Q 1134.65 725.61 1135.86 723.92
  A 0.98 0.97 57.6 0 0 1136.03 723.14
  C 1135.03 718.01 1137.05 713.99 1137.80 709.95
  C 1141.39 690.47 1150.45 672.67 1165.04 659.26
  C 1174.09 650.93 1188.35 638.72 1201.24 636.74
  Q 1205.24 636.12 1213.22 632.50
  C 1216.04 631.22 1219.17 631.97 1222.13 632.27
  C 1225.52 632.60 1228.29 631.29 1231.96 633.60
  A 1.00 0.94 54.7 0 0 1232.66 633.74
  C 1236.95 633.01 1245.22 636.68 1247.97 639.50
  A 1.00 0.98 -20.8 0 0 1248.66 639.80
  C 1252.06 639.91 1253.66 642.12 1255.76 643.40
  Q 1260.93 646.54 1265.34 650.66
  C 1267.67 652.85 1269.40 656.29 1272.14 658.75
  C 1272.98 659.51 1273.32 660.98 1273.90 661.36
  Q 1278.03 664.02 1278.24 669.13
  A 1.01 1.00 -82.6 0 0 1278.94 670.05
  L 1283.61 671.51
  A 1.00 0.97 -5.0 0 1 1284.19 671.98
  L 1287.67 678.29
  A 1.01 1.00 78.8 0 0 1288.43 678.80
  Q 1290.85 679.10 1291.97 681.28
  A 1.01 1.01 0.0 0 1 1292.06 681.91
  Q 1291.76 683.59 1291.77 686.75
  Q 1291.80 691.86 1288.73 698.65
  Q 1288.20 699.81 1287.93 701.97
  C 1287.72 703.66 1286.83 705.17 1286.46 706.45
  Q 1284.03 714.88 1281.64 723.33
  A 1.06 1.03 -49.3 0 0 1281.68 723.99
  C 1283.09 727.36 1280.30 728.59 1279.68 730.95
  Q 1277.86 737.85 1278.07 744.96
  C 1278.16 748.08 1276.95 749.84 1276.05 752.66
  A 0.98 0.98 0.0 0 0 1276.12 753.43
  L 1278.77 758.46
  A 0.97 0.92 -58.4 0 1 1278.88 758.98
  Q 1278.67 762.32 1277.00 765.26
  A 1.00 1.00 0.0 0 0 1277.49 766.68
  Q 1279.48 767.49 1278.45 769.62
  A 0.99 0.99 0.0 0 0 1278.94 770.97
  Q 1280.10 771.49 1279.37 772.81
  A 1.00 1.00 0.0 0 0 1279.69 774.12
  Q 1282.09 775.75 1284.96 775.88
  A 1.02 0.98 -26.5 0 1 1285.47 776.04
  C 1293.27 781.21 1300.71 778.89 1309.24 782.51
  A 1.00 0.99 6.4 0 1 1309.82 783.23
  C 1310.35 785.70 1313.05 785.83 1314.98 786.42
  A 1.00 1.00 0.0 0 1 1315.55 786.86
  Q 1316.74 788.82 1316.67 791.18
  A 1.01 0.98 21.2 0 0 1317.03 791.96
  Q 1318.05 792.83 1319.48 792.47
  A 1.00 1.00 0.0 0 1 1320.70 793.67
  Q 1318.94 800.95 1313.52 806.17
  Q 1312.09 807.56 1308.89 809.01
  C 1306.15 810.26 1303.56 812.21 1301.44 813.41
  Q 1294.27 817.45 1287.06 821.42
  C 1283.86 823.19 1279.89 823.07 1276.33 824.52
  Q 1276.09 824.62 1275.83 824.58
  L 1270.58 823.90
  A 1.02 1.01 72.8 0 1 1269.96 823.57
  L 1269.57 823.12
  A 0.99 0.98 -24.8 0 0 1268.66 822.79
  Q 1265.74 823.26 1263.39 821.50
  A 1.02 0.99 22.8 0 1 1262.99 820.56
  Q 1263.13 819.63 1262.54 818.90
  A 0.65 0.64 -37.3 0 1 1262.67 817.97
  L 1262.94 817.79
  A 0.81 0.81 0.0 0 0 1263.16 816.70
  Q 1262.57 815.77 1262.00 816.66
  A 0.80 0.80 0.0 0 1 1260.73 816.77
  L 1258.51 814.30
  A 1.00 0.97 -67.1 0 1 1258.25 813.63
  Q 1258.26 811.21 1256.49 810.35
  Q 1253.24 808.77 1255.22 811.80
  L 1257.94 815.96
  Q 1259.43 818.24 1256.82 817.47
  L 1256.12 817.26
  A 1.01 0.99 2.2 0 1 1255.43 816.53
  Q 1254.84 814.02 1252.26 814.05
  A 0.84 0.83 -19.3 0 1 1251.61 813.74
  Q 1251.07 813.05 1251.70 812.43
  A 1.04 1.03 -22.5 0 0 1251.99 811.74
  L 1252.04 808.91
  A 1.02 1.01 17.7 0 0 1251.59 808.05
  L 1248.88 806.30
  A 0.98 0.94 -81.2 0 1 1248.45 805.69
  C 1248.02 803.88 1241.70 798.22 1241.28 798.48
  A 0.41 0.41 0.0 0 0 1241.13 799.02
  C 1241.59 799.90 1244.80 802.61 1244.29 803.07
  A 0.50 0.50 0.0 0 1 1243.81 803.18
  C 1237.85 801.49 1236.69 804.55 1232.62 807.24
  C 1228.16 810.17 1224.75 813.99 1220.54 817.27
  C 1219.49 818.09 1218.72 818.09 1217.56 818.65
  A 0.98 0.94 1.4 0 0 1217.13 819.04
  Q 1214.47 823.57 1209.34 823.71
  C 1207.29 823.77 1205.73 824.45 1203.98 825.14
  A 1.02 1.01 50.2 0 1 1203.06 825.05
  Q 1201.46 823.99 1199.74 824.69
  A 1.00 0.99 49.0 0 1 1198.83 824.62
  Q 1197.39 823.72 1195.87 824.67
  A 1.01 0.98 -53.0 0 1 1195.11 824.79
  Q 1191.16 823.85 1187.65 821.72
  A 0.80 0.79 -61.7 0 1 1187.35 820.70
  Q 1187.92 819.50 1189.31 820.78
  A 1.00 1.00 0.0 0 0 1190.44 820.94
  C 1191.41 820.44 1198.82 821.08 1193.67 818.35
  Q 1190.64 816.74 1183.46 815.86
  A 1.00 1.00 0.0 0 1 1182.62 815.14
  Q 1181.09 809.70 1176.29 808.75
  Q 1172.58 808.02 1170.97 805.86
  A 1.03 1.01 -16.4 0 0 1170.22 805.46
  C 1168.14 805.36 1166.57 805.39 1164.66 804.43
  Q 1160.00 802.05 1157.79 799.16
  Q 1156.65 797.68 1157.16 795.42
  Q 1157.52 793.83 1156.45 795.06
  Z
  M 1236.43 668.55
  C 1231.75 665.65 1235.87 671.06 1236.63 669.18
  A 0.51 0.51 0.0 0 0 1236.43 668.55
  Z
  M 1242.33 673.44
  C 1235.65 671.42 1224.98 669.94 1218.68 673.57
  A 1.04 0.98 -58.7 0 1 1218.17 673.71
  C 1216.07 673.69 1215.03 675.05 1213.62 675.67
  Q 1205.34 679.31 1197.99 684.55
  C 1188.14 691.56 1182.96 707.07 1181.06 718.42
  A 1.02 0.97 -53.5 0 0 1181.13 718.99
  C 1182.38 721.86 1181.46 724.47 1181.82 727.20
  Q 1182.45 732.02 1180.91 736.67
  A 0.99 0.99 0.0 0 0 1180.94 737.40
  L 1182.18 740.18
  A 1.02 0.99 41.9 0 1 1182.23 740.89
  L 1180.81 745.47
  A 0.99 0.98 37.6 0 0 1180.92 746.30
  Q 1182.55 748.86 1181.78 751.86
  A 1.04 1.00 44.0 0 0 1181.80 752.42
  C 1182.98 756.08 1183.12 760.06 1185.09 763.34
  Q 1189.05 769.92 1192.62 776.42
  A 1.00 1.00 0.0 0 0 1193.85 776.87
  C 1202.40 773.68 1210.78 761.49 1215.06 753.72
  Q 1223.82 737.79 1227.51 727.50
  Q 1231.11 717.45 1240.93 681.05
  Q 1241.78 677.90 1243.18 676.02
  Q 1244.59 674.13 1242.33 673.44
  Z
  M 1144.72 772.82
  Q 1144.20 774.26 1145.59 773.62
  Q 1146.40 773.25 1146.63 772.22
  Q 1146.99 770.58 1145.63 771.56
  Q 1145.02 772.01 1144.72 772.82
  Z
  M 1156.5079 791.6540
  A 1.56 0.81 53.5 0 0 1156.2311 789.9182
  A 1.56 0.81 53.5 0 0 1154.6521 789.1460
  A 1.56 0.81 53.5 0 0 1154.9289 790.8818
  A 1.56 0.81 53.5 0 0 1156.5079 791.6540
  Z
  M 1163.3412 799.1594
  A 0.62 0.62 0.0 0 0 1162.9832 798.3590
  L 1158.7606 796.7465
  A 0.62 0.62 0.0 0 0 1157.9602 797.1046
  L 1157.9388 797.1606
  A 0.62 0.62 0.0 0 0 1158.2968 797.9610
  L 1162.5194 799.5735
  A 0.62 0.62 0.0 0 0 1163.3198 799.2154
  L 1163.3412 799.1594
  Z
  M 1267.23 817.72
  L 1267.50 817.76
  Q 1268.04 817.86 1267.69 817.43
  Q 1266.37 815.77 1264.87 817.15
  A 0.98 0.98 0.0 0 0 1264.60 818.21
  Q 1265.38 820.45 1266.69 817.98
  A 0.52 0.51 18.3 0 1 1267.23 817.72
  Z"
/>
<path fill="#0f0d0c" d="
  M 144.71 791.76
  Q 144.17 792.72 145.31 793.36
  Q 148.76 795.29 146.22 797.83
  A 1.00 1.00 0.0 0 1 144.76 797.78
  Q 142.85 795.57 141.16 793.14
  C 139.57 790.86 138.06 789.37 137.49 786.45
  A 1.04 1.02 -29.1 0 1 137.75 785.57
  Q 139.55 783.68 137.09 783.84
  A 0.99 0.98 73.1 0 1 136.15 783.33
  Q 131.14 774.32 130.48 772.51
  C 126.90 762.73 126.10 751.08 126.87 737.00
  C 127.16 731.56 125.82 726.16 127.21 720.28
  C 130.52 706.26 133.53 694.68 141.21 682.38
  C 150.53 667.46 165.77 655.31 181.25 647.09
  Q 183.99 645.63 188.04 644.68
  Q 195.78 642.86 202.95 639.49
  A 1.04 1.01 -53.5 0 1 203.49 639.40
  C 208.36 639.98 213.67 639.52 218.03 640.40
  Q 234.85 643.77 247.97 654.54
  C 252.41 658.18 263.59 669.49 264.48 675.43
  A 1.01 0.99 14.5 0 0 264.88 676.09
  Q 266.67 677.40 268.95 677.63
  A 1.03 0.99 72.7 0 1 269.64 678.01
  C 272.24 681.34 272.34 684.56 276.89 686.00
  A 1.01 1.00 -82.6 0 1 277.59 686.92
  Q 277.81 694.02 275.80 700.75
  C 275.40 702.08 274.06 704.68 273.68 706.85
  Q 273.36 708.69 273.06 709.58
  Q 270.23 718.26 267.99 727.10
  C 267.60 728.64 267.98 729.89 267.83 731.49
  A 1.00 0.96 -24.1 0 1 267.63 731.98
  C 264.49 736.23 263.89 743.31 264.10 748.39
  C 264.25 751.82 262.74 754.02 262.43 757.41
  A 1.01 0.99 -62.6 0 0 262.66 758.15
  Q 266.88 763.19 263.01 768.51
  A 0.99 0.99 0.0 0 0 263.50 770.04
  Q 265.17 770.60 264.73 772.43
  Q 264.67 772.68 264.73 772.92
  L 265.73 776.84
  A 0.97 0.96 10.0 0 0 266.14 777.42
  Q 268.19 778.79 270.70 778.78
  A 0.99 0.97 61.8 0 1 271.25 778.95
  C 278.98 784.11 286.44 781.89 294.13 785.15
  A 1.01 1.00 -88.7 0 1 294.68 785.73
  Q 295.84 788.90 299.55 788.65
  Q 301.68 788.50 301.46 792.52
  Q 301.29 795.61 304.18 794.88
  A 1.01 1.00 -89.4 0 1 305.39 796.12
  Q 303.72 802.21 299.65 807.10
  A 1.02 1.01 -79.0 0 1 299.21 807.40
  Q 297.43 808.03 297.23 809.76
  A 1.01 1.00 -4.9 0 1 296.52 810.60
  Q 293.77 811.41 291.11 810.79
  A 0.80 0.80 0.0 0 0 290.13 811.65
  Q 290.18 812.11 290.07 812.54
  C 289.53 814.61 272.15 823.10 271.58 823.34
  Q 265.28 826.03 257.11 825.52
  A 1.03 1.00 71.7 0 1 256.40 825.15
  L 255.87 824.50
  A 1.01 1.00 -24.4 0 0 254.92 824.15
  Q 250.82 824.91 249.16 821.32
  A 1.01 0.99 -44.7 0 1 249.17 820.46
  Q 250.27 818.28 247.80 818.27
  A 1.00 0.99 72.0 0 1 246.99 817.85
  Q 245.23 815.40 243.96 812.83
  Q 243.49 811.87 242.50 811.94
  A 0.80 0.79 74.5 0 0 241.85 813.10
  Q 243.06 815.47 244.65 817.56
  C 245.54 818.73 244.76 820.05 243.42 818.91
  Q 242.19 817.86 241.21 816.55
  A 1.07 1.01 -8.5 0 0 240.72 816.21
  Q 239.43 815.78 238.81 814.65
  A 0.97 0.95 39.7 0 1 238.73 813.86
  C 239.19 812.46 239.24 811.18 238.12 810.04
  Q 233.86 805.72 229.68 801.32
  A 1.03 0.97 -20.1 0 0 228.98 801.02
  L 228.50 801.00
  A 0.28 0.20 82.3 0 0 228.32 801.34
  C 228.61 802.72 231.35 804.48 231.22 804.73
  A 0.52 0.51 -75.3 0 1 230.73 805.02
  C 227.93 804.81 225.61 804.87 223.24 806.68
  C 217.47 811.08 211.65 817.40 205.29 820.64
  A 1.00 0.91 -1.5 0 0 204.87 821.04
  C 201.60 826.92 189.54 826.16 183.99 825.89
  C 181.38 825.77 179.81 824.72 177.51 823.50
  Q 177.23 823.35 177.02 823.17
  Q 175.17 821.66 177.53 822.05
  Q 180.53 822.54 183.52 822.03
  C 184.39 821.88 184.62 820.96 183.78 820.57
  Q 178.65 818.18 173.11 817.92
  A 1.00 0.99 -8.2 0 1 172.21 817.25
  Q 170.03 810.94 163.52 810.23
  Q 162.14 810.08 160.72 808.00
  A 1.00 0.99 -15.9 0 0 159.94 807.57
  Q 153.67 807.28 148.63 802.07
  C 146.05 799.41 147.96 798.49 147.70 796.15
  Q 147.44 793.73 145.77 791.67
  A 0.64 0.64 0.0 0 0 144.71 791.76
  Z
  M 222.56 675.12
  C 225.77 677.42 223.00 672.79 222.38 674.53
  A 0.52 0.51 28.3 0 0 222.56 675.12
  Z
  M 230.15 679.86
  Q 222.99 677.67 215.63 677.86
  C 206.21 678.11 194.93 684.82 187.38 690.10
  C 177.94 696.70 169.23 715.47 170.91 727.00
  Q 171.88 733.66 170.36 741.10
  A 1.01 0.98 -52.2 0 0 170.43 741.73
  C 172.53 746.16 168.91 748.40 171.15 752.21
  A 1.03 1.00 -57.5 0 1 171.28 752.84
  C 170.81 756.80 172.53 764.02 174.71 767.54
  Q 178.24 773.24 181.43 779.34
  A 1.00 1.00 0.0 0 0 182.65 779.82
  C 188.04 777.96 190.64 774.65 194.75 769.72
  C 206.03 756.20 213.84 737.36 218.70 720.57
  Q 223.16 705.19 227.35 689.74
  C 228.19 686.64 229.32 683.94 230.74 681.29
  A 1.00 1.00 0.0 0 0 230.15 679.86
  Z
  M 136.97 775.49
  Q 137.09 773.68 135.86 775.01
  L 135.03 775.91
  Q 133.97 777.06 135.53 776.98
  Q 136.87 776.92 136.97 775.49
  Z
  M 151.62 801.58
  A 0.95 0.95 0.0 0 0 152.22 801.64
  C 155.51 800.94 149.15 799.08 148.70 798.91
  Q 147.82 798.57 148.18 799.44
  Q 148.52 800.28 151.62 801.58
  Z
  M 252.85 818.33
  A 1.00 0.99 -70.9 0 0 251.39 819.04
  C 250.87 822.11 255.25 819.64 252.85 818.33
  Z"
/>
<path fill="#0f0d0c" d="
  M 487.30 783.43
  L 487.03 784.28
  A 1.00 0.98 -53.9 0 0 487.16 785.15
  L 488.61 787.28
  A 1.01 1.00 -36.0 0 1 488.39 788.64
  L 488.03 788.91
  A 1.01 1.00 -37.9 0 1 486.64 788.74
  L 483.48 784.81
  A 0.33 0.33 0.0 0 1 483.50 784.37
  L 483.69 784.19
  A 0.38 0.20 64.6 0 0 483.70 783.86
  C 481.76 778.34 476.09 766.81 476.98 761.51
  C 477.68 757.35 477.42 752.94 478.70 748.94
  C 479.78 745.55 478.31 744.59 478.38 741.61
  C 478.79 723.82 483.95 708.80 494.32 694.31
  C 506.79 676.90 523.65 661.09 542.75 651.16
  C 545.96 649.48 548.57 650.40 551.62 647.33
  Q 553.12 645.83 558.46 644.13
  A 1.03 1.02 -36.8 0 1 559.32 644.25
  L 561.00 645.37
  A 1.00 0.99 45.3 0 0 562.10 645.38
  L 566.20 642.70
  A 1.01 1.01 0.0 0 1 567.47 642.84
  Q 572.33 647.89 578.92 645.06
  A 1.00 0.99 -40.8 0 1 579.84 645.12
  L 586.35 649.13
  A 1.00 0.99 -50.8 0 0 587.56 649.00
  Q 589.19 647.45 590.24 649.14
  A 1.00 0.98 -9.2 0 0 590.88 649.59
  C 596.31 650.71 602.81 653.04 606.73 654.32
  C 620.92 658.93 635.08 666.98 646.26 677.93
  C 651.23 682.81 657.43 686.57 659.38 693.75
  Q 660.01 696.06 661.59 697.92
  Q 661.76 698.11 661.81 698.36
  L 662.66 702.42
  A 1.01 1.00 89.1 0 0 663.46 703.20
  Q 668.63 704.14 665.39 708.24
  A 1.01 1.01 0.0 0 0 665.36 709.44
  Q 667.58 712.56 665.79 716.17
  A 0.41 0.40 -77.5 0 0 666.16 716.76
  L 666.55 716.76
  A 0.80 0.79 2.8 0 1 667.36 717.65
  Q 667.17 719.29 666.64 720.81
  C 665.65 723.64 665.82 725.87 665.49 728.69
  A 0.97 0.97 0.0 0 0 665.61 729.29
  C 667.97 733.52 664.12 735.34 665.12 739.06
  A 1.01 0.95 46.8 0 1 665.12 739.61
  C 663.28 745.77 660.77 751.01 658.43 756.73
  C 649.27 779.09 631.97 803.16 609.15 812.41
  C 604.91 814.13 600.84 818.00 596.76 819.03
  Q 591.60 820.34 587.07 823.24
  A 0.99 0.97 -55.2 0 1 586.34 823.38
  Q 582.35 822.58 579.03 824.69
  A 0.98 0.98 0.0 0 1 578.22 824.80
  Q 576.70 824.36 575.67 825.42
  A 1.01 1.00 -51.5 0 1 574.42 825.57
  L 573.68 825.10
  A 1.00 0.98 51.0 0 0 572.82 825.00
  Q 566.39 827.20 559.69 826.37
  Q 557.09 826.06 555.43 826.11
  Q 550.20 826.26 544.94 826.28
  Q 541.53 826.28 538.78 824.35
  A 0.63 0.63 0.0 0 0 537.97 824.41
  L 537.76 824.61
  A 0.99 0.99 0.0 0 1 536.75 824.83
  C 531.49 823.07 525.61 822.31 521.20 818.74
  A 0.99 0.98 -25.2 0 0 520.58 818.52
  L 519.21 818.50
  A 1.00 0.97 70.7 0 1 518.43 818.11
  Q 516.59 815.74 513.73 814.79
  A 1.01 1.00 -2.6 0 1 513.12 814.24
  Q 511.99 811.59 509.38 810.43
  A 1.01 1.00 13.4 0 1 508.78 809.47
  C 509.00 805.22 505.97 804.03 503.05 801.49
  Q 501.65 800.27 500.11 800.96
  A 0.99 0.99 0.0 0 1 499.21 800.92
  C 495.66 798.93 495.27 797.11 494.29 792.80
  Q 493.19 787.99 489.01 783.08
  Q 487.85 781.71 487.30 783.43
  Z
  M 554.33 772.89
  Q 554.69 774.07 556.01 774.21
  Q 558.97 774.53 559.47 774.41
  C 564.42 773.24 569.01 770.32 573.90 769.45
  C 578.09 768.71 581.32 766.91 585.08 765.71
  C 596.29 762.16 602.76 755.13 607.51 744.93
  C 612.07 735.15 614.22 723.60 615.11 712.72
  Q 615.12 712.52 615.07 712.34
  C 614.19 709.55 613.48 706.01 611.28 704.10
  C 608.46 701.65 604.19 700.65 600.65 699.68
  Q 600.39 699.61 600.20 699.42
  Q 597.41 696.61 593.27 696.59
  Q 593.01 696.59 592.78 696.45
  L 588.47 693.96
  A 1.00 1.00 0.0 0 1 588.36 692.31
  L 589.30 691.57
  A 1.00 1.00 0.0 0 0 589.31 690.01
  Q 587.85 688.81 586.17 689.64
  A 1.01 1.01 0.0 0 0 585.63 690.69
  L 585.83 692.05
  A 1.01 1.00 4.9 0 1 584.52 693.15
  Q 582.53 692.48 580.46 692.29
  C 567.95 691.11 558.00 686.48 547.68 695.92
  C 544.05 699.25 539.72 702.65 537.57 706.94
  A 1.02 0.98 -4.4 0 1 537.22 707.33
  C 535.20 708.63 533.11 712.80 531.85 714.93
  C 530.01 718.07 529.77 721.77 528.34 725.28
  Q 527.50 727.32 527.49 729.40
  Q 527.49 735.68 526.00 741.81
  A 1.00 0.99 27.7 0 0 526.31 742.79
  C 527.42 743.79 526.72 744.69 526.81 745.71
  C 527.09 749.05 528.47 752.07 525.76 755.09
  A 1.01 0.99 53.6 0 0 525.61 756.19
  L 527.15 759.40
  A 1.00 0.98 39.8 0 1 527.22 760.08
  L 526.10 764.52
  A 1.01 0.97 37.3 0 0 526.22 765.30
  Q 528.43 768.77 532.27 770.03
  A 1.03 0.98 85.2 0 1 532.86 770.55
  Q 534.04 773.03 536.54 774.04
  A 1.01 0.99 -58.9 0 0 537.68 773.75
  Q 538.71 772.52 540.15 773.02
  A 1.06 1.01 46.5 0 0 540.73 773.05
  Q 544.62 772.05 547.58 774.35
  A 1.01 1.00 44.2 0 0 548.82 774.34
  Q 550.73 772.81 553.13 772.21
  A 1.00 0.99 74.2 0 1 554.33 772.89
  Z
  M 593.92 691.40
  L 593.65 691.80
  Q 592.87 692.97 594.26 693.05
  Q 595.64 693.13 595.05 691.53
  Q 594.61 690.37 593.92 691.40
  Z
  M 495.56 795.34
  Q 495.68 795.67 496.00 795.89
  A 0.64 0.64 0.0 0 0 496.97 795.54
  Q 497.26 794.55 496.57 794.31
  Q 495.00 793.78 495.56 795.34
  Z
  M 499.10 796.82
  Q 499.77 797.71 500.52 798.06
  C 501.11 798.33 502.38 798.04 501.27 796.96
  Q 500.66 796.37 499.97 795.90
  Q 496.86 793.81 499.10 796.82
  Z
  M 512.97 808.89
  C 513.27 809.14 513.60 809.64 514.09 809.50
  A 0.41 0.41 0.0 0 0 514.31 808.88
  C 513.66 807.88 512.40 805.23 511.42 804.81
  Q 510.43 804.38 510.72 805.42
  Q 511.31 807.51 512.97 808.89
  Z"
/>
<path fill="#0f0d0c" d="
  M 1111.60 669.13
  C 1115.60 669.67 1118.70 672.76 1117.55 677.01
  A 1.01 1.00 24.3 0 0 1117.97 678.11
  L 1120.04 679.44
  A 1.00 0.99 -67.7 0 1 1120.47 680.48
  C 1119.66 684.48 1116.74 687.15 1115.02 689.75
  C 1110.89 696.01 1104.42 700.62 1100.63 706.99
  C 1088.39 727.56 1076.57 748.24 1063.56 768.31
  C 1051.63 786.71 1035.83 803.41 1021.70 820.18
  C 1008.86 835.43 995.02 847.15 982.24 856.23
  C 977.55 859.57 970.62 863.25 963.22 868.13
  C 958.62 871.16 955.96 868.69 952.86 864.92
  C 950.82 862.44 949.05 861.04 947.79 858.00
  A 1.00 0.99 -14.7 0 0 946.75 857.40
  Q 945.75 857.51 945.29 856.99
  Q 943.75 855.21 941.99 853.71
  A 1.00 1.00 0.0 0 0 940.66 853.74
  Q 939.62 854.71 938.98 852.25
  A 1.03 1.01 57.6 0 1 939.17 851.37
  Q 942.76 846.93 945.00 843.52
  C 954.31 829.33 961.93 816.19 974.89 802.50
  C 980.77 796.28 986.51 790.30 991.91 783.42
  Q 998.95 774.45 1005.80 766.01
  Q 1006.59 765.03 1007.58 764.25
  Q 1009.59 762.65 1009.58 761.75
  C 1009.56 760.92 997.24 753.04 995.73 752.08
  A 0.33 0.33 0.0 0 1 995.75 751.52
  C 996.48 751.10 997.76 752.57 998.19 751.24
  A 1.01 0.98 -64.9 0 0 997.79 750.09
  L 990.97 745.67
  A 1.00 0.97 57.0 0 0 990.30 745.52
  C 986.06 746.09 992.48 750.11 993.25 750.75
  Q 994.87 752.07 992.92 751.30
  Q 992.76 751.24 992.60 751.13
  C 986.98 747.51 985.11 744.55 981.71 740.78
  C 978.00 736.68 975.52 730.26 973.96 724.81
  C 972.87 721.03 971.05 717.62 970.69 713.61
  C 970.47 711.16 969.32 708.48 970.59 706.10
  A 1.01 0.98 40.4 0 0 970.49 705.01
  L 969.71 704.02
  A 1.00 1.00 0.0 0 1 969.52 703.19
  Q 969.95 701.11 968.97 699.14
  A 1.04 1.04 0.0 0 1 968.95 698.29
  C 969.67 696.64 967.36 691.53 967.12 689.25
  A 1.02 1.02 0.0 0 0 966.75 688.58
  Q 965.25 687.38 965.97 685.50
  A 1.04 0.98 -47.4 0 0 965.96 684.76
  L 960.93 672.76
  A 0.98 0.95 41.1 0 1 960.88 672.17
  C 962.01 666.74 964.45 667.22 967.20 663.41
  C 969.47 660.27 977.59 655.53 981.39 655.18
  C 989.08 654.48 1003.90 667.14 1006.06 673.39
  C 1007.10 676.41 1009.20 677.91 1010.81 680.58
  A 1.04 1.01 -60.6 0 1 1010.96 681.15
  Q 1010.74 685.74 1012.86 689.86
  A 1.05 1.02 -89.3 0 0 1013.26 690.28
  Q 1016.04 691.82 1014.82 694.69
  A 1.00 0.98 -49.4 0 0 1014.88 695.59
  Q 1016.97 699.14 1017.60 703.18
  C 1017.87 704.93 1018.53 705.78 1019.98 706.55
  A 1.01 0.99 11.3 0 1 1020.50 707.31
  L 1020.79 709.74
  A 1.03 0.99 63.3 0 1 1020.55 710.52
  C 1019.62 711.57 1019.46 712.71 1020.17 714.01
  Q 1023.21 719.55 1025.83 725.29
  Q 1025.93 725.50 1026.11 725.65
  L 1028.83 727.89
  A 1.04 1.02 15.9 0 1 1029.19 728.52
  Q 1029.52 730.78 1030.83 732.69
  A 1.00 1.00 0.0 0 0 1032.54 732.59
  C 1041.03 716.64 1047.58 705.81 1061.05 687.56
  C 1063.18 684.67 1064.80 680.95 1067.49 678.25
  Q 1080.96 664.69 1099.34 659.05
  C 1101.44 658.41 1104.94 656.85 1103.54 661.27
  A 1.01 1.00 14.0 0 0 1104.32 662.56
  Q 1109.53 663.50 1110.77 668.39
  A 0.99 0.98 -3.0 0 0 1111.60 669.13
  Z
  M 988.79 743.36
  L 989.33 744.46
  Q 990.62 747.11 990.54 744.17
  Q 990.52 743.20 989.77 742.59
  Q 987.51 740.74 988.79 743.36
  Z"
/>
<path fill="#0f0d0c" d="
  M 872.95 698.41
  Q 871.52 698.09 871.59 700.02
  Q 871.63 701.01 871.14 700.60
  A 0.34 0.33 -75.9 0 1 871.02 700.39
  C 870.60 697.28 868.46 692.26 873.05 690.92
  A 1.06 1.02 12.5 0 0 873.51 690.64
  C 875.07 688.92 876.02 687.50 875.52 685.00
  Q 874.56 680.18 874.98 675.23
  A 1.00 0.98 69.8 0 1 875.25 674.63
  Q 879.77 669.91 885.50 666.76
  A 0.98 0.98 0.0 0 1 886.31 666.69
  Q 894.50 669.51 899.26 676.25
  C 903.62 682.42 907.03 686.54 906.49 694.77
  A 0.97 0.96 31.4 0 0 906.64 695.38
  Q 907.59 696.85 906.77 698.45
  A 0.99 0.99 0.0 0 0 906.79 699.40
  Q 908.79 702.92 907.59 706.71
  Q 907.52 706.94 907.56 707.18
  L 909.85 720.76
  A 1.01 0.99 -82.5 0 0 910.40 721.49
  Q 913.23 722.84 911.17 725.72
  A 1.00 0.97 61.8 0 0 910.99 726.35
  Q 911.10 728.52 912.50 730.11
  A 1.02 1.00 34.2 0 1 912.70 731.09
  Q 911.49 734.71 913.36 737.92
  Q 914.92 740.58 914.50 743.23
  Q 913.94 746.81 916.20 749.57
  Q 917.25 750.85 917.70 756.42
  A 0.99 0.96 -29.2 0 1 917.50 757.09
  Q 915.96 759.19 917.50 761.24
  A 1.06 0.99 -66.8 0 1 917.70 761.79
  L 917.84 764.52
  A 1.00 0.99 -76.4 0 0 918.32 765.32
  Q 921.52 767.27 919.27 770.62
  A 0.99 0.98 -40.5 0 0 919.19 771.58
  L 919.87 773.11
  A 1.01 1.00 -49.7 0 1 919.92 773.77
  Q 918.75 778.21 917.66 782.65
  C 916.78 786.21 914.13 789.11 912.65 792.55
  C 911.84 794.43 910.89 795.16 908.95 795.44
  A 2.32 1.40 84.9 0 0 907.80 797.81
  C 908.09 801.64 903.22 802.17 900.49 802.03
  A 1.03 1.01 -14.6 0 1 899.69 801.57
  Q 898.95 800.39 897.68 800.95
  A 1.01 1.00 56.3 0 1 896.54 800.72
  L 893.97 797.97
  A 1.03 1.02 -60.9 0 1 893.72 797.08
  Q 893.96 795.91 893.16 795.22
  Q 891.84 794.08 893.57 793.83
  Q 894.94 793.63 894.85 794.87
  A 0.80 0.79 3.9 0 0 895.60 795.72
  Q 896.53 795.78 896.52 796.96
  A 1.03 1.02 18.7 0 0 896.93 797.78
  L 898.11 798.64
  Q 899.08 799.36 899.12 798.15
  Q 899.13 797.94 899.06 797.69
  Q 898.41 795.32 896.22 794.36
  Q 895.98 794.25 895.82 794.05
  Q 894.42 792.18 892.70 790.62
  C 890.87 788.97 889.65 786.49 887.12 785.16
  A 0.98 0.96 1.3 0 1 886.69 784.72
  Q 884.64 780.58 881.09 777.70
  A 0.99 0.97 -70.5 0 1 880.72 776.91
  Q 880.80 772.19 876.42 771.07
  C 875.85 770.92 875.74 770.96 875.31 771.28
  Q 874.93 771.56 874.90 771.08
  Q 874.75 768.94 873.91 764.77
  Q 872.65 758.49 872.93 752.08
  Q 872.93 751.95 872.90 751.82
  Q 871.26 744.54 870.19 737.16
  C 869.88 734.98 870.70 732.84 870.27 730.43
  Q 870.22 730.18 870.30 729.93
  L 871.45 726.62
  A 1.01 0.98 44.2 0 0 871.43 725.90
  L 869.70 721.78
  A 1.01 1.00 -32.4 0 1 869.96 720.64
  Q 870.81 719.88 870.23 718.92
  A 1.01 1.00 39.2 0 1 870.14 718.06
  C 871.00 715.70 869.38 714.02 870.42 712.07
  A 1.03 1.01 43.6 0 0 870.39 711.08
  Q 869.96 710.36 870.65 710.08
  A 0.51 0.51 0.0 0 1 871.36 710.53
  Q 871.40 711.59 872.15 712.21
  A 1.00 1.00 0.0 0 0 873.71 711.80
  Q 874.52 709.74 874.57 707.58
  C 874.65 703.84 874.94 701.63 873.63 698.94
  A 0.99 0.98 -6.9 0 0 872.95 698.41
  Z
  M 871.50 696.27
  Q 871.80 697.35 872.82 696.33
  A 0.64 0.64 0.0 0 0 872.77 695.39
  Q 872.44 695.11 871.95 695.32
  A 0.81 0.81 0.0 0 0 871.50 696.27
  Z
  M 874.17 723.04
  Q 875.85 724.66 875.52 722.35
  Q 875.23 720.28 873.82 718.61
  A 1.00 0.99 30.9 0 1 873.60 717.74
  C 874.70 712.97 871.99 715.79 872.89 717.78
  A 1.01 0.98 -52.2 0 1 872.96 718.41
  Q 872.31 721.23 874.17 723.04
  Z
  M 876.06 746.53
  A 0.53 0.52 35.8 0 0 875.47 746.62
  Q 874.99 747.08 875.65 747.51
  A 0.51 0.50 34.7 0 0 876.33 747.39
  Q 876.73 746.87 876.06 746.53
  Z
  M 876.52 749.89
  Q 876.78 751.21 877.78 751.09
  Q 878.75 750.98 878.10 750.24
  L 877.40 749.45
  Q 876.14 748.02 876.52 749.89
  Z
  M 877.59 761.32
  C 879.24 757.14 874.52 762.26 876.99 761.81
  A 0.80 0.79 5.2 0 0 877.59 761.32
  Z
  M 878.95 766.94
  Q 881.67 767.68 880.02 765.39
  L 879.16 764.20
  Q 877.71 762.20 877.36 764.64
  Q 877.10 766.45 878.95 766.94
  Z"
/>
<ellipse fill="#0f0d0c" cx="0.00" cy="0.00" transform="translate(872.68,688.02) rotate(-17.9)" rx="1.28" ry="0.92"/>
<path fill="#0f0d0c" d="
  M 330.21 699.98
  Q 326.77 696.37 331.33 698.38
  Q 332.95 699.09 334.13 700.55
  A 1.00 0.99 -30.5 0 1 333.72 702.10
  Q 333.29 702.27 332.73 702.24
  A 0.98 0.96 69.6 0 1 332.07 701.93
  L 330.21 699.98
  Z"
/>
<path fill="#0f0d0c" d="
  M 347.35 717.14
  A 1.03 1.01 -82.9 0 1 346.81 716.43
  C 345.72 710.54 351.67 719.30 347.35 717.14
  Z"
/>
<path fill="#0f0d0c" d="
  M 1178.05 812.60
  Q 1179.57 813.72 1180.63 815.27
  Q 1182.53 818.05 1179.59 816.42
  Q 1178.56 815.85 1178.14 815.08
  Q 1177.22 813.38 1176.15 811.75
  Q 1174.72 809.59 1176.86 811.04
  Q 1177.43 811.43 1177.70 812.14
  A 0.93 0.91 -83.0 0 0 1178.05 812.60
  Z"
/>
<path fill="#0f0d0c" d="
  M 168.67 817.58
  Q 167.27 816.37 166.50 814.89
  Q 164.26 810.58 167.54 814.16
  Q 168.65 815.38 169.61 816.72
  Q 172.66 821.00 168.67 817.58
  Z"
/>
<path fill="#0f0d0c" d="
  M 732.55 818.09
  Q 732.21 815.96 733.85 817.35
  Q 734.02 817.49 734.15 817.67
  A 0.80 0.80 0.0 0 1 733.76 818.90
  Q 732.73 819.24 732.55 818.09
  Z"
/>
</svg>
